**ABCDEFGHIJKLMNOPQRSTUVWXYZabcdefghijklmnopqrstuvwxyz**************************
**PARASOLID !"#$%&'()*+,-./:;<=>?@[\]^_`{|}~0123456789**************************
**PART1;
MC=AMD64;
MC_MODEL=Intel64 Family 6 Model 158 Stepping 9, GenuineIntel;
MC_ID=unknown;
OS=Windows_NT;
OS_RELEASE=unknown;
FRU=Parasolid Version 33.1, build 260,  4-25-2022;
APPL=SOLIDWORKS 2022-2022207;
SITE=;
USER=unknown;
FORMAT=text;
GUISE=transmit;
KEY=FILEEGR346_P003_SwingArm.x_t;
DATE=Fri Sep  2 13:06:26 2022;
**PART2;
SCH=SCH_3301260_33103;
USFLD_SIZE=0;
**PART3;
**END_OF_HEADER*****************************************************************
T51 : TRANSMIT FILE created by modeller version 330126023 SCH_3301260_33103_1300
6230 0 12 35 CCCI7 lattice222 0 CCCI4 mesh1006 0 I8 polyline1008 0 CCCCCCCDI5 ow
ner1040 0 CCCCCCI13 boundary_mesh1006 0 I17 boundary_polyline1008 0 CCCA16 index
_map_offset0 0 1 dA9 index_map82 0 A17 node_id_index_map82 0 A20 schema_embeddin
g_map82 0 A5 child12 0 A14 lowest_node_id0 0 1 dA16 mesh_offset_data206 0 Z1 424
 2 3 0 0 0 0 0 0 0 1e3 1e-8 0 4 0 1 0 1 1 5 6 7 8 0 0 9 10 11 0 0 0 0 0 0 0 81 2
55 2 2 413 12 1 13 0 0 0 0 14 70 11 CI9 list_type0 0 1 uI10 notransmit0 0 1 lCCC
DCCDI12 finger_index0 0 1 dI12 finger_block1012 0 CZ3 0 4 T1 0 0 10 20 1 15 15 1
3 255 5 155 0 1 0 16 0 0 17 0 51 255 6 150 0 18 19 0 0 -.0127 -385185988877447e-
48 .0047625 0 0 -1 .0047625 -1 0 0 31 255 7 204 0 10 20 0 0 +.1016 1477536363171
282e-32 .002032 0 0 1 1 0 0 .0047625 29 255 8 121 0 21 22 0 -.1016 -.0079375 0 1
9 8 CCCCCCCA5 owner12 0 Z9 51 0 1 17 0 23 V0 16 255 10 201 0 ?24 0 25 7 0 0 1 18
 255 11 46 0 26 0 27 28 ?1 17 255 26 0 29 30 31 11 32 33 0 34 +18 27 43 0 35 11
 36 37 ?1 29 28 48 0 11 37 38 -.1016 -.0079375 .0047625 29 37 45 0 27 39 28 -.10
16 .0079375 .0047625 29 38 124 0 40 28 41 .1016 -.0079375 0 18 40 113 0 42 43 0
 38 ?1 29 41 123 0 43 38 22 .1016 .0079375 0 18 43 112 0 44 45 40 41 ?1 29 22 12
2 0 45 41 8 -.1016 .0079375 0 18 45 111 0 46 21 43 22 ?1 17 46 0 47 48 32 45 35
 49 0 50 +18 21 110 0 48 51 45 8 ?1 17 48 0 47 34 46 21 50 52 0 53 +18 51 37 0 5
4 36 21 55 ?1 17 54 0 56 57 58 51 59 60 0 30 -18 36 40 0 59 27 51 39 ?1 29 55 39
 0 51 0 39 .1016 -.0079375 .0047625 29 39 42 0 36 55 37 .1016 .0079375 .0047625
 17 59 0 29 31 30 36 54 60 0 58 +15 255 29 6 0 30 61 0 17 31 0 29 26 59 27 62 63
 0 0 -17 30 0 29 59 26 51 64 65 0 66 +16 60 22 0 ?59 63 65 67 0 0 1 17 58 0 56 5
4 68 36 44 69 0 62 -15 56 133 0 68 70 0 17 68 0 56 58 57 43 42 71 0 72 +17 44 0
 73 74 62 43 58 69 0 68 +16 69 127 0 ?44 25 49 75 0 0 1 17 62 0 73 44 35 36 31 6
3 0 0 +15 73 131 0 74 76 0 17 35 0 73 62 74 27 46 49 0 32 -16 63 27 0 ?62 33 60
 77 0 0 1 16 33 32 0 ?26 78 63 79 0 0 1 30 255 77 29 0 63 67 79 0 +0 .0079375 .0
047625 1 0 0 31 67 24 0 60 80 77 0 +.1016 1477536363171282e-32 .0047625 0 0 1 1
 0 0 .0079375 31 79 34 0 33 77 81 0 +-.1016 1477536363171282e-32 .0047625 0 0 1
 1 0 0 .0079375 31 81 120 0 82 79 83 0 +.0127 -385185988877447e-48 0 0 0 1 1 0 0
 .0047625 16 82 105 0 ?84 85 86 81 0 0 1 30 83 118 0 85 81 87 0 +0 -.0079375 0 1
 0 0 16 85 95 0 ?88 71 82 83 0 0 1 31 87 117 0 71 83 89 0 +.1016 147753636317128
2e-32 0 0 0 1 1 0 0 .0079375 16 71 90 0 ?68 90 85 87 0 0 1 30 89 116 0 90 87 91
 0 +0 .0079375 0 1 0 0 16 90 85 0 ?72 52 71 89 0 0 1 31 91 115 0 52 89 92 0 +-.1
016 1477536363171282e-32 0 0 0 1 1 0 0 .0079375 16 52 80 0 ?48 93 90 91 0 0 1 30
 92 151 0 78 91 94 0 +-.1016 -.0079375 .0047625 0 0 -1 16 78 125 0 ?53 49 33 92
 0 0 1 30 94 152 0 49 92 75 0 +-.1016 .0079375 .0047625 0 0 -1 16 49 126 0 ?46 6
9 78 94 0 0 1 30 75 153 0 69 94 20 0 +.1016 .0079375 .0047625 0 0 -1 30 20 154 0
 25 75 7 0 +.1016 -.0079375 .0047625 0 0 -1 16 25 128 0 ?57 10 69 20 0 0 1 17 57
 0 56 68 54 40 66 25 0 88 +17 66 0 95 64 88 51 57 25 0 0 -17 88 0 95 66 53 40 96
 85 0 0 +15 95 135 0 88 16 0 17 53 0 95 88 64 21 34 78 0 96 +17 96 0 97 50 42 21
 88 85 0 0 -15 97 79 0 96 98 99 17 50 0 97 72 96 45 48 52 0 74 -17 42 0 97 96 72
 40 68 71 0 57 -17 72 0 97 42 50 43 74 90 0 0 +17 74 0 73 35 44 45 72 90 0 0 -14
 255 98 76 100 ?101 61 102 5 103 -0 0 101 61 23 15 99 238 0 104 98 0 17 104 0 99
 104 104 0 105 106 0 0 +17 105 0 107 105 105 0 104 106 0 0 -16 106 217 0 ?104 86
 108 109 0 0 1 16 86 208 0 ?110 82 106 111 0 0 1 16 108 292 0 ?112 106 113 114 0
 0 1 31 109 247 0 106 111 115 0 +.1016 1477536363171282e-32 0 0 0 1 1 0 0 .00337
3437500000005 31 111 249 0 86 114 109 0 +.1016 1477536363171282e-32 .002032 0 0
 1 1 0 0 .003373437500000005 31 115 9 0 93 109 116 0 +.0127 -385185988877447e-48
 .0047625 0 0 1 1 0 0 .0047625 16 93 7 0 ?117 118 52 115 0 0 1 31 116 14 0 118 1
15 80 0 +.1016 1477536363171282e-32 .0047625 0 0 1 1 0 0 .0047625 16 118 12 0 ?1
19 65 93 116 0 0 1 30 80 19 0 65 116 67 0 +0 -.0079375 .0047625 1 0 0 16 65 17 0
 ?30 60 118 80 0 0 1 17 119 0 120 119 119 0 121 118 0 0 +15 120 137 0 119 122 0
 17 121 0 123 121 121 0 119 118 0 0 -15 123 5 0 121 61 29 14 61 1 124 ?98 125 12
6 5 127 +0 0 98 125 23 81 1 124 415 128 61 129 0 100 130 131 14 125 130 130 ?61
 18 47 5 132 -0 0 61 18 23 15 126 277 0 133 61 134 50 255 127 3 0 61 135 103 0 +
0 0 .0047625 0 0 1 1 0 0 13 23 52 0 0 0 0 0 0 9 16 14 16 136 136 ?70 0 95 5 137
 -0 0 70 0 23 81 1 136 417 128 16 138 0 130 139 140 14 70 134 139 ?76 16 56 5 14
1 -0 0 76 16 23 50 137 148 0 16 141 19 0 +0 -.0079375 .0047625 0 1 0 0 0 1 51 14
1 147 0 70 142 137 0 -.1016 1477536363171282e-32 .0047625 0 0 -1 .0079375 -1 0 0
 51 19 149 0 122 137 6 0 -.1016 1477536363171282e-32 .0047625 0 0 -1 .0047625 -1
 0 0 14 122 138 143 ?18 76 144 5 19 +0 0 18 76 23 81 1 143 419 128 122 145 0 139
 146 147 14 18 142 146 ?125 122 148 5 6 +0 0 125 122 23 14 76 132 149 ?122 70 73
 5 142 +0 0 122 70 23 15 144 203 0 150 122 120 17 150 0 144 150 150 0 24 10 0 0
 -17 24 0 151 24 24 0 150 10 0 0 +15 151 234 0 24 152 0 14 152 230 153 ?154 101
 155 5 156 +0 0 154 101 23 81 1 153 422 128 152 157 0 149 158 159 14 154 296 158
 ?0 152 160 5 161 -0 0 0 152 23 14 101 220 162 ?152 98 163 5 135 +0 0 152 98 23
 15 155 233 0 164 152 151 50 156 245 0 152 161 135 0 +0 0 .002032 0 0 1 1 0 0 51
 161 319 0 154 0 156 0 +-.1016 1477536363171282e-32 .0047625 0 0 1 .0021 1 0 0 5
1 135 242 0 101 156 127 0 -.1016 1477536363171282e-32 .002032 0 0 -1 .0033734375
00000005 -1 0 0 17 164 0 155 164 164 0 110 86 0 0 -17 110 0 163 110 110 0 164 86
 0 0 +15 163 223 0 110 101 107 15 107 224 0 105 101 0 81 1 162 424 128 101 165 0
 158 0 166 80 255 1 128 167 168 9000 1 1 1 1 1 1 1 1 0 FFFFTFTFFFFFFF1 81 1 165
 385 169 101 0 162 170 157 171 81 1 158 423 128 154 172 0 153 162 173 82 255 1 1
66 764739744 81 1 172 387 169 154 0 158 157 0 174 82 1 173 2071068834 80 1 169 0
 175 8001 0 0 0 0 3 5 0 0 0 FFFFTFTFFFFFFF2 81 1 157 386 169 152 0 153 165 172 1
76 83 255 3 174 .898039215686275 .917647058823529 .929411764705882 83 3 176 .898
039215686275 .917647058823529 .929411764705882 79 255 15 175 SDL/TYSA_COLOUR81 1
 170 384 169 98 0 100 129 165 177 83 3 171 .898039215686275 .917647058823529 .92
9411764705882 81 1 100 414 128 98 170 0 0 124 178 81 1 129 383 169 61 0 124 179
 170 180 83 3 177 .898039215686275 .917647058823529 .929411764705882 81 1 179 38
2 169 125 0 130 181 129 182 83 3 180 .898039215686275 .917647058823529 .92941176
4705882 81 1 130 416 128 125 179 0 124 136 183 81 1 181 381 169 18 0 146 145 179
 184 83 3 182 .898039215686275 .917647058823529 .929411764705882 81 1 146 420 12
8 18 181 0 143 149 185 81 1 145 380 169 122 0 143 186 181 187 83 3 184 .89803921
5686275 .917647058823529 .929411764705882 81 1 186 379 169 76 0 149 188 145 189
 83 3 187 .898039215686275 .917647058823529 .929411764705882 81 1 149 421 128 76
 186 0 146 153 190 81 1 188 378 169 70 0 139 138 186 191 83 3 189 .8980392156862
75 .917647058823529 .929411764705882 81 1 139 418 128 70 188 0 136 143 192 81 1
 138 377 169 16 0 136 0 188 193 83 3 191 .898039215686275 .917647058823529 .9294
11764705882 83 3 193 .898039215686275 .917647058823529 .929411764705882 82 1 192
 748880031 82 1 190 748683423 82 1 185 749731999 82 1 183 748421279 82 1 178 745
668770 79 14 168 SWEntUnchanged15 160 299 0 194 154 195 17 194 0 160 194 194 0 1
33 113 0 0 +15 195 300 0 196 154 0 17 196 0 195 196 196 0 112 108 0 0 -17 112 0
 102 112 112 0 196 108 0 0 +15 102 284 0 112 98 197 15 197 77 0 84 98 97 17 84 0
 197 84 84 0 198 82 0 0 +17 198 0 199 198 198 0 84 82 0 0 -15 199 143 0 198 18 0
 17 133 0 126 133 133 0 194 113 0 0 -16 113 293 0 ?194 108 0 200 0 0 1 31 200 32
2 0 113 0 114 0 +-.1016 1477536363171282e-32 .0047625 0 0 1 1 0 0 .0021 31 114 3
20 0 108 200 111 0 +-.1016 1477536363171282e-32 0 0 0 1 1 0 0 .0021 82 1 159 760
479904 50 142 146 0 76 132 141 0 +0 .0079375 .0047625 0 1 0 0 0 1 51 132 145 0 1
25 103 142 0 --.1016 1477536363171282e-32 .0047625 0 0 -1 .0079375 -1 0 0 50 103
 114 0 98 127 132 0 +0 0 0 0 0 1 1 0 0 15 148 141 0 117 18 199 17 117 0 148 117
 117 0 201 93 0 0 +17 201 0 134 201 201 0 117 93 0 0 -15 134 4 0 201 61 123 82 1
 147 749469856 82 1 140 749207711 15 47 129 0 48 125 0 82 1 131 738328738 17 64
 0 95 53 66 11 30 65 0 0 -17 34 0 47 32 48 11 53 78 0 64 -17 32 0 47 46 34 27 26
 33 0 31 -19 17 156 0 1 0 9 5 S0 74 4 CI16 index_map_offset0 0 1 dCCZ20 15 10 0
 0 202 162 203 204 205 206 207 172 13 2 0 0 0 0 0 0 0 0 0 0 81 5 202 50 208 1 0
 203 0 0 209 0 0 0 0 81 2 203 257 210 1 202 204 0 0 0 211 81 2 204 262 212 1 203
 205 0 0 0 213 81 1 205 329 214 1 204 206 0 0 215 81 2 206 364 216 1 205 207 0 0
 0 217 81 2 207 367 218 1 206 13 0 0 0 0 81 2 13 412 219 1 207 2 0 0 220 0 80 2
 219 221 222 8004 0 0 0 0 3 5 0 0 0 FFTFFFFFFFFFFF2 3 83 1 220 2700.001083 79 16
 222 SDL/TYSA_DENSITY80 2 218 223 224 9000 0 0 0 0 3 5 0 0 0 FFTFFFFFFFFFFF9 1 7
9 16 224 BODY_RECIPE_200180 2 216 225 226 9000 0 0 0 0 3 5 0 0 0 FFTFFFFFFFFFFF9
 1 82 1 217 1 79 24 226 BODY_IN_LIGHTWEIGHT_PERM80 1 214 227 228 9000 1 1 1 1 1
 1 1 1 0 FFTFFFFFFFFFFF1 82 1 215 5254144 79 10 228 BODY_MATCH80 2 212 229 230 9
000 0 0 0 0 3 5 0 0 0 FFTFFFFFFFFFFF9 1 82 1 213 91 79 30 230 LAST_BODY_MODIFYIN
G_FEATURE_ID80 2 210 231 232 9000 0 0 0 0 3 5 0 0 0 FFTFFFFFFFFFFT9 1 82 1 211 1
45 79 19 232 ENT_TIME_STAMP_200180 5 208 233 234 9000 0 0 0 0 3 6 0 0 0 FFTTTTTT
FTTFTT2 2 2 2 2 83 1 209 1 79 19 234 BODY_SCALING_FACTOR80 2 12 235 236 9000 0 0
 0 0 3 5 0 0 0 FFTFFFFFFFFFFF9 1 82 1 14 104 79 12 236 ATOM_ID_20011 0 
