**ABCDEFGHIJKLMNOPQRSTUVWXYZabcdefghijklmnopqrstuvwxyz**************************
**PARASOLID !"#$%&'()*+,-./:;<=>?@[\]^_`{|}~0123456789**************************
**PART1;
MC=AMD64;
MC_MODEL=Intel64 Family 6 Model 158 Stepping 9, GenuineIntel;
MC_ID=unknown;
OS=Windows_NT;
OS_RELEASE=unknown;
FRU=Parasolid Version 33.1, build 260,  4-25-2022;
APPL=SOLIDWORKS 2022-2022207;
SITE=;
USER=unknown;
FORMAT=text;
GUISE=transmit;
KEY=FILEEGR346_P004_IntermediateArm_para.x_t;
DATE=Fri Sep  2 13:08:09 2022;
**PART2;
SCH=SCH_3301260_33103;
USFLD_SIZE=0;
**PART3;
**END_OF_HEADER*****************************************************************
T51 : TRANSMIT FILE created by modeller version 330126023 SCH_3301260_33103_1300
6230 0 12 35 CCCI7 lattice222 0 CCCI4 mesh1006 0 I8 polyline1008 0 CCCCCCCDI5 ow
ner1040 0 CCCCCCI13 boundary_mesh1006 0 I17 boundary_polyline1008 0 CCCA16 index
_map_offset0 0 1 dA9 index_map82 0 A17 node_id_index_map82 0 A20 schema_embeddin
g_map82 0 A5 child12 0 A14 lowest_node_id0 0 1 dA16 mesh_offset_data206 0 Z1 120
5 2 3 0 0 0 0 0 0 0 1e3 1e-8 0 4 0 1 0 1 1 5 6 7 8 0 0 9 10 11 0 0 0 0 0 0 0 81
 255 2 2 1183 12 1 13 0 0 0 0 14 70 11 CI9 list_type0 0 1 uI10 notransmit0 0 1 l
CCCDCCDI12 finger_index0 0 1 dI12 finger_block1012 0 CZ3 0 4 T1 0 0 9 20 1 15 15
 13 255 5 99 0 1 0 16 0 0 17 0 51 255 6 94 0 18 19 0 20 -.0542644083523046 .1239
22412992474 .00635 0 0 -1 .0079375 -1 0 0 38 12 CCCCCCCCCCCA17 intersection_data
204 0 Z7 713 0 10 21 0 0 +22 23 24 25 26 27 29 255 8 702 0 11 28 0 .087195249136
9947 .185552272618083 .00095529602577245 19 8 CCCCCCCA5 owner12 0 Z9 33 0 1 17 0
 29 V0 16 255 10 711 0 ?30 0 31 7 0 0 1 18 255 11 700 0 32 0 33 8 ?1 17 255 32 0
 34 35 35 11 36 37 0 38 -18 33 576 0 39 11 40 28 ?1 17 39 0 41 42 42 33 43 44 0
 45 -18 40 246 0 46 33 47 48 ?1 29 28 578 0 33 48 8 .046504050774678 .1222548529
433684 .00539470397422757 29 48 247 0 40 49 28 .0911163651518974 .18007340064956
75 0 29 49 245 0 47 50 48 .0900480684881692 .180760162790536 .00635 18 47 243 0
 51 40 52 49 ?1 29 50 230 0 52 53 49 .0520480432004066 .1216490123429068 0 18 52
 229 0 54 47 55 50 ?1 29 53 228 0 55 56 50 .0531163398641346 .1209622502019384 .
00635 18 55 226 0 57 52 58 53 ?1 29 56 75 0 59 60 53 .0475875542040032 .12821467
63735248 0 18 59 66 0 61 62 63 56 ?1 29 60 76 0 63 64 56 .0822231458516986 .1820
92263381051 0 18 63 67 0 65 59 66 60 ?1 29 64 77 0 66 67 60 .0955768541483014 .1
73507736618949 0 18 66 68 0 68 63 69 64 ?1 29 67 78 0 69 70 64 .060941262500606
 .119630149611423 0 18 69 69 0 71 66 72 67 ?1 29 70 32 0 58 73 67 .0475875542040
032 .1282146763735248 .00635 18 58 30 0 74 55 75 70 ?1 29 73 29 0 75 76 70 .0822
231458516986 .182092263381051 .00635 18 75 27 0 77 58 78 73 ?1 29 76 26 0 78 79
 73 .0955768541483014 .173507736618949 .00635 18 78 24 0 80 75 62 76 ?1 29 79 23
 0 62 81 76 .060941262500606 .119630149611423 .00635 18 62 21 0 82 78 59 79 ?1 2
9 81 489 0 83 84 79 .0505200505929319 .1169235780022898 .00635 18 83 423 0 85 86
 87 81 ?1 29 84 490 0 87 88 81 .0494517539292038 .117610340143258 .00635 18 87 4
25 0 89 83 90 84 ?1 29 88 491 0 90 91 84 .0520480432004065 .1216490123429066 .00
635 18 90 419 0 92 87 93 88 ?1 29 91 492 0 94 95 88 .0531163398641347 .120962250
2019384 0 18 94 418 0 96 97 98 91 ?1 29 95 493 0 98 99 91 .0505200505929319 .116
9235780022898 0 18 98 420 0 100 94 86 95 ?1 29 99 494 0 86 101 95 .0494517539292
038 .117610340143258 0 18 86 422 0 102 98 83 99 ?1 29 101 496 0 103 104 99 .0937
126544231001 .1841120728492165 .00635 18 103 362 0 105 106 107 101 ?1 29 104 497
 0 107 108 101 .0911163651518974 .1800734006495675 .00635 18 107 364 0 109 103 9
7 104 ?1 29 108 499 0 97 110 104 .0926443577593719 .1847988349901845 .00635 18 9
7 360 0 111 107 94 108 ?1 29 110 500 0 72 112 108 .0937126544231001 .18411207284
92165 0 18 72 359 0 113 69 114 110 ?1 29 112 502 0 114 115 110 .0900480684881692
 .180760162790536 0 18 114 363 0 116 72 106 112 ?1 29 115 503 0 106 117 112 .092
6443577593719 .1847988349901845 0 18 106 365 0 118 114 103 115 ?1 29 117 685 0 9
3 119 115 .046504050774678 .1222548529433684 .000955296025772452 18 93 619 0 42
 90 120 117 ?1 29 119 687 0 120 121 117 .046504050774678 .1222548529433684 .0023
12919487111795 18 120 621 0 122 93 123 119 ?1 29 121 688 0 123 124 119 .04650405
0774678 .1222548529433684 .004037080512888225 18 123 618 0 125 120 126 121 ?1 29
 124 820 0 126 127 121 .0871952491369947 .185552272618083 .002312919487111795 18
 126 753 0 128 123 129 124 ?1 29 127 821 0 129 130 124 .0871952491369947 .185552
272618083 .00403708051288821 18 129 756 0 131 126 132 127 ?1 29 130 823 0 132 0
 127 .0871952491369947 .185552272618083 .00539470397422755 18 132 754 0 35 129 0
 130 ?1 17 35 0 34 32 32 132 133 134 0 36 -15 255 34 784 0 32 135 0 17 133 0 136
 137 138 11 35 134 0 0 +16 134 701 0 ?133 139 140 141 0 0 1 17 36 0 142 131 38 1
32 32 37 0 138 +15 142 760 0 36 143 0 17 131 0 142 144 36 129 138 139 0 145 -17
 38 0 142 36 144 11 137 31 0 133 -16 37 748 0 ?36 146 0 147 0 0 1 17 138 0 136 1
33 30 132 131 139 0 0 +15 136 698 0 137 148 149 17 30 0 136 138 137 129 128 10 0
 0 +16 139 705 0 ?138 31 134 21 31 31 1 16 31 709 0 ?137 10 139 21 139 139 1 30
 255 21 707 0 139 141 7 0 -.0871952491369947 .185552272618083 .00635 0 0 -1 38 1
41 703 0 134 150 21 0 +22 151 152 153 154 155 30 150 583 0 156 157 141 0 +.04650
4050774678 .1222548529433684 .00635 0 0 -1 51 22 92 0 148 158 19 159 -.0889 .177
8 .00635 0 0 -1 .0079375 -1 0 0 51 151 812 0 135 0 160 161 +.0847847465905143 .1
86076975641431 .003175 -.841178475376554 .540757591313499 0 .00238125 -.54075759
1313499 -.841178475376554 0 40 255 13 152 0 1 13 .000200513539569092 .3907692528
637715 ??.0871952491369947 .185552272618083 .00539470397422755 .0860517541557995
 .185208873184297 .00555582315438471 .0851847540193428 .1848143320104775 .005400
97646700392 .0844561833030341 .184376959739406 .00493161174522365 .0840218000989
333 .1840615550764355 .00428275433652848 .0838216377999658 .1839003396311405 .00
354867643930545 .0838238961262136 .183902218917126 .002784096523741975 .08402295
76060444 .1840624566854835 .002064615441419975 .0844087719615596 .18434467546611
2 .00146820711844665 .0849602007421093 .184690710272354 .001048302407967072 .085
662175521257 .1850470958938635 .000826209702794478 .0865259456254362 .1853741515
747055 .000819666659471399 .0871952491369947 .185552272618083 .00095529602577243
8 41 3 CI8 term_use0 0 1 cCZ1 153 L?.0871952491369947 .185552272618083 .00539470
397422755 41 1 154 L?.0871952491369947 .185552272618083 .000955296025772438 204
 2 17 INTERSECTION_DATA17 Intersection data7 uv_type0 0 1 u6 values0 1 1 fT52 15
5 4 1.35433819404445 .000955296025772449 1.94126117310868 -.0023114 1.2037777975
8763 .000794176845615291 1.551861802383515 -.001535212485790205 1.08369933884788
6 .000949023532996079 1.207676586719692 -.00101926176768284 .976590454149194 .00
141838825477635 .829634600228342 -.000642916139146273 .908947495680325 .00206724
566347152 .483859033247761 -.0004480798036286745 .876566568030122 .0028013235606
9455 .1575757843108905 -.0003668860620354515 .876936707818924 .00356590347625802
5 6.11827998312831 -.000367769479302543 .909132341739198 .004285384558580025 5.7
9807807012882 -.000448565921758261 .969364047621403 .00488179288155335 5.4840356
1736516 -.000620492705073011 1.051404038314656 .00530169759203293 5.178992524544
53 -.000897221777640502 1.1506271781749 .00552379029720552 4.87769145083473 -.00
1294989621850456 1.26705383836749 .0055303333405286 4.56471747819155 -.001844716
598962225 1.35433819404445 .00539470397422756 4.34192413407091 -.0023114 14 255
 135 781 162 ?143 163 34 5 151 -0 0 143 163 29 50 255 160 811 0 143 151 23 0 +.0
867290465184997 .184827068544869 .0043942 .841178475376554 -.540757591313499 0 .
540757591313499 .841178475376554 0 141 255 161 141 161 161 151 14 143 757 164 ?1
65 135 142 5 160 -0 0 165 135 29 51 23 810 0 165 160 166 167 +.0847847465905143
 .186076975641431 .003175 -.841178475376554 .540757591313499 0 .0012192 -.540757
591313499 -.841178475376554 0 14 165 761 168 ?0 143 169 5 23 -163 163 0 143 29 5
1 166 677 0 170 23 171 172 +.0450259534651876 .124229964113145 .003175 -.8411784
75376554 .540757591313499 0 .00238125 -.540757591313499 -.841178475376554 0 141
 167 7 173 173 23 141 173 174 167 167 23 38 174 815 0 175 176 177 0 +22 23 178 1
79 179 180 16 175 743 0 ?181 182 146 174 0 0 1 31 255 176 817 0 146 147 174 0 +.
0867290465184997 .184827068544869 .003175 -.841178475376554 .540757591313499 0 -
.540757591313499 -.841178475376554 0 .0012192 31 177 814 0 182 174 183 0 +.09092
74524069515 .182128093330864 .003175 -.841178475376553 .5407575913135 0 -.540757
5913135 -.841178475376553 0 .0012192 40 21 178 0 1 21 .0001351666652644268 .3979
250557925665 ??.0967876100457371 .176911453987468 .003175 .0967945299031181 .176
97519465401 .00354456013490058 .0968113658112283 .1771564184193685 .003872035428
56526 .0968293042298017 .1774393884621235 .00413421446921706 .0968374743268615 .
1778201881255665 .00431667066856265 .0968220416113152 .178295139332502 .00439364
8876688305 .0967674968969186 .1788518549457865 .004325967542612375 .096667456757
3097 .1794341731160815 .00406066378324607 .0965914152410744 .1797611317751155 .0
03756125389848505 .096548525214563 .179922255472886 .0034653002015967 .096534260
6357663 .179973009616911 .00318947411640815 .0965460003374253 .179931334110385 .
00291159442709967 .0965786803220032 .1798104165644165 .00266274416376359 .096651
1361520288 .1795099107002155 .00234468891015853 .0967498904414187 .1789760639046
085 .00206174710066915 .0968173461998396 .178365274625192 .00195596083167066 .09
68370510217619 .1777155764964735 .00207040186380649 .0968232989905985 .177325406
115104 .0023026083784329 .0968010077019824 .177039747710812 .00265774715324992 .
0967884778883071 .176919191930277 .003044741987636675 .0967876100457374 .1769114
53987468 .003175 41 1 179 H?.0967876100457374 .176911453987468 .003175 204 84 18
0 4 3.253770582742625 .003175 0 -.0150528757941459 3.24569305711209 .00280543986
509942 .3079617482534355 -.01502422837991945 3.22276290142047 .00247796457143474
5 .608595147457225 -.01494039225659116 3.18703967144131 .00221578553078294 .9055
37868215969 -.0148024634694432 3.13904926494951 .00203332933143735 1.21225496660
8306 -.01460341567045532 3.079172368450745 .001956351123311695 1.54072737612023
 -.0143336005316672 3.008684546541195 .002024032457387625 1.906935845555545 -.01
398667049788496 2.93422968721603 .00228933621675393 2.32847936499742 -.013587625
91462554 2.891935538055265 .002593874610151495 2.64475850949575 -.01334685605101
5 2.870929227980255 .0028846997984033 2.901176202323795 -.01322364902119558 2.86
4287250799685 .00316052588359185 3.12972056006398 -.01318420427587914 2.86974205
3340245 .00343840557290033 3.35935758086254 -.0132166158067478 2.885522484839515
 .00368725583623641 3.57521136002777 -.0133094925872558 2.924468881805195 .00400
531108984147 3.890760214091265 -.01353294169918978 2.9928795821978 .004288252899
33085 4.29241887891124 -.0139046933890986 3.07031661781619 .004394039168329335 4
.69614591166213 -.01429172466065988 3.152228886074205 .00427959813619351 5.14944
332211444 -.01465962912788894 3.20141969234701 .0040473916215671 5.4857823322465
5 -.01485904881091264 3.23751952113831 .00369225284675008 5.84504524897818 -.014
9947698093837 3.25278961176671 .003305258012363325 6.17614208198561 -.0150494214
533207 3.253770582742655 .003175 6.28318530717957 -.01505287579414625 16 182 746
 0 ?184 185 175 177 0 0 1 31 183 813 0 185 177 186 0 +.0919957490706798 .1814413
31189896 .003175 .841178475376553 -.540757591313499 0 .540757591313499 .84117847
5376553 0 .0012192 16 185 744 0 ?187 44 182 183 0 0 1 31 186 683 0 44 183 188 0
 +.046970253393173 .1229800570165828 .003175 -.841178475376554 .540757591313499
 0 -.540757591313499 -.841178475376554 0 .00238125 16 44 608 0 ?43 189 185 186 0
 0 1 31 188 682 0 189 186 190 0 +.046970253393173 .1229800570165828 .003175 -.84
1178475376554 .540757591313499 0 -.540757591313499 -.841178475376554 0 .0012192
 16 189 606 0 ?191 192 44 188 0 0 1 38 190 680 0 193 188 194 0 +6 195 196 197 19
8 199 16 193 612 0 ?200 201 192 190 0 0 1 31 194 679 0 201 190 202 0 +.051168659
2816241 .1202810818025784 .003175 -.841178475376553 .540757591313499 0 -.5407575
91313499 -.841178475376553 0 .0012192 51 195 675 0 203 171 204 205 +.04502595346
51876 .124229964113145 .003175 -.841178475376554 .540757591313499 0 .0012192 -.5
40757591313499 -.841178475376554 0 40 7 196 0 1 7 723648451639455e-19 .335572015
7405005 ??.046504050774678 .1222548529433684 .00403708051288822 .046577845373228
 .1219423483928488 .003730891897721265 .0466180785207423 .1217922612708914 .0034
42068493231935 .0466301721033354 .1217493177012074 .003166880054497325 .04661662
76266577 .1217974762351976 .00289236467792385 .0465730627327327 .121961008187164
4 .00259422889808959 .046504050774678 .1222548529433684 .0023129194871118 41 1 1
97 L?.046504050774678 .1222548529433684 .00403708051288822 41 1 198 L?.046504050
774678 .1222548529433684 .0023129194871118 204 28 199 4 6.0715220728024 .0023129
19487111785 .785370238249349 -.0023114 6.03106586341538 .002619108102278735 .473
437173313726 -.00254246363591278 6.01148934507706 .002907931506768065 .220843015
2024195 -.00265746764415533 6.00586868202019 .003183119945502675 6.2765251976549
1 -.00269086256682761 6.01217130223756 .00345763532207615 6.04923675377213 -.002
65342715174437 6.03349269344077 .00375577110191041 5.78668168954092 -.0025283501
56244165 6.0715220728024 .0040370805128882 5.49781506893024 -.0023114 14 203 630
 206 ?207 208 209 5 195 -210 210 207 208 29 50 171 676 0 207 166 195 0 +.0469702
53393173 .1229800570165828 .0043942 .841178475376554 -.540757591313499 0 .540757
591313499 .841178475376554 0 50 204 461 0 208 195 211 0 +.0911163651518974 .1800
734006495675 0 .841178475376553 -.540757591313499 0 .540757591313499 .8411784753
76553 0 141 205 212 213 213 195 38 212 569 0 192 214 157 0 +6 195 215 216 216 21
7 141 213 190 205 205 195 16 192 610 0 ?218 193 189 212 0 0 1 30 214 98 0 219 22
0 212 0 +.060941262500606 .119630149611423 .00635 0 0 -1 38 157 579 0 221 212 15
0 0 +6 166 222 223 224 225 40 21 215 0 1 21 .0001128879553982698 .38079089154357
25 ??.055456848613216 .1160749935138072 .003175 .0555175461407468 .1160844571407
752 .00348770209276494 .0556765595922509 .1161115401138822 .00376006671841452 .0
560303447885681 .116183848865126 .004079502467484275 .0566000116300921 .11633631
62636686 .004333071663966055 .0572090630479556 .116551326575033 .004387355769205
395 .0576789581241226 .1167568874635416 .004260031623859755 .0580160116657354 .1
16927459180714 .0040169877228291 .0582521259983446 .1170593222728736 .0036558679
39358655 .0583439303165511 .1171134918743208 .00326896243566955 .058316614728436
6 .117097200194675 .002897068701501265 .0581867717837372 .117021762924418 .00256
121130993564 .057962075781621 .116898798407933 .00228054093852528 .0576446880168
509 .116740657243393 .0020740695426377 .0572325157481081 .116560738948007 .00196
5013530128335 .0567263303079412 .1163763645872252 .00198820191140847 .0561564057
080908 .1162137002428834 .002194216363912845 .0557509689000349 .116125359447196
 .002503761331252115 .0555456280278846 .1160889985139142 .00279788672992504 .055
4628813099397 .1160759125738274 .00307588672835141 .0554568486132164 .1160749935
13807 .00317500000000005 41 1 216 H?.0554568486132164 .116074993513807 .00317500
000000005 204 84 217 4 4.56158939220163 .003175 0 -.01318410673596146 4.55385005
243021 .00286229790723506 .259380035762387 -.01323004666150466 4.53352802300624
 .00258993328158548 .5005151455873 -.0133491600309022 4.4880313059782 .002270497
532515725 .83587266866048 -.0136076550167977 4.41371910205661 .00201692833603394
5 1.25279401377681 -.0140043985988336 4.3323247478436 .001962644230794605 1.6768
05444519855 -.01440045108385702 4.26769737583618 .002089968376140245 2.044348886
91736 -.01468455809667586 4.220101542102055 .0023330122771709 2.37926502268956 -
.01487584233000576 4.18602869894081 .002694132060641345 2.736164022614505 -.0150
0315065622505 4.172599374921145 .00308103756433045 3.064447228702465 -.015051081
84944605 4.17660631100315 .003452931298498735 3.371576733907745 -.01503691441412
55 4.195525204935535 .00378878869006436 3.66916308857563 -.01496848660042446 4.2
2779642455443 .00406945906147472 3.965262052085855 -.01484597115569242 4.2724745
93405435 .0042759304573623 4.26828067048388 -.01466450743484414 4.32914100228512
5 .004384986469871665 4.58937217951798 -.0144150891782768 4.397024080601915 .004
36179808859153 4.94345143780651 -.01408899871669572 4.471710225933235 .004155783
636087155 5.34843880528928 -.01369755238975282 4.52399328507343 .003846238668747
885 5.70015440659354 -.0134042786295816 4.55026621049562 .00355211327007496 5.96
871577019191 -.01325121275851296 4.56082059811245 .00327411327164859 6.201801805
44501 -.01318868432191102 4.56158939220159 .00317499999999995 320138436757525e-2
8 -.0131841067359619 16 221 577 0 ?226 156 219 157 0 0 1 40 13 222 0 1 13 .00020
05135395691 .39076925286378 ??.046504050774678 .1222548529433684 .00095529602577
2453 .0463417212962545 .123437710958338 .000794176845615302 .0463407081558572 .1
24390260667278 .000949023532996099 .0464361311881119 .125234656449527 .001418388
254776384 .0465427301288953 .1257607795674874 .00206724566347153 .04660629557233
58 .1260098072770494 .00280132356069459 .0466055234692678 .126006972561877 .0035
65903476258055 .0465423904459985 .1257593522143012 .00428538455858005 .046445818
3094135 .125291192007218 .00488179288155337 .0463599466075731 .12464587050752 .0
0530169759203294 .0463271593259182 .1238592929233364 .00552379029720553 .0463882
262226994 .1229376991704484 .00553033334052861 .046504050774678 .122254852943368
4 .00539470397422758 41 1 223 L?.046504050774678 .1222548529433684 .000955296025
772453 41 1 224 L?.046504050774678 .1222548529433684 .00539470397422758 204 52 2
25 4 6.0715220728024 .00539470397422755 5.08285382669846 -.0023114 6.22208246925
922 .0055558231543847 4.69345445597329 -.001535212485790175 .0589756208193742 .0
054009764670039 4.349269240309475 -.00101926176768281 .166084505518066 .00493161
174522362 3.97122725381812 -.000642916139146266 .233727463986929 .00428275433652
847 3.62545168683756 -.000448079803628663 .266108391637135 .00354867643930541 3.
29916843790067 -.000366886062035447 .2657382518483325 .002784096523741945 2.9766
87329538505 -.0003677694793025475 .233542617928057 .00206461544141995 2.65648541
653902 -.000448565921758261 .173310912045853 .00146820711844663 2.34244296377536
 -.000620492705073009 .091270921352601 .001048302407967058 2.03739987095474 -.00
0897221777640496 6.27523308867194 .000826209702794466 1.736098797244925 -.001294
98962185046 6.15880642847935 .000819666659471392 1.423124824601742 -.00184471659
8962225 6.07152207280239 .000955296025772423 1.20033148048112 -.0023114 17 226 0
 227 228 229 33 42 221 0 0 +16 156 581 0 ?229 140 221 150 140 140 1 16 219 82 0
 ?230 221 231 214 0 0 1 17 230 0 232 68 233 69 234 219 0 0 +16 231 81 0 ?235 219
 236 220 0 0 1 17 235 0 237 238 239 66 240 231 0 241 +16 236 80 0 ?242 231 243 2
44 0 0 1 30 220 97 0 231 244 214 0 +.0955768541483014 .173507736618949 .00635 0
 0 -1 30 244 96 0 236 245 220 0 +.0822231458516986 .182092263381051 .00635 0 0 -
1 30 245 95 0 243 246 244 0 +.0475875542040032 .1282146763735248 .00635 0 0 -1 1
6 243 79 0 ?247 236 248 245 0 0 1 30 246 71 0 249 250 245 0 +.0475875542040032 .
1282146763735248 0 -.540757591313499 -.841178475376553 0 16 249 50 0 ?61 251 252
 246 0 0 1 31 250 72 0 252 253 246 0 +.0889 .1778 0 0 0 1 1 0 0 .0079375 16 252
 54 0 ?238 249 254 250 254 254 1 30 253 73 0 255 256 250 0 +.060941262500606 .11
9630149611423 0 .540757591313498 .841178475376554 0 16 255 58 0 ?68 254 257 253
 0 0 1 31 256 74 0 257 258 253 0 +.0542644083523046 .123922412992474 0 0 0 1 1 0
 0 .0079375 16 257 62 0 ?259 255 260 256 260 260 1 30 258 19 0 248 261 256 0 +.0
475875542040032 .1282146763735248 .00635 -.540757591313499 -.841178475376553 0 1
6 248 17 0 ?74 243 262 258 0 0 1 31 261 15 0 262 263 258 0 +.0889 .1778 .00635 0
 0 1 1 0 0 .0079375 16 262 13 0 ?264 248 265 261 265 265 1 30 263 11 0 266 267 2
61 0 +.060941262500606 .119630149611423 .00635 .540757591313498 .841178475376554
 0 16 266 9 0 ?80 265 268 263 0 0 1 31 267 7 0 268 269 263 0 +.0542644083523046
 .123922412992474 .00635 0 0 1 1 0 0 .0079375 16 268 5 0 ?270 266 251 267 251 25
1 1 31 269 147 0 271 272 267 0 +.0889 .1778 0 0 0 1 1 0 0 .003175 16 271 249 0 ?
273 274 275 269 0 0 1 31 272 148 0 274 276 269 0 +.0889 .1778 .00635 0 0 1 1 0 0
 .003175 16 274 244 0 ?277 260 271 272 0 0 1 31 276 185 0 278 279 272 0 +.054264
4083523046 .123922412992474 0 0 0 1 1 0 0 .003175 16 278 232 0 ?280 275 281 276
 0 0 1 31 279 186 0 275 282 276 0 +.0542644083523046 .123922412992474 .00635 0 0
 1 1 0 0 .003175 16 275 227 0 ?283 271 278 279 0 0 1 30 282 464 0 284 285 279 0
 +.0520480432004065 .1216490123429066 0 0 0 1 16 284 393 0 ?92 286 287 282 0 0 1
 30 285 465 0 286 288 282 0 +.0494517539292038 .117610340143258 0 0 0 1 16 286 4
05 0 ?289 290 284 285 0 0 1 30 288 466 0 290 291 285 0 +.0505200505929319 .11692
35780022898 0 0 0 1 16 290 401 0 ?85 292 286 288 0 0 1 30 291 467 0 292 293 288
 0 +.0531163398641347 .1209622502019384 0 0 0 1 16 292 397 0 ?294 295 290 291 0
 0 1 30 293 468 0 296 297 291 0 +.0531163398641347 .1209622502019384 .00635 .540
757591313502 .841178475376552 0 16 296 415 0 ?57 298 299 293 0 0 1 30 297 470 0
 299 300 293 0 +.0520480432004065 .1216490123429066 .00635 -.540757591313499 -.8
41178475376553 0 16 299 409 0 ?89 296 301 297 0 0 1 30 300 472 0 287 302 297 0 +
.0531163398641347 .1209622502019384 0 .540757591313502 .841178475376552 0 16 287
 394 0 ?303 284 298 300 0 0 1 30 302 474 0 298 304 300 0 +.0520480432004065 .121
6490123429066 0 -.540757591313499 -.841178475376553 0 16 298 402 0 ?305 287 296
 302 0 0 1 30 304 476 0 306 307 302 0 +.0926443577593719 .1847988349901845 0 0 0
 1 16 306 334 0 ?111 308 309 304 0 0 1 30 307 477 0 308 310 304 0 +.090048068488
1692 .180760162790536 0 0 0 1 16 308 346 0 ?311 312 306 307 0 0 1 30 310 478 0 3
12 313 307 0 +.0911163651518974 .1800734006495675 0 0 0 1 16 312 342 0 ?109 281
 308 310 0 0 1 30 313 479 0 281 314 310 0 +.0937126544231001 .1841120728492165 0
 0 0 1 16 281 338 0 ?315 278 312 313 0 0 1 30 314 480 0 316 317 313 0 +.09111636
51518974 .1800734006495675 .00635 .540757591313499 .841178475376553 0 16 316 356
 0 ?105 318 295 314 0 0 1 30 317 482 0 295 319 314 0 +.0926443577593719 .1847988
349901845 .00635 -.5407575913135 -.841178475376553 0 16 295 350 0 ?51 316 292 31
7 0 0 1 30 319 484 0 309 320 317 0 +.0911163651518974 .1800734006495675 0 .54075
7591313499 .841178475376553 0 16 309 335 0 ?321 306 318 319 0 0 1 30 320 486 0 3
18 202 319 0 +.0926443577593719 .1847988349901845 0 -.5407575913135 -.8411784753
76553 0 16 318 343 0 ?322 309 316 320 0 0 1 31 202 678 0 301 194 320 0 +.0522369
559453523 .1195943196616104 .003175 .841178475376552 -.540757591313502 0 .540757
591313502 .841178475376552 0 .0012192 16 301 611 0 ?323 299 201 202 0 0 1 17 323
 0 324 323 323 0 325 301 0 0 +16 201 613 0 ?326 301 193 194 0 0 1 17 326 0 327 3
26 326 0 328 201 0 0 +15 327 593 0 326 329 330 17 328 0 331 328 328 0 326 201 0
 0 -15 331 639 0 328 210 0 14 210 635 332 ?163 170 333 5 195 -203 203 163 170 29
 81 1 332 1188 334 210 335 0 206 336 337 14 163 766 336 ?135 210 338 5 23 -165 1
65 135 210 29 14 170 626 339 ?210 207 41 5 166 -0 0 210 207 29 15 333 638 0 191
 210 331 13 29 34 0 0 0 0 0 0 9 16 14 16 295 340 ?341 0 342 5 6 -18 18 341 0 29
 81 1 340 1191 334 16 343 0 339 344 345 14 341 273 344 ?346 16 347 5 22 -148 148
 346 16 29 15 342 567 0 218 16 348 14 18 90 349 ?350 351 227 5 6 -16 16 350 351
 29 81 1 349 1193 334 18 352 0 344 353 354 14 350 88 353 ?148 18 232 5 19 -0 0 1
48 18 29 14 351 154 355 ?18 346 356 5 357 -0 0 18 346 29 15 227 574 0 228 18 358
 17 228 0 227 200 226 123 45 140 0 0 +15 358 89 0 259 18 0 17 259 0 358 289 247
 86 359 257 0 0 +17 289 0 358 360 259 87 102 286 0 270 +17 247 0 358 259 360 59
 361 243 0 359 +17 359 0 356 362 305 59 259 257 0 0 -15 356 152 0 273 351 0 17 3
62 0 356 363 359 63 61 249 0 0 -17 305 0 356 359 280 86 54 298 0 259 +17 280 0 3
56 305 303 52 364 278 0 0 +17 54 0 330 92 102 52 305 298 0 365 -15 330 441 0 89
 329 0 17 92 0 330 89 54 90 365 284 0 366 +17 102 0 330 54 89 86 289 286 0 305 -
17 365 0 367 364 283 52 92 284 0 280 -15 367 237 0 294 368 0 17 364 0 367 294 36
5 94 280 278 0 0 -17 283 0 367 365 294 90 369 275 0 0 +17 294 0 367 283 364 55 9
6 292 0 369 +17 369 0 370 371 366 55 283 275 0 0 -15 370 326 0 372 346 0 17 371
 0 370 82 369 83 57 296 0 373 -17 366 0 370 369 270 90 89 299 0 283 -17 270 0 37
0 366 74 87 360 268 0 0 +17 89 0 330 102 92 87 366 299 0 289 +17 74 0 370 270 77
 58 374 248 0 361 +17 360 0 358 247 289 58 270 268 0 0 -17 77 0 370 74 375 75 37
6 265 0 377 +17 374 0 378 242 361 75 74 248 0 0 -17 361 0 378 374 61 58 247 243
 0 360 -15 378 83 0 61 379 0 17 61 0 378 361 242 59 362 249 0 247 +17 242 0 378
 61 374 63 377 236 0 362 +17 377 0 149 376 65 75 242 236 0 374 -15 149 85 0 376
 148 0 17 376 0 149 380 377 97 77 265 0 0 -17 65 0 149 377 380 63 363 254 0 242
 +17 380 0 149 65 376 106 111 306 0 363 -17 363 0 356 322 362 106 65 254 0 0 -16
 254 262 0 ?65 252 255 250 252 252 1 17 322 0 356 273 363 114 118 318 0 381 +17
 273 0 356 321 322 40 381 271 0 0 +17 118 0 382 111 116 106 322 318 0 380 -17 38
1 0 383 311 384 114 273 271 0 0 -15 383 254 0 384 385 0 17 311 0 383 277 381 47
 116 308 0 386 +17 384 0 383 381 277 40 109 312 0 273 -17 277 0 383 384 311 107
 386 274 0 0 +17 109 0 387 105 46 107 384 312 0 372 +15 387 374 0 105 208 0 17 1
05 0 387 113 109 103 372 316 0 315 +17 46 0 387 109 113 40 321 309 0 384 -17 372
 0 370 386 264 107 105 316 0 277 -17 386 0 370 375 372 47 277 274 0 0 -17 264 0
 370 372 80 103 239 262 0 0 +17 80 0 370 264 82 78 233 266 0 240 +17 239 0 237 2
35 315 78 264 262 0 0 -15 237 271 0 238 341 0 17 315 0 237 239 238 103 113 281 0
 264 +17 238 0 237 315 235 72 241 252 0 0 +17 113 0 387 46 105 72 315 281 0 321
 -17 321 0 356 241 273 72 46 309 0 238 +17 241 0 356 388 321 66 238 252 0 0 -17
 388 0 356 389 241 69 68 255 0 230 -17 389 0 356 303 388 98 71 260 0 0 -17 68 0
 232 240 230 66 388 255 0 235 +15 232 87 0 68 350 0 17 240 0 232 233 68 78 235 2
31 0 239 -17 233 0 232 230 240 62 80 266 0 234 -17 234 0 348 373 71 62 230 219 0
 0 -15 348 293 0 373 16 0 17 373 0 348 390 234 83 82 251 0 0 -17 71 0 348 234 39
0 69 389 260 0 388 +17 390 0 348 71 373 98 85 290 0 389 -16 260 284 0 ?71 257 27
4 256 257 257 1 17 85 0 391 57 100 83 390 290 0 371 +15 391 433 0 57 392 0 17 57
 0 391 96 85 55 371 296 0 294 +17 100 0 391 85 96 98 303 287 0 390 -17 96 0 391
 100 57 94 294 292 0 303 -17 303 0 356 280 389 94 100 287 0 364 +14 392 430 393
 ?394 329 324 5 395 -0 0 394 329 29 81 1 393 1196 334 392 396 0 355 397 398 14 3
94 379 397 ?208 392 399 5 211 -0 0 208 392 29 14 329 438 400 ?392 368 327 5 401
 -0 0 392 368 29 15 324 599 0 323 392 391 50 395 455 0 392 211 401 0 +.053116339
8641347 .1209622502019384 0 .841178475376552 -.540757591313502 0 .54075759131350
2 .841178475376552 0 50 211 459 0 394 204 395 0 +.0926443577593719 .184798834990
1845 0 -.841178475376553 .5407575913135 0 -.5407575913135 -.841178475376553 0 50
 401 453 0 329 395 402 0 +.0520480432004065 .1216490123429066 0 -.84117847537655
3 .540757591313499 0 -.540757591313499 -.841178475376553 0 51 402 182 0 368 401
 403 0 -.0542644083523046 .123922412992474 .00635 0 0 -1 .003175 -1 0 0 14 368 1
69 404 ?329 385 367 5 402 +0 0 329 385 29 51 403 144 0 385 402 405 0 -.0889 .177
8 .00635 0 0 -1 .003175 -1 0 0 14 385 131 406 ?368 379 383 5 403 +0 0 368 379 29
 50 405 3 0 346 403 357 0 +.0542644083523046 .123922412992474 .00635 0 0 1 1 0 0
 14 346 160 407 ?351 341 370 5 405 +0 0 351 341 29 50 357 70 0 351 405 158 0 +.0
542644083523046 .123922412992474 0 0 0 1 1 0 0 50 158 91 0 379 357 22 0 +.047587
5542040032 .1282146763735248 .00635 .841178475376554 -.540757591313499 0 .540757
591313499 .841178475376554 0 14 379 84 408 ?385 148 378 5 158 -0 0 385 148 29 81
 1 408 1202 334 379 409 0 407 410 411 14 148 86 410 ?379 350 136 5 22 -341 341 3
79 350 29 81 1 410 1203 334 148 412 0 408 413 414 80 255 1 334 415 416 9000 1 1
 1 1 1 1 1 1 0 FFFFTFTFFFFFFF1 81 1 412 1122 417 148 0 410 418 409 419 81 1 413
 1204 334 208 420 0 410 421 422 82 255 1 414 -130744162 14 208 371 413 ?203 394
 423 5 204 -0 0 203 394 29 81 1 420 1129 417 208 0 413 424 425 426 81 1 421 1205
 334 207 427 0 413 0 428 82 1 422 -83427170 14 207 622 421 ?170 203 429 5 171 -0
 0 170 203 29 81 1 427 1131 417 207 0 421 425 430 431 82 1 428 -1703778 80 1 417
 0 432 8001 0 0 0 0 3 5 0 0 0 FFFFTFTFFFFFFF2 81 1 425 1130 417 203 0 206 420 42
7 433 81 1 430 1132 417 170 0 339 427 335 434 83 255 3 431 .898039215686275 .917
647058823529 .929411764705882 81 1 339 1190 334 170 430 0 336 340 435 81 1 335 1
133 417 210 0 332 430 436 437 83 3 434 .898039215686275 .917647058823529 .929411
764705882 81 1 436 1134 417 163 0 336 335 438 439 83 3 437 .898039215686275 .917
647058823529 .929411764705882 81 1 336 1189 334 163 436 0 332 339 440 81 1 438 1
135 417 135 0 162 436 441 442 83 3 439 .898039215686275 .917647058823529 .929411
764705882 81 1 162 1184 334 135 438 0 0 164 443 81 1 441 1136 417 143 0 164 438
 444 445 83 3 442 .898039215686275 .917647058823529 .929411764705882 81 1 164 11
85 334 143 441 0 162 168 446 81 1 444 1137 417 165 0 168 441 0 447 83 3 445 .898
039215686275 .917647058823529 .929411764705882 81 1 168 1186 334 165 444 0 164 2
06 448 83 3 447 .898039215686275 .917647058823529 .929411764705882 81 1 206 1187
 334 203 425 0 168 332 449 82 1 448 6226078 82 1 449 -5046114 82 1 446 8061086 8
2 1 443 3539102 82 1 440 5636254 82 1 435 -2359138 83 3 433 .898039215686275 .91
7647058823529 .929411764705882 79 255 15 432 SDL/TYSA_COLOUR15 429 625 0 43 207
 0 17 43 0 429 122 45 93 39 44 0 229 +17 122 0 429 450 43 120 229 156 0 191 -17
 45 0 429 43 450 33 228 140 0 226 -17 229 0 227 226 200 93 122 156 0 0 +17 200 0
 227 229 228 120 125 193 0 0 +17 125 0 333 191 191 123 200 193 0 450 -17 191 0 3
33 125 125 120 450 189 0 200 +17 450 0 429 45 122 123 191 189 0 228 -16 140 585
 0 ?228 134 156 150 156 156 1 81 1 424 1128 417 394 0 397 396 420 451 83 3 426 .
898039215686275 .917647058823529 .929411764705882 81 1 397 1197 334 394 424 0 39
3 400 452 81 1 396 1127 417 392 0 393 453 424 454 83 3 451 .898039215686275 .917
647058823529 .929411764705882 81 1 453 1126 417 329 0 400 455 396 456 83 3 454 .
898039215686275 .917647058823529 .929411764705882 81 1 400 1198 334 329 453 0 39
7 404 457 81 1 455 1125 417 368 0 404 458 453 459 83 3 456 .898039215686275 .917
647058823529 .929411764705882 81 1 404 1199 334 368 455 0 400 406 460 81 1 458 1
124 417 385 0 406 409 455 461 83 3 459 .898039215686275 .917647058823529 .929411
764705882 81 1 406 1200 334 385 458 0 404 407 462 81 1 409 1123 417 379 0 408 41
2 458 463 83 3 461 .898039215686275 .917647058823529 .929411764705882 83 3 463 .
898039215686275 .917647058823529 .929411764705882 81 1 407 1201 334 346 464 0 40
6 408 465 82 1 462 -125370211 81 1 464 1118 417 346 0 407 466 467 468 82 1 465 -
117768035 81 1 466 1117 417 341 0 344 343 464 469 81 1 467 1119 417 351 0 355 46
4 352 470 83 3 468 .898039215686275 .917647058823529 .929411764705882 81 1 355 1
195 334 351 467 0 353 393 471 81 1 352 1120 417 18 0 349 467 418 472 83 3 470 .8
98039215686275 .917647058823529 .929411764705882 81 1 418 1121 417 350 0 353 352
 412 473 83 3 472 .898039215686275 .917647058823529 .929411764705882 81 1 353 11
94 334 350 418 0 349 355 474 83 3 473 .898039215686275 .917647058823529 .9294117
64705882 82 1 474 -130482022 82 1 471 -118292323 81 1 344 1192 334 341 466 0 340
 349 475 81 1 343 1116 417 16 0 340 0 466 476 83 3 469 .898039215686275 .9176470
58823529 .929411764705882 83 3 476 .898039215686275 .917647058823529 .9294117647
05882 82 1 475 -64028514 82 1 460 -121306979 82 1 457 -71958370 82 1 452 -831650
26 15 423 733 0 187 208 387 17 187 0 423 187 187 0 477 185 0 0 +17 477 0 478 477
 477 0 187 185 0 0 -15 478 765 0 477 165 0 83 3 419 .898039215686275 .9176470588
23529 .929411764705882 79 14 416 SWEntUnchanged82 1 411 -131006310 15 399 726 0
 184 394 382 17 184 0 399 184 184 0 479 182 0 0 +15 382 382 0 51 394 0 17 51 0 3
82 116 111 47 375 295 0 311 +17 116 0 382 118 51 114 311 308 0 322 -17 111 0 382
 51 118 97 380 306 0 375 +17 375 0 370 77 386 97 51 295 0 376 -17 479 0 480 479
 479 0 184 182 0 0 -15 480 770 0 479 163 0 82 1 398 -72220514 17 82 0 370 80 371
 62 373 251 0 233 +16 251 290 0 ?82 268 249 267 268 268 1 16 265 268 0 ?77 262 2
66 261 262 262 1 50 19 93 0 350 22 6 0 +.060941262500606 .119630149611423 .00635
 -.841178475376554 .540757591313498 0 -.540757591313498 -.841178475376554 0 82 1
 354 -130219874 17 218 0 342 218 218 0 481 192 0 0 +17 481 0 209 481 481 0 218 1
92 0 0 -15 209 633 0 481 203 482 15 482 634 0 325 203 0 17 325 0 482 325 325 0 3
23 301 0 0 -15 347 719 0 181 341 237 17 181 0 347 181 181 0 483 175 0 0 +17 483
 0 169 483 483 0 181 175 0 0 -15 169 764 0 483 165 478 82 1 345 -61800290 15 41
 629 0 39 170 0 15 338 769 0 145 163 480 17 145 0 338 128 128 129 144 146 0 30 +
17 128 0 338 145 145 126 30 10 0 144 -17 144 0 142 38 131 126 145 146 0 137 -16
 146 741 0 ?145 175 37 176 0 0 1 17 137 0 136 30 133 126 38 31 0 0 +82 1 337 -56
35938 17 42 0 41 39 39 93 226 221 0 43 -31 147 818 0 37 0 176 0 +.08672904651849
97 .184827068544869 .003175 -.841178475376554 .540757591313499 0 -.5407575913134
99 -.841178475376554 0 .00238125 141 172 157 172 172 166 141 159 141 484 485 22
 141 484 174 485 159 22 141 485 7 159 484 22 19 17 100 0 1 0 9 5 S0 40 7 24 0 1
 7 723648451639535e-19 .335572015740508 ??.0871952491369947 .185552272618083 .00
23129194871118 .0875101860523889 .18561487833821 .00261910810227878 .08766343069
75058 .18564058687919 .00290793150676809 .0877075192951903 .1856474133329815 .00
318311994550271 .0876580840410983 .185639741768772 .00345763532207618 .087491224
7822643 .185611482486436 .00375577110191044 .0871952491369947 .185552272618083 .
004037080512888205 41 1 25 L?.0871952491369947 .185552272618083 .002312919487111
8 41 1 26 L?.0871952491369947 .185552272618083 .004037080512888205 204 28 27 4 1
.354338194044448 .0040370805128882 3.926962891839135 -.0023114 1.39479440343147
 .00373089189772122 3.61502982690349 -.002542463635912815 1.414370921769788 .003
44206849323191 3.3624356687922 -.002657467644155355 1.419991584826656 .003166880
05449729 3.134932544065105 -.00269086256682763 1.413688964609284 .00289236467792
382 2.90764410018232 -.002653427151744385 1.39236757340607 .00259422889808956 2.
645089035951105 -.00252835015624416 1.35433819404445 .002312919487111795 2.35622
2415340455 -.0023114 141 20 212 486 487 6 141 486 157 487 20 6 141 487 190 20 48
6 6 74 4 CI16 index_map_offset0 0 1 dCCZ20 15 9 0 0 488 489 421 490 491 492 13 4
44 2 0 0 0 0 0 0 0 0 0 0 0 81 2 488 111 493 1 0 489 0 0 0 494 81 2 489 208 495 1
 488 490 0 0 0 496 81 1 490 856 497 1 489 491 0 0 498 81 2 491 1073 499 1 490 49
2 0 0 500 0 81 2 492 1096 501 1 491 13 0 0 0 502 81 2 13 1111 503 1 492 2 0 0 0
 0 80 2 503 504 505 9000 0 0 0 0 3 5 0 0 0 FFTFFFFFFFFFFF9 1 79 16 505 BODY_RECI
PE_200180 2 501 506 507 9000 0 0 0 0 3 5 0 0 0 FFTFFFFFFFFFFF9 1 82 1 502 1 79 2
4 507 BODY_IN_LIGHTWEIGHT_PERM80 2 499 508 509 8004 0 0 0 0 3 5 0 0 0 FFTFFFFFFF
FFFF2 3 83 1 500 1 79 16 509 SDL/TYSA_DENSITY80 1 497 510 511 9000 1 1 1 1 1 1 1
 1 0 FFTFFFFFFFFFFF1 82 1 498 7796683 79 10 511 BODY_MATCH80 2 495 512 513 9000
 0 0 0 0 3 5 0 0 0 FFTFFFFFFFFFFF9 1 82 1 496 93 79 30 513 LAST_BODY_MODIFYING_F
EATURE_ID80 2 493 514 515 9000 0 0 0 0 3 5 0 0 0 FFTFFFFFFFFFFT9 1 82 1 494 138
 79 19 515 ENT_TIME_STAMP_200180 2 12 516 517 9000 0 0 0 0 3 5 0 0 0 FFTFFFFFFFF
FFF9 1 82 1 14 103 79 12 517 ATOM_ID_20011 0 
