**ABCDEFGHIJKLMNOPQRSTUVWXYZabcdefghijklmnopqrstuvwxyz**************************
**PARASOLID !"#$%&'()*+,-./:;<=>?@[\]^_`{|}~0123456789**************************
**PART1;
MC=AMD64;
MC_MODEL=Intel64 Family 6 Model 158 Stepping 9, GenuineIntel;
MC_ID=unknown;
OS=Windows_NT;
OS_RELEASE=unknown;
FRU=Parasolid Version 33.1, build 260,  4-25-2022;
APPL=SOLIDWORKS 2022-2022207;
SITE=;
USER=unknown;
FORMAT=text;
GUISE=transmit;
KEY=FILEEGR346_P002_PulleyPin_para.x_t;
DATE=Fri Sep  2 13:05:42 2022;
**PART2;
SCH=SCH_3301260_33103;
USFLD_SIZE=0;
**PART3;
**END_OF_HEADER*****************************************************************
T51 : TRANSMIT FILE created by modeller version 330126023 SCH_3301260_33103_1300
6230 0 12 35 CCCI7 lattice222 0 CCCI4 mesh1006 0 I8 polyline1008 0 CCCCCCCDI5 ow
ner1040 0 CCCCCCI13 boundary_mesh1006 0 I17 boundary_polyline1008 0 CCCA16 index
_map_offset0 0 1 dA9 index_map82 0 A17 node_id_index_map82 0 A20 schema_embeddin
g_map82 0 A5 child12 0 A14 lowest_node_id0 0 1 dA16 mesh_offset_data206 0 Z1 356
 2 3 0 0 0 0 0 0 0 1e3 1e-8 0 4 0 1 0 1 1 5 6 7 0 0 0 8 9 0 0 0 0 0 0 0 0 81 255
 2 2 347 10 1 11 0 0 0 0 12 70 11 CI9 list_type0 0 1 uI10 notransmit0 0 1 lCCCDC
CDI12 finger_index0 0 1 dI12 finger_block1012 0 CZ3 0 4 T1 0 0 9 20 1 13 13 13 2
55 5 83 0 1 0 14 0 0 15 0 50 255 6 149 0 14 16 0 0 +-.01905 .0025 0 1 0 0 0 0 1
 31 255 7 157 0 9 17 0 0 +.009525 0 0 1 0 0 0 0 -1 .002413 19 8 CCCCCCCA5 owner1
2 0 Z8 87 0 1 15 0 18 V0 16 255 9 122 0 ?19 0 20 7 0 0 1 17 255 19 0 21 19 19 0
 22 9 0 0 +16 20 117 0 ?23 9 24 17 0 0 1 17 23 0 25 23 23 0 26 20 0 0 +16 24 112
 0 ?27 20 28 29 0 0 1 31 17 156 0 20 29 7 0 +.003175 0 0 1 0 0 0 0 -1 .002413 31
 29 155 0 24 30 17 0 +.003175 0 0 1 0 0 0 0 -1 .00635 31 30 154 0 28 31 29 0 +0
 0 0 1 0 0 0 0 -1 .00635 16 28 107 0 ?32 24 33 30 0 0 1 31 31 153 0 33 34 30 0 +
0 0 0 1 0 0 0 0 -1 .003175 16 33 102 0 ?35 28 36 31 0 0 1 31 34 152 0 36 37 31 0
 +-.00635 0 0 1 0 0 0 0 -1 .003175 16 36 97 0 ?38 33 39 34 0 0 1 31 37 151 0 39
 40 34 0 +-.00635 0 0 1 0 0 0 0 -1 .0025 16 39 92 0 ?41 36 42 37 0 0 1 31 40 150
 0 42 0 37 0 +-.01905 0 0 1 0 0 0 0 -1 .0025 16 42 90 0 ?43 39 0 40 0 0 1 17 43
 0 44 43 43 0 45 42 0 0 +15 255 44 195 0 43 46 47 17 45 0 48 45 45 0 43 42 0 0 -
15 48 137 0 45 14 0 14 255 14 138 49 ?50 0 48 5 6 -0 0 50 0 18 81 1 49 348 51 14
 52 0 0 53 54 14 50 130 53 ?55 14 21 5 16 -0 0 55 14 18 13 18 86 0 0 0 0 0 0 8 1
4 81 1 53 349 51 50 56 0 49 57 58 14 55 125 57 ?59 50 25 5 60 -0 0 59 50 18 15 2
1 202 0 19 50 0 50 16 148 0 50 60 6 0 +.009525 0 0 -1 0 0 0 0 -1 51 255 60 147 0
 55 61 16 0 --.01905 0 0 -1 0 0 .002413 0 0 -1 50 61 146 0 59 62 60 0 +.003175 .
002413 0 -1 0 0 0 0 -1 14 59 120 63 ?64 55 65 5 61 -0 0 64 55 18 51 62 145 0 64
 66 61 0 --.01905 0 0 -1 0 0 .00635 0 0 -1 14 64 115 67 ?68 59 69 5 62 -0 0 68 5
9 18 50 66 144 0 68 70 62 0 +0 .00635 0 1 0 0 0 0 1 14 68 110 71 ?72 64 73 5 66
 -0 0 72 64 18 51 70 143 0 72 74 66 0 --.01905 0 0 -1 0 0 .003175 0 0 -1 14 72 1
05 75 ?76 68 77 5 70 -0 0 76 68 18 50 74 142 0 76 78 70 0 +-.00635 .003175 0 1 0
 0 0 0 1 14 76 100 79 ?46 72 80 5 74 -0 0 46 72 18 51 78 141 0 46 0 74 0 --.0190
5 0 0 -1 0 0 .0025 0 0 -1 14 46 95 81 ?0 76 44 5 78 -0 0 0 76 18 81 1 81 356 51
 46 82 0 79 0 83 80 255 1 51 84 85 9000 1 1 1 1 1 1 1 1 0 FFFFTFTFFFFFFF1 81 1 8
2 326 86 46 0 81 87 0 88 81 1 79 355 51 76 87 0 75 81 89 82 255 1 83 1823998112
 81 1 87 325 86 76 0 79 90 82 91 81 1 75 354 51 72 90 0 71 79 92 82 1 89 1824325
792 81 1 90 324 86 72 0 75 93 87 94 81 1 71 353 51 68 93 0 67 75 95 82 1 92 1824
653472 81 1 93 323 86 68 0 71 96 90 97 81 1 67 352 51 64 96 0 63 71 98 82 1 95 1
824981152 81 1 96 322 86 64 0 67 99 93 100 81 1 63 351 51 59 99 0 57 67 101 82 1
 98 1825308832 81 1 99 321 86 59 0 63 102 96 103 81 1 57 350 51 55 102 0 53 63 1
04 82 1 101 1825636512 81 1 102 320 86 55 0 57 56 99 105 82 1 104 1825833120 80
 1 86 0 106 8001 0 0 0 0 3 5 0 0 0 FFFFTFTFFFFFFF2 81 1 56 319 86 50 0 53 52 102
 107 83 255 3 105 .752941176470588 0 .752941176470588 81 1 52 318 86 14 0 49 0 5
6 108 83 3 107 .752941176470588 0 .752941176470588 83 3 108 .752941176470588 0 .
752941176470588 79 255 15 106 SDL/TYSA_COLOUR83 3 103 .752941176470588 0 .752941
176470588 83 3 100 .752941176470588 0 .752941176470588 83 3 97 .752941176470588
 0 .752941176470588 83 3 94 .752941176470588 0 .752941176470588 83 3 91 .7529411
76470588 0 .752941176470588 83 3 88 .752941176470588 0 .752941176470588 79 14 85
 SWEntUnchanged15 80 196 0 41 76 109 17 41 0 80 41 41 0 110 39 0 0 +15 109 99 0
 111 76 0 17 111 0 109 111 111 0 38 36 0 0 -17 38 0 77 38 38 0 111 36 0 0 +15 77
 197 0 38 72 112 15 112 104 0 113 72 0 17 113 0 112 113 113 0 35 33 0 0 -17 35 0
 73 35 35 0 113 33 0 0 +15 73 198 0 35 68 114 15 114 109 0 115 68 0 17 115 0 114
 115 115 0 32 28 0 0 -17 32 0 69 32 32 0 115 28 0 0 +15 69 199 0 32 64 116 15 11
6 114 0 117 64 0 17 117 0 116 117 117 0 27 24 0 0 -17 27 0 65 27 27 0 117 24 0 0
 +15 65 200 0 27 59 118 15 118 119 0 26 59 0 17 26 0 118 26 26 0 23 20 0 0 -17 1
10 0 47 110 110 0 41 39 0 0 -15 47 94 0 110 46 0 15 25 201 0 23 55 119 15 119 12
4 0 22 55 0 17 22 0 119 22 22 0 19 9 0 0 -82 1 58 1826160800 82 1 54 1826029728
 19 15 82 0 1 0 8 5 S0 74 4 CI16 index_map_offset0 0 1 dCCZ20 13 9 0 0 120 121 8
1 122 123 124 82 11 2 0 0 0 0 0 0 0 0 0 0 0 81 2 120 212 125 1 0 121 0 0 0 126 8
1 2 121 216 127 1 120 122 0 0 0 128 81 1 122 256 129 1 121 123 0 0 130 81 2 123
 301 131 1 122 124 0 0 0 132 81 2 124 304 133 1 123 11 0 0 0 0 81 2 11 346 134 1
 124 2 0 0 135 0 80 2 134 136 137 8004 0 0 0 0 3 5 0 0 0 FFTFFFFFFFFFFF2 3 83 1
 135 2700.001083 79 16 137 SDL/TYSA_DENSITY80 2 133 138 139 9000 0 0 0 0 3 5 0 0
 0 FFTFFFFFFFFFFF9 1 79 16 139 BODY_RECIPE_200180 2 131 140 141 9000 0 0 0 0 3 5
 0 0 0 FFTFFFFFFFFFFF9 1 82 1 132 1 79 24 141 BODY_IN_LIGHTWEIGHT_PERM80 1 129 1
42 143 9000 1 1 1 1 1 1 1 1 0 FFTFFFFFFFFFFF1 82 1 130 2649244 79 10 143 BODY_MA
TCH80 2 127 144 145 9000 0 0 0 0 3 5 0 0 0 FFTFFFFFFFFFFF9 1 82 1 128 64 79 30 1
45 LAST_BODY_MODIFYING_FEATURE_ID80 2 125 146 147 9000 0 0 0 0 3 5 0 0 0 FFTFFFF
FFFFFFT9 1 82 1 126 134 79 19 147 ENT_TIME_STAMP_200180 2 10 148 149 9000 0 0 0
 0 3 5 0 0 0 FFTFFFFFFFFFFF9 1 82 1 12 102 79 12 149 ATOM_ID_20011 0 
