**ABCDEFGHIJKLMNOPQRSTUVWXYZabcdefghijklmnopqrstuvwxyz**************************
**PARASOLID !"#$%&'()*+,-./:;<=>?@[\]^_`{|}~0123456789**************************
**PART1;
MC=AMD64;
MC_MODEL=Intel64 Family 6 Model 158 Stepping 9, GenuineIntel;
MC_ID=unknown;
OS=Windows_NT;
OS_RELEASE=unknown;
FRU=Parasolid Version 33.1, build 260,  4-25-2022;
APPL=SOLIDWORKS 2022-2022207;
SITE=;
USER=unknown;
FORMAT=text;
GUISE=transmit;
KEY=FILEEGR346_P006_KinematicPlatform_para.x_t;
DATE=Fri Sep  2 13:10:03 2022;
**PART2;
SCH=SCH_3301260_33103;
USFLD_SIZE=0;
**PART3;
**END_OF_HEADER*****************************************************************
T51 : TRANSMIT FILE created by modeller version 330126023 SCH_3301260_33103_1300
6230 0 12 35 CCCI7 lattice222 0 CCCI4 mesh1006 0 I8 polyline1008 0 CCCCCCCDI5 ow
ner1040 0 CCCCCCI13 boundary_mesh1006 0 I17 boundary_polyline1008 0 CCCA16 index
_map_offset0 0 1 dA9 index_map82 0 A17 node_id_index_map82 0 A20 schema_embeddin
g_map82 0 A5 child12 0 A14 lowest_node_id0 0 1 dA16 mesh_offset_data206 0 Z1 758
 2 3 0 0 0 0 0 0 0 1e3 1e-8 0 4 0 1 0 1 1 5 6 7 8 0 0 9 10 11 0 0 0 0 0 0 0 81 2
55 2 2 737 12 1 13 0 0 0 0 14 70 11 CI9 list_type0 0 1 uI10 notransmit0 0 1 lCCC
DCCDI12 finger_index0 0 1 dI12 finger_block1012 0 CZ3 0 4 T1 0 0 9 20 1 15 15 13
 255 5 99 0 1 0 16 0 0 17 0 50 255 6 94 0 16 18 0 0 +.022225 -.022225 .009525 -1
 0 0 0 0 1 31 255 7 530 0 19 20 0 0 +-.00635565314094122 -.00635565314094124 .00
47752 0 0 -1 -1 0 0 .00238125 29 255 8 75 0 21 22 0 .022225 -.022225 0 19 8 CCCC
CCCA5 owner12 0 Z9 33 0 1 17 0 23 V0 16 255 10 82 0 ?24 0 25 20 0 0 1 18 255 11
 30 0 26 0 27 28 ?1 17 255 26 0 29 30 31 11 32 33 0 34 +18 27 27 0 31 11 35 36 ?
1 29 28 32 0 11 36 37 .022225 -.022225 .009525 29 36 29 0 27 38 28 -.022225 -.02
2225 .009525 29 37 78 0 39 28 40 .022225 .022225 0 18 39 69 0 41 42 0 37 ?1 29 4
0 77 0 42 37 22 -.022225 .022225 0 18 42 68 0 43 44 39 40 ?1 29 22 76 0 44 40 8
 -.022225 -.022225 0 18 44 67 0 45 21 42 22 ?1 17 45 0 46 47 48 44 49 50 0 51 +1
8 21 66 0 52 53 44 8 ?1 17 52 0 54 34 51 21 55 56 0 57 +18 53 21 0 58 35 21 59 ?
1 17 58 0 60 24 61 53 62 63 0 30 -18 35 24 0 62 27 53 38 ?1 29 59 23 0 53 0 38 .
022225 .022225 .009525 29 38 26 0 35 59 36 -.022225 .022225 .009525 17 62 0 29 3
1 30 35 58 63 0 61 +15 255 29 4 0 30 64 0 17 31 0 29 26 62 27 65 66 0 47 +17 30
 0 29 62 26 53 67 68 0 69 +16 63 9 0 ?62 66 68 70 0 0 1 17 61 0 60 58 43 35 48 2
5 0 65 -15 60 87 0 43 71 0 17 43 0 60 61 24 42 41 72 0 48 +17 48 0 46 45 65 42 6
1 25 0 49 +16 25 81 0 ?48 10 73 74 0 0 1 17 65 0 46 48 47 35 31 66 0 0 -15 46 85
 0 45 75 0 17 47 0 46 65 45 27 51 73 0 32 -16 66 13 0 ?31 33 63 76 0 0 1 16 33 1
7 0 ?26 77 66 78 0 0 1 30 255 76 15 0 66 70 78 0 +-.022225 -.022225 .009525 0 -1
 0 30 70 11 0 63 79 76 0 +-.022225 .022225 .009525 -1 0 0 30 78 19 0 33 76 80 0
 +-.022225 -.022225 .009525 1 0 0 30 80 74 0 81 78 82 0 +.022225 -.022225 0 0 1
 0 16 81 62 0 ?83 72 84 80 0 0 1 30 82 73 0 72 80 85 0 +-.022225 .022225 0 -1 0
 0 16 72 58 0 ?43 50 81 82 0 0 1 30 85 72 0 50 82 86 0 +-.022225 -.022225 0 0 -1
 0 16 50 54 0 ?45 56 72 85 0 0 1 30 86 71 0 56 85 87 0 +-.022225 -.022225 0 1 0
 0 16 56 50 0 ?52 68 50 86 0 0 1 30 87 95 0 77 86 88 0 +.022225 -.022225 .009525
 0 0 -1 16 77 79 0 ?57 73 33 87 0 0 1 30 88 96 0 73 87 74 0 +-.022225 -.022225 .
009525 0 0 -1 16 73 80 0 ?51 25 77 88 0 0 1 30 74 97 0 25 88 20 0 +-.022225 .022
225 .009525 0 0 -1 30 20 98 0 10 74 7 0 +.022225 .022225 .009525 0 0 -1 17 51 0
 54 52 32 44 47 73 0 55 +15 54 83 0 52 89 0 17 32 0 54 51 34 27 26 33 0 0 -17 55
 0 90 49 91 44 52 56 0 0 -15 90 49 0 91 92 0 17 49 0 90 41 55 42 45 50 0 0 -17 9
1 0 90 55 41 21 83 81 0 0 -17 41 0 90 91 49 39 43 72 0 24 -17 83 0 93 69 57 39 9
1 81 0 0 +15 93 89 0 83 16 0 17 69 0 93 67 83 53 24 10 0 0 -17 57 0 93 83 67 21
 34 77 0 91 +17 67 0 93 57 69 11 30 68 0 0 -17 34 0 54 32 52 11 57 77 0 67 -16 6
8 5 0 ?30 63 56 79 0 0 1 30 79 7 0 68 94 70 0 +.022225 -.022225 .009525 0 1 0 31
 94 229 0 84 95 79 0 +-.015875 -.015875 .009525 0 0 -1 -1 0 0 .003175 16 84 184
 0 ?96 81 97 94 0 0 1 31 95 231 0 97 98 94 0 +-.015875 -.015875 508e-6 0 0 -1 -1
 0 0 .003175 16 97 185 0 ?99 84 100 95 0 0 1 31 98 232 0 100 101 95 0 +-.015875
 -.015875 508e-6 0 0 -1 -1 0 0 .00381 16 100 186 0 ?102 97 103 98 0 0 1 31 101 2
33 0 103 104 98 0 +-.015875 -.015875 127e-6 0 0 -1 -1 0 0 .00381 16 103 187 0 ?1
05 100 106 101 0 0 1 31 104 234 0 106 107 101 0 +-.015875 -.015875 0 0 0 -1 -1 0
 0 .003937 16 106 183 0 ?108 103 109 104 0 0 1 31 107 308 0 109 110 104 0 +.0166
260831511321 -.015875 .009525 0 0 -1 -1 0 0 .003175 16 109 263 0 ?111 106 112 10
7 0 0 1 31 110 310 0 112 113 107 0 +.0166260831511321 -.015875 508e-6 0 0 -1 -1
 0 0 .003175 16 112 264 0 ?114 109 115 110 0 0 1 31 113 311 0 115 116 110 0 +.01
66260831511321 -.015875 508e-6 0 0 -1 -1 0 0 .00381 16 115 265 0 ?117 112 118 11
3 0 0 1 31 116 312 0 118 119 113 0 +.0166260831511321 -.015875 127e-6 0 0 -1 -1
 0 0 .00381 16 118 266 0 ?120 115 121 116 0 0 1 31 119 313 0 121 122 116 0 +.016
6260831511321 -.015875 0 0 0 -1 -1 0 0 .003937 16 121 262 0 ?123 118 124 119 0 0
 1 31 122 387 0 124 125 119 0 +-.015875 .0166260831511321 .009525 0 0 -1 -1 0 0
 .003175 16 124 342 0 ?126 121 127 122 0 0 1 31 125 389 0 127 128 122 0 +-.01587
5 .0166260831511321 508e-6 0 0 -1 -1 0 0 .003175 16 127 343 0 ?129 124 130 125 0
 0 1 31 128 390 0 130 131 125 0 +-.015875 .0166260831511321 508e-6 0 0 -1 -1 0 0
 .00381 16 130 344 0 ?132 127 133 128 0 0 1 31 131 391 0 133 134 128 0 +-.015875
 .0166260831511321 127e-6 0 0 -1 -1 0 0 .00381 16 133 345 0 ?135 130 136 131 0 0
 1 31 134 392 0 136 137 131 0 +-.015875 .0166260831511321 0 0 0 -1 -1 0 0 .00393
7 16 136 341 0 ?138 133 139 134 0 0 1 31 137 507 0 140 141 134 0 +-.006355653140
94122 -.00635565314094124 0 0 0 -1 -1 0 0 .00635 16 140 488 0 ?142 139 19 137 0
 0 1 31 141 508 0 139 143 137 0 +-.00635565314094122 -.00635565314094124 .004775
2 0 0 -1 -1 0 0 .00635 16 139 485 0 ?144 136 140 141 0 0 1 31 143 570 0 145 0 14
1 0 +-.00635565314094122 -.00635565314094124 .009525 0 0 -1 -1 0 0 .00238125 16
 145 542 0 ?146 19 0 143 0 0 1 17 146 0 147 146 146 0 148 145 0 0 +16 19 541 0 ?
149 140 145 7 0 0 1 17 149 0 150 149 149 0 151 19 0 0 +15 150 556 0 149 152 153
 17 151 0 154 151 151 0 149 19 0 0 -15 154 529 0 151 155 156 14 255 155 496 157
 ?152 158 154 5 159 +0 0 152 158 23 15 156 498 0 144 155 0 17 144 0 156 144 144
 0 160 139 0 0 +17 160 0 161 160 160 0 144 139 0 0 -15 161 494 0 160 158 162 14
 158 491 163 ?155 164 161 5 165 -0 0 155 164 23 15 162 495 0 142 158 0 17 142 0
 162 142 142 0 166 140 0 0 +17 166 0 167 166 166 0 142 140 0 0 -15 167 479 0 166
 92 168 14 92 48 169 ?170 64 167 5 171 +0 0 170 64 23 15 168 331 0 172 92 173 17
 172 0 168 172 172 0 138 136 0 0 -15 173 252 0 174 92 175 17 174 0 173 174 174 0
 123 121 0 0 -15 175 173 0 176 92 90 17 176 0 175 176 176 0 108 106 0 0 -17 108
 0 177 108 108 0 176 106 0 0 +15 177 220 0 108 178 0 14 178 216 179 ?180 181 182
 5 183 -0 0 180 181 23 81 1 179 741 184 178 185 0 169 186 187 14 180 280 186 ?18
8 178 189 5 190 -0 0 188 178 23 14 181 211 191 ?178 192 193 5 194 -0 0 178 192 2
3 15 182 219 0 195 178 177 52 255 183 228 0 178 190 194 0 +-.015875 -.015875 0 0
 0 -1 .003937 .707106781186547 .707106781186548 -1 0 0 13 23 34 0 0 0 0 0 0 9 16
 14 16 90 196 ?71 0 93 5 6 -0 0 71 0 23 81 1 196 744 184 16 197 0 191 198 199 14
 71 88 198 ?75 16 60 5 18 -0 0 75 16 23 81 1 198 745 184 71 200 0 196 201 202 14
 75 86 201 ?89 71 46 5 203 -0 0 89 71 23 50 18 93 0 71 203 6 0 +-.022225 .022225
 .009525 0 -1 0 0 0 -1 50 203 92 0 75 204 18 0 +-.022225 -.022225 .009525 1 0 0
 0 0 -1 50 204 91 0 89 171 203 0 +-.022225 -.022225 .009525 0 1 0 0 0 1 14 89 84
 205 ?64 75 54 5 204 -0 0 64 75 23 50 171 70 0 92 206 204 0 +0 0 0 0 0 -1 -1 0 0
 50 206 3 0 64 207 171 0 +0 0 .009525 0 0 -1 -1 0 0 14 64 1 208 ?92 89 147 5 206
 -0 0 92 89 23 51 255 207 225 0 170 209 206 0 +-.015875 -.015875 0 0 0 -1 .00317
5 -1 0 0 14 170 201 210 ?192 92 211 5 207 -0 0 192 92 23 50 209 226 0 192 194 20
7 0 +-.012065 -.015875 508e-6 0 0 1 1 0 0 14 192 206 212 ?181 170 213 5 209 -0 0
 181 170 23 51 194 227 0 181 183 209 0 +-.015875 -.015875 0 0 0 -1 .00381 -1 0 0
 81 1 212 750 184 192 214 0 210 215 216 15 213 209 0 217 192 218 17 217 0 213 21
7 217 0 99 97 0 0 -15 218 210 0 102 192 0 17 102 0 218 102 102 0 219 100 0 0 +17
 219 0 193 219 219 0 102 100 0 0 -15 193 214 0 219 181 220 15 220 215 0 105 181
 0 17 105 0 220 105 105 0 195 103 0 0 +17 195 0 182 195 195 0 105 103 0 0 -17 99
 0 221 99 99 0 217 97 0 0 +15 221 205 0 99 170 0 80 255 1 184 222 223 9000 1 1 1
 1 1 1 1 1 0 FFFFTFTFFFFFFF1 81 1 214 680 224 192 0 212 225 226 227 81 1 210 749
 184 170 225 0 208 212 228 81 1 215 751 184 188 229 0 212 230 231 82 255 1 216 -
944111471 14 188 285 215 ?232 180 233 5 234 -0 0 232 180 23 81 1 229 684 224 188
 0 215 235 236 237 81 1 230 752 184 232 236 0 215 238 239 82 1 231 -969801583 14
 232 290 230 ?240 188 241 5 242 -0 0 240 188 23 81 1 236 685 224 232 0 230 229 2
43 244 81 1 238 753 184 240 243 0 230 245 246 82 1 239 -970391407 14 240 295 238
 ?247 232 248 5 249 -0 0 247 232 23 81 1 243 686 224 240 0 238 236 250 251 81 1
 245 754 184 247 250 0 238 252 253 82 1 246 -970981231 14 247 359 245 ?254 240 2
55 5 256 -0 0 254 240 23 81 1 250 687 224 247 0 245 243 257 258 81 1 252 755 184
 254 257 0 245 259 260 82 1 253 -994967407 14 254 364 252 ?261 247 262 5 263 -0
 0 261 247 23 81 1 257 688 224 254 0 252 250 264 265 81 1 259 756 184 261 264 0
 252 266 267 82 1 260 -995557231 14 261 369 259 ?164 254 268 5 269 -0 0 164 254
 23 81 1 264 689 224 261 0 259 257 270 271 81 1 266 757 184 164 270 0 259 272 27
3 82 1 267 -996147055 14 164 374 266 ?158 261 274 5 275 -0 0 158 261 23 81 1 270
 690 224 164 0 266 264 276 277 81 1 272 758 184 152 278 0 266 0 279 82 1 273 -99
6736879 14 152 553 272 ?0 155 150 5 280 -0 0 0 155 23 81 1 278 693 224 152 0 272
 281 0 282 82 1 279 -443678565 80 1 224 0 283 8001 0 0 0 0 3 5 0 0 0 FFFFTFTFFFF
FFF2 81 1 281 692 224 155 0 157 276 278 284 83 255 3 282 .494117647058824 .49411
7647058824 .494117647058824 81 1 157 738 184 155 281 0 0 163 285 81 1 276 691 22
4 158 0 163 270 281 286 83 3 284 .494117647058824 .494117647058824 .494117647058
824 81 1 163 739 184 158 276 0 157 169 287 83 3 286 .494117647058824 .4941176470
58824 .494117647058824 81 1 169 740 184 92 288 0 163 179 289 82 1 287 -124197258
7 81 1 288 678 224 92 0 169 290 225 291 82 1 289 1382875285 81 1 290 677 224 64
 0 208 292 288 293 81 1 225 679 224 170 0 210 288 214 294 83 3 291 .494117647058
824 .494117647058824 .494117647058824 83 3 294 .494117647058824 .494117647058824
 .494117647058824 81 1 208 748 184 64 290 0 205 210 295 81 1 292 676 224 89 0 20
5 296 290 297 83 3 293 .494117647058824 .494117647058824 .494117647058824 81 1 2
05 747 184 89 292 0 201 208 298 81 1 296 675 224 75 0 201 200 292 299 83 3 297 .
494117647058824 .494117647058824 .494117647058824 81 1 201 746 184 75 296 0 198
 205 300 81 1 200 674 224 71 0 198 197 296 301 83 3 299 .494117647058824 .494117
647058824 .494117647058824 81 1 197 673 224 16 0 196 0 200 302 83 3 301 .4941176
47058824 .494117647058824 .494117647058824 83 3 302 .494117647058824 .4941176470
58824 .494117647058824 82 1 300 -968228723 82 1 298 -968490867 82 1 295 13845136
91 82 1 285 -1243938661 79 255 15 283 SDL/TYSA_COLOUR51 280 566 0 152 0 159 0 +-
.00635565314094122 -.00635565314094124 .009525 0 0 -1 .00238125 -1 0 0 50 159 50
6 0 155 280 165 0 +-.00635565314094122 -.00635565314094124 .0047752 0 0 -1 -1 0
 0 51 165 504 0 158 159 275 0 +-.00635565314094122 -.00635565314094124 .0047752
 0 0 -1 .00635 -1 0 0 52 275 386 0 164 165 269 0 +-.015875 .0166260831511321 0 0
 0 -1 .003937 .707106781186547 .707106781186548 -1 0 0 51 269 385 0 261 275 263
 0 +-.015875 .0166260831511321 0 0 0 -1 .00381 -1 0 0 50 263 384 0 254 269 256 0
 +-.012065 .0166260831511321 508e-6 0 0 1 1 0 0 51 256 383 0 247 263 249 0 +-.01
5875 .0166260831511321 0 0 0 -1 .003175 -1 0 0 52 249 307 0 240 256 242 0 +.0166
260831511321 -.015875 0 0 0 -1 .003937 .707106781186542 .707106781186553 -1 0 0
 51 242 306 0 232 249 234 0 +.0166260831511321 -.015875 0 0 0 -1 .00381 -1 0 0 5
0 234 305 0 188 242 190 0 +.0204360831511321 -.015875 508e-6 0 0 1 1 0 0 51 190
 304 0 180 234 183 0 +.0166260831511321 -.015875 0 0 0 -1 .003175 -1 0 0 83 3 27
7 .494117647058824 .494117647058824 .494117647058824 15 274 377 0 303 164 304 17
 303 0 274 303 303 0 135 133 0 0 -15 304 378 0 138 164 0 17 138 0 304 138 138 0
 172 136 0 0 +17 135 0 305 135 135 0 303 133 0 0 +15 305 373 0 135 261 0 83 3 27
1 .494117647058824 .494117647058824 .494117647058824 15 268 372 0 306 261 305 17
 306 0 268 306 306 0 132 130 0 0 -17 132 0 307 132 132 0 306 130 0 0 +15 307 368
 0 132 254 0 83 3 265 .494117647058824 .494117647058824 .494117647058824 15 262
 367 0 308 254 307 17 308 0 262 308 308 0 129 127 0 0 -17 129 0 309 129 129 0 30
8 127 0 0 +15 309 363 0 129 247 0 83 3 258 .494117647058824 .494117647058824 .49
4117647058824 15 255 362 0 310 247 309 17 310 0 255 310 310 0 126 124 0 0 -17 12
6 0 311 126 126 0 310 124 0 0 +15 311 316 0 126 64 312 15 312 237 0 111 64 313 1
7 111 0 312 111 111 0 314 109 0 0 +15 313 158 0 96 64 29 17 96 0 313 96 96 0 315
 84 0 0 +17 315 0 211 315 315 0 96 84 0 0 -15 211 204 0 315 170 221 17 314 0 189
 314 314 0 111 109 0 0 -15 189 283 0 314 180 316 15 316 284 0 114 180 0 17 114 0
 316 114 114 0 317 112 0 0 +17 317 0 233 317 317 0 114 112 0 0 -15 233 288 0 317
 188 318 15 318 289 0 117 188 0 17 117 0 318 117 117 0 319 115 0 0 +17 319 0 241
 319 319 0 117 115 0 0 -15 241 293 0 319 232 320 15 320 294 0 120 232 0 17 120 0
 320 120 120 0 321 118 0 0 +17 321 0 248 321 321 0 120 118 0 0 -15 248 298 0 321
 240 322 15 322 299 0 123 240 0 17 123 0 322 123 123 0 174 121 0 0 +83 3 251 .49
4117647058824 .494117647058824 .494117647058824 83 3 244 .494117647058824 .49411
7647058824 .494117647058824 81 1 235 683 224 180 0 186 185 229 323 83 3 237 .494
117647058824 .494117647058824 .494117647058824 81 1 186 742 184 180 235 0 179 19
1 324 81 1 185 682 224 178 0 179 226 235 325 83 3 323 .494117647058824 .49411764
7058824 .494117647058824 81 1 226 681 224 181 0 191 214 185 326 83 3 325 .494117
647058824 .494117647058824 .494117647058824 81 1 191 743 184 181 226 0 186 196 3
27 83 3 326 .494117647058824 .494117647058824 .494117647058824 82 1 327 -9447012
95 82 1 324 -969211759 82 1 228 -943521647 83 3 227 .494117647058824 .4941176470
58824 .494117647058824 79 14 223 SWEntUnchanged15 147 534 0 146 64 311 82 1 202
 -967966579 82 1 199 -967704435 82 1 187 -945291119 15 153 557 0 148 152 0 17 14
8 0 153 148 148 0 146 145 0 0 -17 24 0 60 43 58 39 69 10 0 83 +19 17 100 0 1 0 9
 5 S0 74 4 CI16 index_map_offset0 0 1 dCCZ20 15 9 0 0 328 329 272 330 331 332 13
 278 2 0 0 0 0 0 0 0 0 0 0 0 81 2 328 124 333 1 0 329 0 0 0 334 81 2 329 128 335
 1 328 330 0 0 0 336 81 2 330 456 337 1 329 331 0 0 338 0 81 2 331 475 339 1 330
 332 0 0 0 340 81 1 332 579 341 1 331 13 0 0 342 81 2 13 666 343 1 332 2 0 0 0 0
 80 2 343 344 345 9000 0 0 0 0 3 5 0 0 0 FFTFFFFFFFFFFF9 1 79 16 345 BODY_RECIPE
_200180 1 341 346 347 9000 1 1 1 1 1 1 1 1 0 FFTFFFFFFFFFFF1 82 1 342 348661 79
 10 347 BODY_MATCH80 2 339 348 349 9000 0 0 0 0 3 5 0 0 0 FFTFFFFFFFFFFF9 1 82 1
 340 1 79 24 349 BODY_IN_LIGHTWEIGHT_PERM80 2 337 350 351 8004 0 0 0 0 3 5 0 0 0
 FFTFFFFFFFFFFF2 3 83 1 338 1 79 16 351 SDL/TYSA_DENSITY80 2 335 352 353 9000 0
 0 0 0 3 5 0 0 0 FFTFFFFFFFFFFF9 1 82 1 336 79 79 30 353 LAST_BODY_MODIFYING_FEA
TURE_ID80 2 333 354 355 9000 0 0 0 0 3 5 0 0 0 FFTFFFFFFFFFFT9 1 82 1 334 163 79
 19 355 ENT_TIME_STAMP_200180 2 12 356 357 9000 0 0 0 0 3 5 0 0 0 FFTFFFFFFFFFFF
9 1 82 1 14 105 79 12 357 ATOM_ID_20011 0 
