**ABCDEFGHIJKLMNOPQRSTUVWXYZabcdefghijklmnopqrstuvwxyz**************************
**PARASOLID !"#$%&'()*+,-./:;<=>?@[\]^_`{|}~0123456789**************************
**PART1;
MC=AMD64;
MC_MODEL=Intel64 Family 6 Model 158 Stepping 9, GenuineIntel;
MC_ID=unknown;
OS=Windows_NT;
OS_RELEASE=unknown;
FRU=Parasolid Version 33.1, build 260,  4-25-2022;
APPL=SOLIDWORKS 2022-2022207;
SITE=;
USER=unknown;
FORMAT=text;
GUISE=transmit;
KEY=FILEEGR346_P004_InputArm_para.x_t;
DATE=Fri Sep  2 13:07:21 2022;
**PART2;
SCH=SCH_3301260_33103;
USFLD_SIZE=0;
**PART3;
**END_OF_HEADER*****************************************************************
T51 : TRANSMIT FILE created by modeller version 330126023 SCH_3301260_33103_1300
6230 0 12 35 CCCI7 lattice222 0 CCCI4 mesh1006 0 I8 polyline1008 0 CCCCCCCDI5 ow
ner1040 0 CCCCCCI13 boundary_mesh1006 0 I17 boundary_polyline1008 0 CCCA16 index
_map_offset0 0 1 dA9 index_map82 0 A17 node_id_index_map82 0 A20 schema_embeddin
g_map82 0 A5 child12 0 A14 lowest_node_id0 0 1 dA16 mesh_offset_data206 0 Z1 362
 2 3 0 0 0 0 0 0 0 1e3 1e-8 0 4 0 1 0 1 1 5 6 7 8 0 0 9 10 11 0 0 0 0 0 0 0 81 2
55 2 2 351 12 1 13 0 0 0 0 14 70 11 CI9 list_type0 0 1 uI10 notransmit0 0 1 lCCC
DCCDI12 finger_index0 0 1 dI12 finger_block1012 0 CZ3 0 4 T1 0 0 10 20 1 15 15 1
3 255 5 180 0 1 0 16 0 0 17 0 51 255 6 175 0 18 19 0 0 -0 539583003257742e-32 .0
047625 0 0 -1 .0047625 -1 0 0 31 255 7 234 0 10 20 0 0 +-.07366 210937757110637e
-31 .002032 0 0 1 1 0 0 .0047625 29 255 8 141 0 21 22 0 -.07366 -.0079375 0 19 8
 CCCCCCCA5 owner12 0 Z9 58 0 1 17 0 23 V0 16 255 10 231 0 ?24 0 25 7 0 0 1 18 25
5 11 53 0 26 0 27 28 ?1 17 255 26 0 29 30 31 11 32 33 0 34 +18 27 50 0 35 11 36
 37 ?1 29 28 55 0 11 37 38 -.07366 -.0079375 .0047625 29 37 52 0 27 39 28 -.0736
6 .0079375 .0047625 29 38 144 0 40 28 41 .07366 -.0079375 0 18 40 132 0 42 43 0
 38 ?1 29 41 143 0 43 38 22 .07366 .0079375 0 18 43 131 0 44 45 40 41 ?1 29 22 1
42 0 45 41 8 -.07366 .0079375 0 18 45 130 0 46 21 43 22 ?1 17 46 0 47 48 32 45 3
5 49 0 50 +18 21 129 0 48 51 45 8 ?1 17 48 0 47 34 46 21 50 52 0 53 +18 51 44 0
 54 36 21 55 ?1 17 54 0 56 57 58 51 59 60 0 30 -18 36 47 0 59 27 51 39 ?1 29 55
 46 0 51 0 39 .07366 -.0079375 .0047625 29 39 49 0 36 55 37 .07366 .0079375 .004
7625 17 59 0 29 31 30 36 54 60 0 58 +15 255 29 8 0 30 61 0 17 31 0 29 26 59 27 6
2 63 0 0 -17 30 0 29 59 26 51 64 65 0 66 +16 60 29 0 ?59 63 65 67 0 0 1 17 58 0
 56 54 68 36 44 69 0 62 -15 56 153 0 68 70 0 17 68 0 56 58 57 43 42 71 0 72 +17
 44 0 73 74 62 43 58 69 0 68 +16 69 147 0 ?44 25 49 75 0 0 1 17 62 0 73 44 35 36
 31 63 0 0 +15 73 151 0 74 76 0 17 35 0 73 62 74 27 46 49 0 32 -16 63 34 0 ?62 3
3 60 77 0 0 1 16 33 39 0 ?26 78 63 79 0 0 1 30 255 77 36 0 63 67 79 0 +0 .007937
5 .0047625 1 0 0 31 67 31 0 60 80 77 0 +.07366 210937757110637e-31 .0047625 0 0
 1 1 0 0 .0079375 31 79 41 0 33 77 81 0 +-.07366 210937757110637e-31 .0047625 0
 0 1 1 0 0 .0079375 31 81 140 0 82 79 83 0 +0 539583003257742e-32 0 0 0 1 1 0 0
 .0047625 16 82 124 0 ?84 85 86 81 0 0 1 31 83 139 0 85 81 87 0 +.07366 21093775
7110637e-31 0 0 0 1 1 0 0 .0047625 16 85 119 0 ?88 89 82 83 0 0 1 30 87 137 0 89
 83 90 0 +0 -.0079375 0 1 0 0 16 89 109 0 ?91 71 85 87 0 0 1 31 90 136 0 71 87 9
2 0 +.07366 210937757110637e-31 0 0 0 1 1 0 0 .0079375 16 71 104 0 ?68 93 89 90
 0 0 1 30 92 135 0 93 90 94 0 +0 .0079375 0 1 0 0 16 93 99 0 ?72 52 71 92 0 0 1
 31 94 134 0 52 92 95 0 +-.07366 210937757110637e-31 0 0 0 1 1 0 0 .0079375 16 5
2 94 0 ?48 96 93 94 0 0 1 30 95 176 0 78 94 97 0 +-.07366 -.0079375 .0047625 0 0
 -1 16 78 145 0 ?53 49 33 95 0 0 1 30 97 177 0 49 95 75 0 +-.07366 .0079375 .004
7625 0 0 -1 16 49 146 0 ?46 69 78 97 0 0 1 30 75 178 0 69 97 20 0 +.07366 .00793
75 .0047625 0 0 -1 30 20 179 0 25 75 7 0 +.07366 -.0079375 .0047625 0 0 -1 16 25
 148 0 ?57 10 69 20 0 0 1 17 57 0 56 68 54 40 66 25 0 91 +17 66 0 98 64 91 51 57
 25 0 0 -17 91 0 98 66 53 40 99 89 0 0 +15 98 155 0 91 16 0 17 53 0 98 91 64 21
 34 78 0 99 +17 99 0 100 50 42 21 91 89 0 0 -15 100 93 0 99 101 102 17 50 0 100
 72 99 45 48 52 0 74 -17 42 0 100 99 72 40 68 71 0 57 -17 72 0 100 42 50 43 74 9
3 0 0 +17 74 0 73 35 44 45 72 93 0 0 -14 255 101 88 103 ?104 61 105 5 106 -0 0 1
04 61 23 15 102 257 0 107 101 0 17 107 0 102 107 107 0 108 109 0 0 +17 108 0 110
 108 108 0 107 109 0 0 -16 109 241 0 ?107 86 0 111 0 0 1 16 86 247 0 ?112 82 109
 113 0 0 1 31 111 276 0 109 113 114 0 +-.07366 210937757110637e-31 0 0 0 1 1 0 0
 .003373437500000005 31 113 277 0 86 0 111 0 +-.07366 210937757110637e-31 .00203
2 0 0 1 1 0 0 .003373437500000005 31 114 11 0 96 111 115 0 +0 539583003257742e-3
2 .0047625 0 0 1 1 0 0 .0047625 16 96 9 0 ?116 117 52 114 0 0 1 31 115 16 0 117
 114 118 0 +.07366 210937757110637e-31 .0047625 0 0 1 1 0 0 .0047625 16 117 14 0
 ?119 120 96 115 0 0 1 31 118 21 0 120 115 80 0 +-.07366 210937757110637e-31 .00
47625 0 0 1 1 0 0 .0047625 16 120 19 0 ?121 65 117 118 0 0 1 30 80 26 0 65 118 6
7 0 +0 -.0079375 .0047625 1 0 0 16 65 24 0 ?30 60 120 80 0 0 1 17 121 0 122 121
 121 0 123 120 0 0 +15 122 157 0 121 124 0 17 123 0 125 123 123 0 121 120 0 0 -1
5 125 7 0 123 61 29 14 61 1 126 ?101 127 128 5 129 +0 0 101 127 23 81 1 126 353
 130 61 131 0 103 132 133 14 127 150 132 ?61 18 47 5 134 -0 0 61 18 23 15 128 5
 0 135 61 136 50 255 129 3 0 61 137 106 0 +0 0 .0047625 0 0 1 1 0 0 13 23 59 0 0
 0 0 0 0 9 16 14 16 156 138 ?70 0 98 5 139 -0 0 70 0 23 81 1 138 355 130 16 140
 0 132 141 142 14 70 154 141 ?76 16 56 5 143 -0 0 76 16 23 50 139 172 0 16 143 1
44 0 +0 -.0079375 .0047625 0 1 0 0 0 1 51 143 171 0 70 145 139 0 -.07366 2109377
57110637e-31 .0047625 0 0 -1 .0079375 -1 0 0 51 144 173 0 124 139 19 0 --.07366
 210937757110637e-31 .0047625 0 0 -1 .0047625 -1 0 0 14 124 158 146 ?147 76 148
 5 144 +0 0 147 76 23 51 19 174 0 147 144 6 0 -.07366 210937757110637e-31 .00476
25 0 0 -1 .0047625 -1 0 0 14 147 162 149 ?18 124 150 5 19 +0 0 18 124 23 81 1 14
9 358 130 147 151 0 146 152 153 14 18 166 152 ?127 147 154 5 6 +0 0 127 147 23 1
5 150 161 0 119 147 155 17 119 0 150 119 119 0 156 117 0 0 +15 155 163 0 157 147
 0 17 157 0 155 157 157 0 88 85 0 0 -17 88 0 158 88 88 0 157 85 0 0 +15 158 91 0
 88 101 100 17 156 0 136 156 156 0 119 117 0 0 -15 136 6 0 156 61 125 81 1 152 3
59 130 18 159 0 149 160 161 15 154 165 0 116 18 162 17 116 0 154 116 116 0 135 9
6 0 0 +15 162 167 0 163 18 0 17 163 0 162 163 163 0 84 82 0 0 -17 84 0 105 84 84
 0 163 82 0 0 +15 105 90 0 84 101 158 17 135 0 128 135 135 0 116 96 0 0 -80 255
 1 130 164 165 9000 1 1 1 1 1 1 1 1 0 FFFFTFTFFFFFFF1 81 1 159 320 166 18 0 152
 151 167 168 81 1 160 360 130 104 169 0 152 170 171 82 255 1 161 -1838284609 14
 104 250 160 ?172 101 173 5 137 +0 0 172 101 23 81 1 169 324 166 104 0 160 174 1
75 176 81 1 170 361 130 172 175 0 160 177 178 82 1 171 -1814298432 14 172 263 17
0 ?0 104 179 5 180 +0 0 0 104 23 81 1 175 325 166 172 0 170 169 0 181 81 1 177 3
62 130 76 182 0 170 0 183 82 1 178 -1824325440 14 76 152 177 ?124 70 73 5 145 +0
 0 124 70 23 81 1 182 317 166 76 0 177 184 185 186 82 1 183 -1839595329 80 1 166
 0 187 8001 0 0 0 0 3 5 0 0 0 FFFFTFTFFFFFFF2 81 1 184 316 166 70 0 141 140 182
 188 81 1 185 318 166 124 0 146 182 151 189 83 255 3 186 .898039215686275 .91764
7058823529 .929411764705882 81 1 146 357 130 124 185 0 141 149 190 81 1 151 319
 166 147 0 149 185 159 191 83 3 189 .898039215686275 .917647058823529 .929411764
705882 83 3 191 .898039215686275 .917647058823529 .929411764705882 81 1 141 356
 130 70 184 0 138 146 192 82 1 190 -1838808896 82 1 192 -1839398721 81 1 140 315
 166 16 0 138 0 184 193 83 3 188 .898039215686275 .917647058823529 .929411764705
882 83 3 193 .898039215686275 .917647058823529 .929411764705882 79 255 15 187 SD
L/TYSA_COLOUR50 145 170 0 76 134 143 0 +0 .0079375 .0047625 0 1 0 0 0 1 51 134 1
69 0 127 106 145 0 --.07366 210937757110637e-31 .0047625 0 0 -1 .0079375 -1 0 0
 50 106 133 0 101 129 134 0 +0 0 0 0 0 1 1 0 0 83 3 181 .898039215686275 .917647
058823529 .929411764705882 15 179 266 0 112 172 110 51 180 273 0 172 0 137 0 --.
07366 210937757110637e-31 .002032 0 0 -1 .003373437500000005 -1 0 0 50 137 272 0
 104 180 129 0 +-.07366 210937757110637e-31 .002032 0 0 1 1 0 0 17 112 0 179 112
 112 0 194 86 0 0 +15 110 267 0 108 172 0 17 194 0 195 194 194 0 112 86 0 0 -15
 195 253 0 194 104 0 81 1 174 323 166 101 0 103 131 169 196 83 3 176 .8980392156
86275 .917647058823529 .929411764705882 81 1 103 352 130 101 174 0 0 126 197 81
 1 131 322 166 61 0 126 167 174 198 83 3 196 .898039215686275 .917647058823529 .
929411764705882 81 1 167 321 166 127 0 132 159 131 199 83 3 198 .898039215686275
 .917647058823529 .929411764705882 81 1 132 354 130 127 167 0 126 138 200 83 3 1
99 .898039215686275 .917647058823529 .929411764705882 82 1 200 -1839857473 82 1
 197 -1843134272 15 173 252 0 24 104 195 17 24 0 173 24 24 0 201 10 0 0 +17 201
 0 148 201 201 0 24 10 0 0 -15 148 233 0 201 124 122 83 3 168 .898039215686275 .
917647058823529 .929411764705882 79 14 165 SWEntUnchanged82 1 153 -1838546753 82
 1 142 -1839071041 15 47 149 0 48 127 0 82 1 133 -1851457345 17 64 0 98 53 66 11
 30 65 0 0 -17 34 0 47 32 48 11 53 78 0 64 -17 32 0 47 46 34 27 26 33 0 31 -19 1
7 181 0 1 0 9 5 S0 74 4 CI16 index_map_offset0 0 1 dCCZ20 15 10 0 0 202 177 203
 204 205 206 207 175 13 2 0 0 0 0 0 0 0 0 0 0 81 5 202 57 208 1 0 203 0 0 209 0
 0 0 0 81 2 203 284 210 1 202 204 0 0 0 211 81 2 204 289 212 1 203 205 0 0 0 213
 81 1 205 294 214 1 204 206 0 0 215 81 2 206 307 216 1 205 207 0 0 0 217 81 2 20
7 310 218 1 206 13 0 0 0 0 81 2 13 350 219 1 207 2 0 0 220 0 80 2 219 221 222 80
04 0 0 0 0 3 5 0 0 0 FFTFFFFFFFFFFF2 3 83 1 220 2700.001083 79 16 222 SDL/TYSA_D
ENSITY80 2 218 223 224 9000 0 0 0 0 3 5 0 0 0 FFTFFFFFFFFFFF9 1 79 16 224 BODY_R
ECIPE_200180 2 216 225 226 9000 0 0 0 0 3 5 0 0 0 FFTFFFFFFFFFFF9 1 82 1 217 1 7
9 24 226 BODY_IN_LIGHTWEIGHT_PERM80 1 214 227 228 9000 1 1 1 1 1 1 1 1 0 FFTFFFF
FFFFFFF1 82 1 215 4821411 79 10 228 BODY_MATCH80 2 212 229 230 9000 0 0 0 0 3 5
 0 0 0 FFTFFFFFFFFFFF9 1 82 1 213 49 79 30 230 LAST_BODY_MODIFYING_FEATURE_ID80
 2 210 231 232 9000 0 0 0 0 3 5 0 0 0 FFTFFFFFFFFFFT9 1 82 1 211 369 79 19 232 E
NT_TIME_STAMP_200180 5 208 233 234 9000 0 0 0 0 3 6 0 0 0 FFTTTTTTFTTFTT2 2 2 2
 2 83 1 209 1 79 19 234 BODY_SCALING_FACTOR80 2 12 235 236 9000 0 0 0 0 3 5 0 0
 0 FFTFFFFFFFFFFF9 1 82 1 14 103 79 12 236 ATOM_ID_20011 0 
