**ABCDEFGHIJKLMNOPQRSTUVWXYZabcdefghijklmnopqrstuvwxyz**************************
**PARASOLID !"#$%&'()*+,-./:;<=>?@[\]^_`{|}~0123456789**************************
**PART1;
MC=AMD64;
MC_MODEL=Intel64 Family 6 Model 158 Stepping 9, GenuineIntel;
MC_ID=unknown;
OS=Windows_NT;
OS_RELEASE=unknown;
FRU=Parasolid Version 33.1, build 260,  4-25-2022;
APPL=SOLIDWORKS 2022-2022207;
SITE=;
USER=unknown;
FORMAT=text;
GUISE=transmit;
KEY=FILEEGR346_P008_StepperMount_para.x_t;
DATE=Fri Sep  2 13:11:55 2022;
**PART2;
SCH=SCH_3301260_33103;
USFLD_SIZE=0;
**PART3;
**END_OF_HEADER*****************************************************************
T51 : TRANSMIT FILE created by modeller version 330126023 SCH_3301260_33103_1300
6230 0 12 35 CCCI7 lattice222 0 CCCI4 mesh1006 0 I8 polyline1008 0 CCCCCCCDI5 ow
ner1040 0 CCCCCCI13 boundary_mesh1006 0 I17 boundary_polyline1008 0 CCCA16 index
_map_offset0 0 1 dA9 index_map82 0 A17 node_id_index_map82 0 A20 schema_embeddin
g_map82 0 A5 child12 0 A14 lowest_node_id0 0 1 dA16 mesh_offset_data206 0 Z1 141
2 2 3 0 0 0 0 0 0 0 1e3 1e-8 0 4 0 1 0 1 1 5 6 7 8 0 0 9 10 11 0 0 0 0 0 0 0 81
 255 2 2 1383 12 1 13 0 0 0 0 14 70 11 CI9 list_type0 0 1 uI10 notransmit0 0 1 l
CCCDCCDI12 finger_index0 0 1 dI12 finger_block1012 0 CZ3 0 4 T1 0 0 10 20 1 15 1
5 13 255 5 159 0 1 0 16 0 0 17 0 51 255 6 1190 0 18 19 0 0 +.01374754248218258 0
 .01619355794164805 0 1 0 .00381 0 0 1 31 255 7 987 0 10 20 0 0 +.01374754248218
258 0 .01619355794164805 0 1 0 0 0 1 .00381 29 255 8 850 0 11 21 0 .015652542482
1826 .00508 .01289400115322934 19 8 CCCCCCCA5 owner12 0 Z9 57 0 1 17 0 22 V0 16
 255 10 975 0 ?23 0 24 7 0 0 1 18 255 11 848 0 25 0 26 8 ?1 17 255 25 0 27 28 29
 11 30 24 0 31 -18 26 845 0 32 11 33 21 ?1 17 32 0 34 35 36 26 37 38 0 39 +18 33
 842 0 40 26 41 42 ?1 29 21 847 0 26 42 8 .00712741520178175 .00508 .00508 29 42
 844 0 33 43 21 -.003827858413363035 .00508 .003175 29 43 841 0 41 44 42 .003827
85841336303 .00508 .003175 18 41 839 0 37 33 45 43 ?1 29 44 838 0 45 46 43 -.007
12741520178175 .00508 .00508 18 45 836 0 47 41 48 44 ?1 29 46 835 0 48 49 44 -.0
1565254248218255 .00508 .01289400115322934 18 48 833 0 50 45 51 46 ?1 29 49 832
 0 51 52 46 -.0170470992706013 .00508 .01809855794164805 18 51 830 0 53 48 54 49
 ?1 29 52 829 0 54 55 49 .0170470992706013 .00508 .01809855794164805 18 54 827 0
 30 51 56 52 ?1 29 55 826 0 56 57 52 -.0254 .00508 .00896002306458773 18 56 824
 0 58 54 59 55 ?1 29 57 823 0 59 60 55 -.0254 .00508 .00381 18 59 821 0 61 56 62
 57 ?1 29 60 820 0 62 63 57 .02159 .00508 -2644012439359135e-33 18 62 818 0 64 5
9 65 60 ?1 29 63 817 0 65 66 60 -.02159 .00508 2644012439359135e-33 18 65 815 0
 67 62 68 63 ?1 29 66 814 0 68 69 63 -.0248895567884187 .00508 .0108650230645877
2 18 68 812 0 70 65 71 66 ?1 29 69 806 0 71 72 66 .0248895567884187 .00508 .0108
650230645877 18 71 804 0 73 68 74 69 ?1 29 72 779 0 74 75 69 -.0170470992706013
 0 .01809855794164805 18 74 777 0 76 71 77 72 ?1 29 75 776 0 77 78 72 -.01565254
248218255 0 .01289400115322934 18 77 774 0 79 74 80 75 ?1 29 78 773 0 80 81 75 -
.00712741520178175 0 .00508 18 80 771 0 82 77 83 78 ?1 29 81 770 0 83 84 78 -.00
3827858413363035 0 .003175 18 83 768 0 85 80 86 81 ?1 29 84 767 0 86 87 81 .0038
2785841336303 0 .003175 18 86 765 0 88 83 89 84 ?1 29 87 764 0 89 90 84 .0071274
1520178175 0 .00508 18 89 762 0 91 86 92 87 ?1 29 90 761 0 92 93 87 .01565254248
21826 0 .01289400115322934 18 92 759 0 23 89 94 90 ?1 29 93 758 0 94 95 90 .0170
470992706013 0 .01809855794164805 18 94 756 0 96 92 97 93 ?1 29 95 755 0 97 98 9
3 .0248895567884187 0 .0108650230645877 18 97 753 0 99 94 100 95 ?1 29 98 752 0
 100 101 95 .02159 0 -2644012439359135e-33 18 100 750 0 102 97 103 98 ?1 29 101
 749 0 103 104 98 -.02159 0 2644012439359135e-33 18 103 747 0 105 100 106 101 ?1
 29 104 746 0 106 107 101 -.0254 0 .00896002306458773 18 106 744 0 108 103 109 1
04 ?1 29 107 743 0 109 110 104 -.0254 0 .00381 18 109 741 0 111 106 112 107 ?1 2
9 110 740 0 112 113 107 -.0248895567884187 0 .01086502306458772 18 112 738 0 114
 109 115 110 ?1 29 113 727 0 115 116 110 .0254 .00508 .00896002306458772 18 115
 725 0 117 112 118 113 ?1 29 116 724 0 118 119 113 .0254 .00508 .00381 18 118 72
2 0 120 115 121 116 ?1 29 119 721 0 121 122 116 .0254 0 .00896002306458772 18 12
1 719 0 123 118 124 119 ?1 29 122 718 0 124 125 119 .0254 0 .00381 18 124 716 0
 126 121 127 122 ?1 29 125 423 0 127 128 122 .00750662638811655 .00508 .03462314
170234485 18 127 421 0 129 124 130 125 ?1 29 128 127 0 131 132 125 .004124445985
5234 0 .04683125 18 131 114 0 133 134 135 128 ?1 29 132 128 0 135 136 128 -.0041
244459855234 0 .04683125 18 135 115 0 137 131 138 132 ?1 29 136 42 0 130 139 132
 .0041244459855234 .00508 .04683125 18 130 40 0 140 127 134 136 ?1 29 139 39 0 1
34 141 136 -.0041244459855234 .00508 .04683125 18 134 37 0 142 130 131 139 ?1 29
 141 649 0 143 144 139 -.00750662638811593 .00508 .0346231417023459 18 143 539 0
 145 146 147 141 ?1 29 144 651 0 147 148 141 -.0106045 .00508 .00997951246726059
 18 147 543 0 149 143 150 144 ?1 29 148 652 0 150 151 144 -.00907048753273941 .0
0508 .0084455 18 150 542 0 152 147 153 148 ?1 29 151 655 0 153 154 148 .00907048
753273941 .00508 .0084455 18 153 546 0 35 150 155 151 ?1 29 154 656 0 155 156 15
1 .0106045 .00508 .00997951246726059 18 155 548 0 157 153 0 154 ?1 29 156 659 0
 138 158 154 -.00750662638811593 0 .0346231417023459 18 138 551 0 159 135 160 15
6 ?1 29 158 661 0 160 161 156 -.0106045 0 .00997951246726059 18 160 540 0 162 13
8 163 158 ?1 29 161 662 0 163 164 158 -.00907048753273941 0 .0084455 18 163 552
 0 165 160 166 161 ?1 29 164 665 0 166 167 161 .00907048753273941 0 .0084455 18
 166 554 0 168 163 169 164 ?1 29 167 666 0 169 170 164 .0106045 0 .0099795124672
6059 18 169 555 0 171 166 146 167 ?1 29 170 668 0 146 0 167 .00750662638811654 0
 .03462314170234485 18 146 549 0 172 169 143 170 ?1 17 172 0 173 174 129 146 175
 176 0 177 -15 255 173 560 0 129 178 0 17 174 0 173 179 172 138 180 181 0 182 +1
7 129 0 173 172 179 127 183 184 0 175 -17 175 0 185 186 177 127 172 176 0 187 +1
6 176 470 0 ?175 188 189 190 0 0 1 17 177 0 185 175 96 146 191 192 0 180 -15 185
 596 0 186 193 0 17 96 0 185 177 186 94 29 194 0 191 +17 191 0 195 23 180 94 177
 192 0 196 +16 192 503 0 ?191 197 181 198 0 0 1 17 180 0 195 191 159 146 174 181
 0 0 -15 195 416 0 180 199 0 17 159 0 195 180 76 138 200 189 0 174 +16 181 507 0
 ?174 192 201 202 0 0 1 16 201 831 0 ?145 181 203 204 0 0 1 134 255 202 648 0 18
1 0 198 205 +206 207 30 255 198 647 0 192 202 208 0 +.0206222299276169 0 .011906
25 .5 0 -.86602540378444 141 255 205 209 205 205 202 136 255 206 3 5 3 3 4 FFF1
 210 211 212 135 255 207 2 0 45 255 15 210 .0117999076642539 0 .0271869604008907
5 .00915149818445331 0 .0317741401791523 461357799067724e-31 0 .0507758598208477
 -.00915149818445341 0 .0317741401791524 -.0117999076642539 0 .02718696040089075
 127 255 3 211 4 1 4 128 255 3 212 0 .5 1 67 255 209 607 0 178 213 214 0 +202 0
 1 0 .03681991685721295 14 255 178 557 215 ?216 217 173 5 209 +0 0 216 217 22 50
 255 213 608 0 193 218 209 0 +.0206222299276169 0 .01190625 .86602540378444 0 .5
 .5 0 -.86602540378444 51 214 357 0 217 209 219 0 +544355502220999e-32 .00508 .0
4445 0 1 0 .0015875 0 0 1 14 217 348 220 ?178 221 222 5 214 -0 0 178 221 22 51 2
19 302 0 221 214 223 0 +-.0127 .00508 .00635 0 1 0 .00245745 0 0 1 14 221 293 22
4 ?217 225 226 5 219 -0 0 217 225 22 51 223 258 0 225 219 227 0 +.0127 .00508 .0
0635 0 1 0 .00245745 0 0 1 14 225 249 228 ?221 229 230 5 223 -0 0 221 229 22 50
 227 3 0 16 223 231 0 +0 .00508 0 0 1 0 0 0 1 14 16 463 232 ?199 0 233 5 227 +0
 0 199 0 22 50 231 116 0 199 227 234 0 +0 0 0 0 1 0 0 0 1 14 199 418 235 ?236 16
 237 5 231 -0 0 236 16 22 50 234 147 0 229 231 238 0 +-.0254 .00508 0 1 0 0 0 0
 -1 14 229 136 239 ?225 240 241 5 234 -0 0 225 240 22 50 238 148 0 240 234 242 0
 +0 .00508 0 -1224646799147352e-31 0 -1 -1 0 1224646799147352e-31 14 240 138 243
 ?229 244 245 5 238 +0 0 229 244 22 50 242 149 0 244 238 246 0 +.0254 .00508 0 1
 0 0 0 0 -1 14 244 140 247 ?240 248 249 5 242 +0 0 240 248 22 50 246 150 0 248 2
42 250 0 +.0233718605846325 .00508 .01349375 .86602540378444 0 .5 .5 0 -.8660254
0378444 14 248 142 251 ?244 252 253 5 246 +0 0 244 252 22 51 250 151 0 252 246 2
54 0 -544355502220999e-32 .00508 .04445 0 -1 0 .0047625 0 0 -1 14 252 144 255 ?2
48 236 256 5 250 -0 0 248 236 22 50 254 152 0 236 250 257 0 +-.0233718605846325
 .00508 .01349375 .86602540378444 0 -.5 -.5 0 -.86602540378444 14 236 146 258 ?2
52 199 259 5 254 -0 0 252 199 22 51 257 1043 0 260 254 261 0 +.02159 .00508 .008
96002306458772 0 -1 0 .00381 0 0 -1 14 260 1031 262 ?263 193 264 5 257 +0 0 263
 193 22 51 261 1064 0 263 257 265 0 +.02159 .00508 .00381 0 -1 0 .00381 0 0 -1 1
4 263 1052 266 ?267 260 268 5 261 +0 0 267 260 22 51 265 1085 0 267 261 269 0 +-
.02159 .00508 .00381 0 1 0 .00381 0 0 1 14 267 1073 270 ?271 263 272 5 265 +0 0
 271 263 22 51 269 1106 0 271 265 273 0 +-.02159 .00508 .00896002306458773 0 -1
 0 .00381 0 0 -1 14 271 1094 274 ?275 267 276 5 269 +0 0 275 267 22 51 273 1127
 0 275 269 277 0 +.00382785841336303 0 .006985 0 1 0 .00381 0 0 1 14 275 1115 27
8 ?279 271 280 5 273 -0 0 279 271 22 51 277 1148 0 279 273 19 0 +-.0038278584133
63035 0 .006985 0 1 0 .00381 0 0 1 14 279 1136 281 ?282 275 283 5 277 -0 0 282 2
75 22 51 19 1169 0 282 277 6 0 +-.01374754248218258 0 .01619355794164805 0 -1 0
 .00381 0 0 -1 14 282 1157 284 ?18 279 285 5 19 -0 0 18 279 22 81 1 284 1402 286
 282 287 0 281 288 289 14 18 1178 288 ?0 282 27 5 6 -0 0 0 282 22 15 285 1158 0
 290 282 0 13 22 58 0 0 0 0 0 0 9 16 17 290 0 285 291 292 77 76 293 0 0 -17 291
 0 285 53 290 48 79 294 0 0 -17 292 0 285 290 53 74 295 296 0 0 -17 76 0 195 159
 297 74 290 293 0 200 +16 293 965 0 ?76 24 298 299 0 0 1 16 24 970 0 ?30 10 293
 20 0 0 1 16 298 960 0 ?50 293 300 301 0 0 1 31 299 985 0 293 301 20 0 +-.013747
54248218258 0 .01619355794164805 0 1 0 0 0 1 .00381 31 301 984 0 298 302 299 0 -
-.01374754248218258 .00508 .01619355794164805 0 1 0 0 0 1 .00381 31 20 986 0 24
 299 7 0 -.01374754248218258 .00508 .01619355794164805 0 1 0 0 0 1 .00381 31 302
 983 0 300 303 301 0 +-.003827858413363035 0 .006985 0 1 0 0 0 1 .00381 16 300 9
55 0 ?82 298 304 302 0 0 1 31 303 982 0 304 305 302 0 --.003827858413363035 .005
08 .006985 0 1 0 0 0 1 .00381 16 304 950 0 ?40 300 306 303 0 0 1 31 305 981 0 30
6 307 303 0 +.00382785841336303 0 .006985 0 1 0 0 0 1 .00381 16 306 945 0 ?88 30
4 38 305 0 0 1 31 307 980 0 38 308 305 0 -.00382785841336303 .00508 .006985 0 1
 0 0 0 1 .00381 16 38 940 0 ?32 306 194 307 0 0 1 30 308 937 0 194 309 307 0 -.0
170470992706013 0 .01809855794164805 0 1 0 16 194 935 0 ?96 38 310 308 0 0 1 30
 309 932 0 310 311 308 0 +.01565254248218255 0 .01289400115322934 0 1 0 16 310 9
30 0 ?31 194 294 309 0 0 1 30 311 927 0 294 312 309 0 --.01565254248218255 0 .01
289400115322934 0 1 0 16 294 925 0 ?79 310 296 311 0 0 1 30 312 922 0 296 313 31
1 0 +-.0170470992706013 .00508 .01809855794164805 0 1 0 16 296 920 0 ?295 294 31
4 312 0 0 1 30 313 917 0 314 315 312 0 +-.00712741520178175 0 .00508 0 1 0 16 31
4 915 0 ?316 296 317 313 0 0 1 30 315 912 0 317 318 313 0 -.00712741520178175 0
 .00508 0 1 0 16 317 910 0 ?91 314 319 315 0 0 1 30 318 907 0 319 320 315 0 +.00
382785841336303 0 .003175 0 1 0 16 319 905 0 ?321 317 322 318 0 0 1 30 320 902 0
 322 323 318 0 --.003827858413363035 0 .003175 0 1 0 16 322 900 0 ?85 319 324 32
0 0 0 1 30 323 897 0 324 325 320 0 +-.0248895567884187 .00508 .01086502306458772
 0 -1 0 16 324 895 0 ?326 322 327 323 0 0 1 30 325 892 0 327 328 323 0 +-.0254 0
 .00381 0 -1 0 16 327 890 0 ?329 324 330 325 0 0 1 30 328 887 0 330 331 325 0 --
.0254 .00508 .00896002306458773 0 -1 0 16 330 885 0 ?58 327 332 328 0 0 1 30 331
 882 0 332 333 328 0 +.02159 .00508 -2644012439359135e-33 0 -1 0 16 332 880 0 ?3
34 330 335 331 0 0 1 30 333 877 0 335 336 331 0 --.02159 .00508 260208521396521e
-32 0 -1 0 16 335 875 0 ?67 332 337 333 0 0 1 31 336 871 0 337 338 333 0 +.02159
 .00508 .00896002306458772 0 1 0 0 0 1 .00381 16 337 869 0 ?117 335 339 336 0 0
 1 31 338 865 0 339 340 336 0 +.02159 .00508 .00381 0 1 0 0 0 1 .00381 16 339 86
3 0 ?64 337 341 338 0 0 1 31 340 859 0 341 342 338 0 +-.02159 .00508 .00381 0 1
 0 0 0 1 .00381 16 341 857 0 ?61 339 343 340 0 0 1 31 342 853 0 343 344 340 0 +-
.02159 .00508 .00896002306458773 0 1 0 0 0 1 .00381 16 343 851 0 ?70 341 345 342
 0 0 1 30 344 809 0 345 346 342 0 -.0248895567884187 .00508 .0108650230645877 0
 -1 0 16 345 807 0 ?73 343 347 344 0 0 1 31 346 800 0 347 348 344 0 -.02159 0 .0
0896002306458772 0 1 0 0 0 1 .00381 16 347 798 0 ?99 345 349 346 0 0 1 31 348 79
4 0 349 350 346 0 -.02159 0 .00381 0 1 0 0 0 1 .00381 16 349 792 0 ?126 347 351
 348 0 0 1 31 350 788 0 351 352 348 0 --.02159 0 .00381 0 1 0 0 0 1 .00381 16 35
1 786 0 ?105 349 353 350 0 0 1 31 352 782 0 353 354 350 0 --.02159 0 .0089600230
6458773 0 1 0 0 0 1 .00381 16 353 780 0 ?108 351 355 352 0 0 1 30 354 735 0 355
 356 352 0 +.0254 .00508 .00896002306458772 0 -1 0 16 355 733 0 ?357 353 358 354
 0 0 1 30 356 730 0 358 359 354 0 -.0254 .00508 .00381 0 -1 0 16 358 728 0 ?120
 355 360 356 0 0 1 30 359 158 0 360 361 356 0 +-.0041244459855234 .00508 .046831
25 0 -1 0 16 360 134 0 ?362 358 363 359 0 0 1 30 361 157 0 363 364 359 0 +.00412
44459855234 .00508 .04683125 0 -1 0 16 363 133 0 ?365 360 366 361 0 0 1 30 364 1
17 0 367 368 361 0 +-.0254 0 0 0 0 1 16 367 742 0 ?369 370 371 364 0 0 1 30 368
 118 0 371 372 364 0 +0 0 0 1 0 -1224646799147352e-31 16 371 748 0 ?373 367 374
 368 0 0 1 30 372 119 0 374 375 368 0 +.0254 0 0 0 0 1 16 374 717 0 ?376 371 377
 372 0 0 1 30 375 120 0 377 378 372 0 +.0233718605846325 0 .01349375 -.5 0 .8660
2540378444 16 377 754 0 ?133 374 379 375 0 0 1 31 378 121 0 379 380 375 0 +54435
5502220999e-32 0 .04445 0 1 0 0 0 1 .0047625 16 379 100 0 ?381 377 382 378 0 0 1
 30 380 122 0 382 383 378 0 +-.0233718605846325 0 .01349375 .5 0 .86602540378444
 16 382 739 0 ?137 379 384 380 0 0 1 30 383 33 0 366 385 380 0 +-.0254 .00508 0
 0 0 1 16 366 822 0 ?386 363 387 383 0 0 1 30 385 28 0 387 388 383 0 +0 .00508 0
 1 0 -1224646799147352e-31 16 387 816 0 ?389 366 390 385 0 0 1 30 388 22 0 390 3
91 385 0 +.0254 .00508 0 0 0 1 16 390 723 0 ?392 387 393 388 0 0 1 30 391 17 0 3
93 394 388 0 +.0233718605846325 .00508 .01349375 -.5 0 .86602540378444 16 393 80
5 0 ?140 390 395 391 0 0 1 31 394 12 0 395 396 391 0 +544355502220999e-32 .00508
 .04445 0 1 0 0 0 1 .0047625 16 395 10 0 ?397 393 370 394 0 0 1 30 396 7 0 370 3
98 394 0 +-.0233718605846325 .00508 .01349375 .5 0 .86602540378444 16 370 813 0
 ?142 395 367 396 0 0 1 31 398 259 0 384 399 396 0 +.0127 0 .00635 0 1 0 0 0 1 .
00245745 16 384 240 0 ?400 382 401 398 0 0 1 31 399 260 0 401 402 398 0 +.0127 .
00508 .00635 0 1 0 0 0 1 .00245745 16 401 239 0 ?403 384 404 399 0 0 1 31 402 30
3 0 404 405 399 0 +-.0127 0 .00635 0 1 0 0 0 1 .00245745 16 404 284 0 ?406 401 4
07 402 0 0 1 31 405 304 0 407 408 402 0 +-.0127 .00508 .00635 0 1 0 0 0 1 .00245
745 16 407 283 0 ?409 404 410 405 0 0 1 31 408 358 0 410 411 405 0 +544355502220
999e-32 0 .04445 0 1 0 0 0 1 .0015875 16 410 339 0 ?412 407 413 408 0 0 1 31 411
 359 0 413 190 408 0 +544355502220999e-32 .00508 .04445 0 1 0 0 0 1 .0015875 16
 413 338 0 ?414 410 415 411 0 0 1 30 190 619 0 176 416 411 0 +.00750662638811654
 0 .03462314170234485 0 1 0 30 416 621 0 188 417 190 0 +.0106045 0 .009979512467
26059 0 1 0 16 188 502 0 ?157 418 176 416 0 0 1 30 417 622 0 418 419 416 0 +.009
07048753273941 0 .0084455 0 1 0 16 418 498 0 ?420 421 188 417 0 0 1 30 419 625 0
 421 422 417 0 +-.00907048753273941 0 .0084455 0 1 0 16 421 486 0 ?152 423 418 4
19 0 0 1 30 422 626 0 423 424 419 0 +-.0106045 0 .00997951246726059 0 1 0 16 423
 482 0 ?149 415 421 422 0 0 1 30 424 628 0 415 204 422 0 +-.00750662638811593 0
 .0346231417023459 0 1 0 16 415 474 0 ?179 413 423 424 0 0 1 30 204 629 0 201 42
5 424 0 +-.0206222299276169 .00508 .01190625 .5 0 .86602540378444 30 425 630 0 2
03 426 204 0 +.001670130657015605 .00508 .00289275115322944 -.86602540378444 0 .
5 16 203 531 0 ?427 201 428 425 0 0 1 31 426 631 0 428 429 425 0 +-.0127 .00508
 .00635 0 1 0 0 0 1 .004191 16 428 479 0 ?430 203 431 426 0 0 1 30 429 632 0 431
 432 426 0 +-.00314585687572386 .00508 -.001816261314031195 .5 0 -.8660254037844
4 16 431 483 0 ?433 428 434 429 0 0 1 30 432 633 0 434 435 429 0 +37172645913788
7e-33 .00508 .003175 -1 0 1170791997284684e-31 16 434 840 0 ?436 431 437 432 0 0
 1 30 435 634 0 437 438 432 0 +.003145856875723855 .00508 -.00181626131403119 .5
 0 .86602540378444 16 437 846 0 ?35 434 439 435 0 0 1 31 438 635 0 439 440 435 0
 +.0127 .00508 .00635 0 1 0 0 0 1 .004191 16 439 495 0 ?441 437 442 438 0 0 1 30
 440 636 0 442 443 438 0 +-.00167013065701561 .00508 .002892751153229445 .866025
40378444 0 .5 16 442 499 0 ?444 439 445 440 0 0 1 30 443 637 0 445 446 440 0 +.0
206222299276169 .00508 .01190625 .5 0 -.86602540378444 16 445 525 0 ?186 442 184
 443 0 0 1 134 446 638 0 184 447 443 0 +448 449 16 184 467 0 ?183 445 0 446 0 0
 1 30 447 639 0 189 450 446 0 +-.0206222299276169 0 .01190625 .5 0 .866025403784
44 136 448 3 5 3 3 4 FFF1 451 452 453 135 449 2 0 45 15 451 .0117999076642539 .0
0508 .02718696040089075 .00915149818445331 .00508 .0317741401791523 461357799067
724e-31 .00508 .0507758598208477 -.00915149818445341 .00508 .0317741401791524 -.
0117999076642539 .00508 .02718696040089075 127 3 452 4 1 4 128 3 453 0 .5 1 16 1
89 778 0 ?159 176 454 447 0 0 1 30 450 640 0 454 455 447 0 +.001670130657015605
 0 .00289275115322944 -.86602540378444 0 .5 16 454 475 0 ?297 189 456 450 0 0 1
 31 455 641 0 456 457 450 0 +-.0127 0 .00635 0 1 0 0 0 1 .004191 16 456 510 0 ?1
65 454 458 455 0 0 1 30 457 642 0 458 459 455 0 +-.00314585687572386 0 -.0018162
61314031195 .5 0 -.86602540378444 16 458 513 0 ?460 456 461 457 0 0 1 30 459 643
 0 461 462 457 0 +371726459137887e-33 0 .003175 -1 0 1170791997284684e-31 16 461
 766 0 ?463 458 464 459 0 0 1 30 462 644 0 464 465 459 0 +.003145856875723855 0
 -.00181626131403119 .5 0 .86602540378444 16 464 763 0 ?168 461 466 462 0 0 1 31
 465 645 0 466 208 462 0 +.0127 0 .00635 0 1 0 0 0 1 .004191 16 466 519 0 ?171 4
64 197 465 0 0 1 30 208 646 0 197 198 465 0 +-.00167013065701561 0 .002892751153
229445 .86602540378444 0 .5 16 197 522 0 ?467 466 192 208 0 0 1 17 467 0 468 31
 469 92 470 197 0 28 +15 468 592 0 467 471 0 17 31 0 468 472 467 11 28 310 0 444
 +17 469 0 468 467 472 169 157 188 0 470 -17 470 0 195 473 23 169 467 197 0 0 -1
7 28 0 27 196 25 92 31 310 0 0 -15 27 1179 0 196 18 0 17 196 0 27 29 28 94 23 10
 0 0 -17 29 0 27 25 196 54 96 194 0 0 -17 23 0 195 470 191 92 196 10 0 467 +17 4
73 0 195 474 470 166 171 466 0 0 -17 474 0 195 88 473 89 168 464 0 475 -17 171 0
 476 157 477 169 473 466 0 469 +15 476 588 0 478 479 0 17 157 0 476 478 171 155
 469 188 0 472 +17 477 0 476 171 478 166 420 418 0 473 -17 478 0 476 477 157 153
 441 439 0 0 -17 420 0 480 39 168 153 477 418 0 478 +15 480 584 0 39 481 0 17 39
 0 480 91 420 26 35 437 0 482 -17 168 0 480 420 91 166 474 464 0 477 +17 91 0 48
0 168 39 89 482 317 0 474 +17 482 0 280 37 475 26 91 317 0 0 -15 280 1116 0 475
 275 0 17 37 0 280 483 482 41 32 38 0 321 -17 475 0 280 482 483 89 88 306 0 0 -1
7 483 0 280 475 37 86 321 319 0 0 -17 88 0 195 463 474 86 475 306 0 484 +17 463
 0 195 82 88 83 484 461 0 485 +17 484 0 486 321 85 86 463 461 0 483 -15 486 580
 0 484 487 0 17 321 0 486 436 484 41 483 319 0 36 +17 85 0 486 484 436 83 488 32
2 0 463 +17 436 0 486 85 321 33 36 434 0 488 +17 488 0 283 47 485 33 85 322 0 0
 -15 283 1137 0 485 279 0 17 47 0 283 489 488 45 40 304 0 316 -17 485 0 283 488
 489 83 82 300 0 0 -17 489 0 283 485 47 80 316 314 0 0 -17 82 0 195 490 463 80 4
85 300 0 460 +17 490 0 195 491 82 163 460 458 0 0 -17 460 0 492 316 493 80 490 4
58 0 489 +15 492 576 0 460 494 0 17 316 0 492 495 460 45 489 314 0 433 +17 493 0
 492 460 495 163 152 421 0 490 -17 495 0 492 493 316 150 433 431 0 430 -17 152 0
 496 497 165 150 493 421 0 495 +15 496 572 0 497 498 0 17 497 0 496 162 152 147
 430 428 0 499 -17 165 0 496 152 162 163 491 456 0 493 +17 162 0 496 165 497 160
 149 423 0 500 -17 491 0 195 297 490 160 165 456 0 0 -17 297 0 195 76 491 77 500
 454 0 290 +17 500 0 501 149 79 160 297 454 0 491 -15 501 568 0 427 502 0 17 149
 0 501 427 500 147 162 423 0 497 +17 79 0 501 500 427 77 291 294 0 297 +17 427 0
 501 79 149 48 499 203 0 291 +17 499 0 34 430 50 147 427 203 0 0 -15 34 422 0 18
7 16 0 17 430 0 34 433 499 150 497 428 0 0 +17 50 0 34 499 503 48 53 298 0 427 +
17 503 0 34 50 183 51 145 201 0 0 -17 53 0 285 292 291 51 50 298 0 295 -17 295 0
 504 145 200 51 292 296 0 503 +15 504 564 0 200 216 0 17 145 0 504 182 295 143 5
03 201 0 179 +17 200 0 504 295 182 74 159 189 0 292 -17 182 0 504 200 145 138 17
9 415 0 0 -17 179 0 173 129 174 143 182 415 0 183 +17 183 0 34 503 187 143 129 1
84 0 0 +17 187 0 34 183 30 127 186 445 0 0 -17 30 0 34 187 444 54 25 24 0 186 +1
7 186 0 185 96 175 54 187 445 0 29 +17 444 0 34 30 441 11 472 442 0 0 +17 441 0
 34 444 35 155 478 439 0 0 +17 472 0 468 469 31 155 444 442 0 441 -17 35 0 34 44
1 32 153 39 437 0 420 +14 216 561 505 ?502 178 504 5 506 -0 0 502 178 22 81 1 50
5 1404 286 216 507 0 288 508 509 14 502 565 508 ?498 216 501 5 510 -0 0 498 216
 22 50 506 616 0 216 0 510 0 +-.0206222299276169 0 .01190625 -.86602540378444 0
 .5 .5 0 .86602540378444 50 510 615 0 502 506 511 0 +.001670130657015605 0 .0028
9275115322944 -.5 0 -.86602540378444 -.86602540378444 0 .5 51 511 614 0 498 510
 512 0 +-.0127 0 .00635 0 1 0 .004191 0 0 1 14 498 569 513 ?494 502 496 5 511 +0
 0 494 502 22 50 512 613 0 494 511 514 0 +-.00314585687572386 0 -.00181626131403
1195 .86602540378444 0 .5 .5 0 -.86602540378444 14 494 573 515 ?487 498 492 5 51
2 +0 0 487 498 22 50 514 612 0 487 512 516 0 +371726459137887e-33 0 .003175 -117
0791997284684e-31 0 -1 -1 0 1170791997284684e-31 14 487 577 517 ?481 494 486 5 5
14 -0 0 481 494 22 50 516 611 0 481 514 518 0 +.003145856875723855 0 -.001816261
31403119 -.86602540378444 0 .5 .5 0 .86602540378444 14 481 581 519 ?479 487 480
 5 516 +0 0 479 487 22 51 518 610 0 479 516 218 0 +.0127 0 .00635 0 1 0 .004191
 0 0 1 14 479 585 520 ?471 481 476 5 518 +0 0 471 481 22 50 218 609 0 471 518 21
3 0 +-.00167013065701561 0 .002892751153229445 -.5 0 .86602540378444 .8660254037
8444 0 .5 14 471 589 521 ?193 479 468 5 218 +0 0 193 479 22 81 1 521 1411 286 47
1 522 0 520 523 524 14 193 593 523 ?260 471 185 5 213 -0 0 260 471 22 81 1 523 1
412 286 193 525 0 521 0 526 80 255 1 286 527 528 9000 1 1 1 1 1 1 1 1 0 FFFFTFTF
FFFFFF1 81 1 525 1312 529 193 0 523 522 530 531 82 255 1 526 -1089010956 80 1 52
9 0 532 8001 0 0 0 0 3 5 0 0 0 FFFFTFTFFFFFFF2 81 1 522 1311 529 471 0 521 533 5
25 534 81 1 530 1313 529 260 0 262 525 535 536 83 255 3 531 .494117647058824 .49
4117647058824 .494117647058824 81 1 262 1396 286 260 530 0 258 266 537 81 1 535
 1314 529 263 0 266 530 538 539 83 3 536 .494117647058824 .494117647058824 .4941
17647058824 81 1 266 1397 286 263 535 0 262 270 540 81 1 538 1315 529 267 0 270
 535 541 542 83 3 539 .494117647058824 .494117647058824 .494117647058824 81 1 27
0 1398 286 267 538 0 266 274 543 81 1 541 1316 529 271 0 274 538 544 545 83 3 54
2 .494117647058824 .494117647058824 .494117647058824 81 1 274 1399 286 271 541 0
 270 278 546 81 1 544 1317 529 275 0 278 541 547 548 83 3 545 .494117647058824 .
494117647058824 .494117647058824 81 1 278 1400 286 275 544 0 274 281 549 81 1 54
7 1318 529 279 0 281 544 287 550 83 3 548 .494117647058824 .494117647058824 .494
117647058824 81 1 281 1401 286 279 547 0 278 284 551 81 1 287 1319 529 282 0 284
 547 552 553 83 3 550 .494117647058824 .494117647058824 .494117647058824 81 1 55
2 1320 529 18 0 288 287 0 554 83 3 553 .494117647058824 .494117647058824 .494117
647058824 81 1 288 1403 286 18 552 0 284 505 555 83 3 554 .494117647058824 .4941
17647058824 .494117647058824 82 1 555 -391707916 82 1 551 -395640076 82 1 549 -3
97606156 82 1 546 -399572236 82 1 543 -401538316 82 1 540 -403504396 81 1 258 13
95 286 236 556 0 255 262 557 82 1 537 -405470476 81 1 556 1294 529 236 0 258 558
 559 560 81 1 255 1394 286 252 559 0 251 258 561 82 1 557 -892534028 81 1 559 12
95 529 252 0 255 556 562 563 81 1 251 1393 286 248 562 0 247 255 564 82 1 561 -8
92861793 81 1 562 1296 529 248 0 251 559 565 566 81 1 247 1392 286 244 565 0 243
 251 567 82 1 564 -892992780 81 1 565 1297 529 244 0 247 562 568 569 81 1 243 13
91 286 240 568 0 239 247 570 82 1 567 -893123852 81 1 568 1298 529 240 0 243 565
 571 572 81 1 239 1390 286 229 571 0 235 243 573 82 1 570 -893320460 81 1 571 12
99 529 229 0 239 568 574 575 81 1 235 1389 286 199 558 0 232 239 576 82 1 573 -8
93582604 81 1 558 1293 529 199 0 235 577 556 578 81 1 232 1388 286 16 577 0 228
 235 579 82 1 576 -1079770380 81 1 577 1292 529 16 0 232 0 558 580 81 1 228 1387
 286 225 574 0 224 232 581 82 1 579 -1075510540 81 1 574 1300 529 225 0 228 571
 582 583 81 1 224 1386 286 221 582 0 220 228 584 82 1 581 -856751456 81 1 582 13
01 529 221 0 224 574 585 586 81 1 220 1385 286 217 585 0 215 224 587 82 1 584 -8
72742240 81 1 585 1302 529 217 0 220 582 588 589 81 1 215 1384 286 178 588 0 0 2
20 590 82 1 587 56427203 81 1 588 1303 529 178 0 215 585 507 591 82 1 590 -10888
14352 81 1 507 1304 529 216 0 505 588 592 593 83 3 591 .494117647058824 .4941176
47058824 .494117647058824 81 1 592 1305 529 502 0 508 507 594 595 83 3 593 .4941
17647058824 .494117647058824 .494117647058824 81 1 508 1405 286 502 592 0 505 51
3 596 81 1 594 1306 529 498 0 513 592 597 598 83 3 595 .494117647058824 .4941176
47058824 .494117647058824 81 1 513 1406 286 498 594 0 508 515 599 81 1 597 1307
 529 494 0 515 594 600 601 83 3 598 .494117647058824 .494117647058824 .494117647
058824 81 1 515 1407 286 494 597 0 513 517 602 81 1 600 1308 529 487 0 517 597 6
03 604 83 3 601 .494117647058824 .494117647058824 .494117647058824 81 1 517 1408
 286 487 600 0 515 519 605 81 1 603 1309 529 481 0 519 600 533 606 83 3 604 .494
117647058824 .494117647058824 .494117647058824 81 1 519 1409 286 481 603 0 517 5
20 607 81 1 533 1310 529 479 0 520 603 522 608 83 3 606 .494117647058824 .494117
647058824 .494117647058824 81 1 520 1410 286 479 533 0 519 521 609 83 3 608 .494
117647058824 .494117647058824 .494117647058824 82 1 609 -1089535248 82 1 607 -10
89862924 82 1 605 -1090059532 82 1 602 -1090321676 82 1 599 -1090649360 82 1 596
 -1090780428 83 3 589 .494117647058824 .494117647058824 .494117647058824 83 3 58
6 .494117647058824 .494117647058824 .494117647058824 83 3 583 .494117647058824 .
494117647058824 .494117647058824 83 3 580 .494117647058824 .494117647058824 .494
117647058824 83 3 578 .494117647058824 .494117647058824 .494117647058824 83 3 57
5 .494117647058824 .494117647058824 .494117647058824 83 3 572 .494117647058824 .
494117647058824 .494117647058824 83 3 569 .494117647058824 .494117647058824 .494
117647058824 83 3 566 .494117647058824 .494117647058824 .494117647058824 83 3 56
3 .494117647058824 .494117647058824 .494117647058824 83 3 560 .494117647058824 .
494117647058824 .494117647058824 83 3 534 .494117647058824 .494117647058824 .494
117647058824 79 255 15 532 SDL/TYSA_COLOUR79 14 528 SWEntUnchanged82 1 524 -1089
273100 82 1 509 -1090911500 17 433 0 34 40 430 45 495 431 0 0 +17 40 0 34 36 433
 33 47 304 0 436 +17 36 0 34 32 40 41 436 434 0 0 -17 414 0 610 414 414 0 611 41
3 0 0 +15 610 352 0 414 217 0 17 611 0 233 611 611 0 414 413 0 0 -15 233 322 0 6
11 16 612 15 612 264 0 613 16 614 17 613 0 612 613 613 0 409 407 0 0 -15 614 230
 0 615 16 616 17 615 0 614 615 615 0 403 401 0 0 -15 616 4 0 617 16 34 17 617 0
 616 117 397 71 140 393 0 618 -17 117 0 616 619 617 115 618 337 0 392 +17 397 0
 616 617 142 130 620 395 0 621 +17 140 0 253 365 73 130 617 393 0 397 +17 618 0
 264 622 623 71 117 337 0 0 -15 264 1032 0 618 260 0 17 622 0 264 123 618 97 73
 345 0 0 -17 623 0 264 618 123 115 357 355 0 0 -17 123 0 264 623 622 121 99 347
 0 357 -17 357 0 249 624 392 121 623 355 0 376 +15 249 139 0 392 244 0 17 624 0
 249 120 357 124 376 374 0 625 -17 392 0 249 357 120 115 619 390 0 623 +17 376 0
 237 99 126 121 624 374 0 0 +15 237 77 0 376 199 626 17 99 0 237 133 376 97 123
 347 0 627 +17 126 0 237 376 373 124 102 349 0 624 +17 373 0 237 126 105 100 628
 371 0 0 +17 102 0 268 629 625 100 126 349 0 334 -15 268 1053 0 630 263 0 17 629
 0 268 630 102 62 334 332 0 0 -17 625 0 268 102 630 124 120 358 0 0 -17 334 0 24
5 628 389 100 629 332 0 373 +15 245 137 0 389 240 0 17 628 0 245 67 334 103 373
 371 0 631 -17 389 0 245 334 67 62 632 387 0 629 +17 67 0 245 389 628 65 631 335
 0 632 +17 632 0 616 61 64 65 389 387 0 633 -17 61 0 616 386 632 59 633 341 0 63
4 +17 64 0 616 632 619 62 630 339 0 389 +17 633 0 272 631 635 65 61 341 0 0 -15
 272 1074 0 633 267 0 17 631 0 272 111 633 103 67 335 0 0 -17 635 0 272 633 111
 59 329 327 0 0 -17 111 0 272 635 631 109 105 351 0 329 -17 329 0 241 369 634 10
9 635 327 0 636 +15 241 135 0 634 229 0 17 369 0 241 58 329 106 636 367 0 637 +1
7 634 0 241 329 58 59 386 366 0 635 -17 636 0 237 105 108 109 369 367 0 0 -17 10
5 0 237 373 636 103 111 351 0 628 +17 108 0 237 636 638 106 114 353 0 369 +17 63
8 0 237 108 639 112 137 382 0 0 -17 114 0 276 640 637 112 108 353 0 326 -15 276
 1095 0 641 271 0 17 640 0 276 641 114 68 326 324 0 0 -17 637 0 276 114 641 106
 58 330 0 0 -17 326 0 259 137 642 112 640 324 0 638 +15 259 145 0 642 236 0 17 1
37 0 259 643 326 135 638 382 0 639 +17 642 0 259 326 643 68 142 370 0 640 -17 64
3 0 259 642 137 134 362 360 0 0 -17 142 0 616 397 70 134 642 370 0 620 +17 70 0
 616 142 386 68 641 343 0 642 +17 620 0 256 362 621 134 397 395 0 643 -15 256 14
3 0 381 252 0 17 362 0 256 381 620 135 643 360 0 0 +17 621 0 256 620 381 130 365
 363 0 0 -17 381 0 256 621 362 131 639 379 0 0 +17 365 0 253 627 140 131 621 363
 0 381 +15 253 141 0 627 248 0 17 627 0 253 73 365 97 133 377 0 622 -17 73 0 253
 140 627 71 622 345 0 617 +17 133 0 237 639 99 131 627 377 0 365 +17 639 0 237 6
38 133 135 381 379 0 362 -17 386 0 616 70 61 56 634 366 0 641 +17 641 0 276 637
 640 56 70 343 0 0 -17 58 0 241 634 369 56 637 330 0 386 +17 619 0 616 64 117 11
8 392 390 0 630 -17 630 0 268 625 629 118 64 339 0 0 -17 120 0 249 392 624 118 6
25 358 0 619 +15 626 219 0 400 199 644 17 400 0 626 400 400 0 645 384 0 0 +15 64
4 273 0 406 199 646 17 406 0 644 406 406 0 647 404 0 0 +15 646 330 0 412 199 195
 17 412 0 646 412 412 0 648 410 0 0 +17 648 0 222 648 648 0 412 410 0 0 -15 222
 351 0 648 217 610 17 647 0 226 647 647 0 406 404 0 0 -15 226 296 0 647 221 649
 15 649 297 0 409 221 0 17 409 0 649 409 409 0 613 407 0 0 +17 645 0 230 645 645
 0 400 384 0 0 -15 230 252 0 645 225 650 15 650 253 0 403 225 0 17 403 0 650 403
 403 0 615 401 0 0 +82 1 289 -393673996 19 17 160 0 1 0 9 5 S0 74 4 CI16 index_m
ap_offset0 0 1 dCCZ20 15 10 0 0 651 652 653 523 654 655 656 552 13 2 0 0 0 0 0 0
 0 0 0 0 81 2 651 55 657 1 0 652 0 0 0 658 81 5 652 56 659 1 651 653 0 0 660 0 0
 0 0 81 2 653 199 661 1 652 654 0 0 0 662 81 1 654 1234 663 1 653 655 0 0 664 81
 2 655 1284 665 1 654 656 0 0 0 666 81 2 656 1287 667 1 655 13 0 0 0 0 81 2 13 1
382 668 1 656 2 0 0 669 0 80 2 668 670 671 8004 0 0 0 0 3 5 0 0 0 FFTFFFFFFFFFFF
2 3 83 1 669 1020 79 16 671 SDL/TYSA_DENSITY80 2 667 672 673 9000 0 0 0 0 3 5 0
 0 0 FFTFFFFFFFFFFF9 1 79 16 673 BODY_RECIPE_200180 2 665 674 675 9000 0 0 0 0 3
 5 0 0 0 FFTFFFFFFFFFFF9 1 82 1 666 1 79 24 675 BODY_IN_LIGHTWEIGHT_PERM80 1 663
 676 677 9000 1 1 1 1 1 1 1 1 0 FFTFFFFFFFFFFF1 82 1 664 6736409 79 10 677 BODY_
MATCH80 2 661 678 679 9000 0 0 0 0 3 5 0 0 0 FFTFFFFFFFFFFF9 1 82 1 662 258 79 3
0 679 LAST_BODY_MODIFYING_FEATURE_ID80 5 659 680 681 9000 0 0 0 0 3 6 0 0 0 FFTT
TTTTFTTFTT2 2 2 2 2 83 1 660 1 79 19 681 BODY_SCALING_FACTOR80 2 657 682 683 900
0 0 0 0 0 3 5 0 0 0 FFTFFFFFFFFFFT9 1 82 1 658 915 79 19 683 ENT_TIME_STAMP_2001
80 2 12 684 685 9000 0 0 0 0 3 5 0 0 0 FFTFFFFFFFFFFF9 1 82 1 14 104 79 12 685 A
TOM_ID_20011 0 
