**ABCDEFGHIJKLMNOPQRSTUVWXYZabcdefghijklmnopqrstuvwxyz**************************
**PARASOLID !"#$%&'()*+,-./:;<=>?@[\]^_`{|}~0123456789**************************
**PART1;
MC=AMD64;
MC_MODEL=Intel64 Family 6 Model 158 Stepping 9, GenuineIntel;
MC_ID=unknown;
OS=Windows_NT;
OS_RELEASE=unknown;
FRU=Parasolid Version 33.1, build 260,  4-25-2022;
APPL=SOLIDWORKS 2022-2022207;
SITE=;
USER=unknown;
FORMAT=text;
GUISE=transmit;
KEY=FILEEGR346_P005_LinkPin_para.x_t;
DATE=Fri Sep  2 13:09:12 2022;
**PART2;
SCH=SCH_3301260_33103;
USFLD_SIZE=0;
**PART3;
**END_OF_HEADER*****************************************************************
T51 : TRANSMIT FILE created by modeller version 330126023 SCH_3301260_33103_1300
6230 0 12 35 CCCI7 lattice222 0 CCCI4 mesh1006 0 I8 polyline1008 0 CCCCCCCDI5 ow
ner1040 0 CCCCCCI13 boundary_mesh1006 0 I17 boundary_polyline1008 0 CCCA16 index
_map_offset0 0 1 dA9 index_map82 0 A17 node_id_index_map82 0 A20 schema_embeddin
g_map82 0 A5 child12 0 A14 lowest_node_id0 0 1 dA16 mesh_offset_data206 0 Z1 468
 2 3 0 0 0 0 0 0 0 1e3 1e-8 0 4 0 1 0 1 1 5 6 7 8 0 0 9 10 11 0 0 0 0 0 0 0 81 2
55 2 2 459 12 1 13 0 0 0 0 14 70 11 CI9 list_type0 0 1 uI10 notransmit0 0 1 lCCC
DCCDI12 finger_index0 0 1 dI12 finger_block1012 0 CZ3 0 4 T1 0 0 9 20 1 15 15 13
 255 5 62 0 1 0 16 0 0 17 0 50 255 6 115 0 16 18 0 0 +1360888755552496e-33 .0047
625 0 0 -1 0 0 0 -1 31 255 7 121 0 10 19 0 0 +1360888755552496e-33 .0047625 0 0
 1 0 0 0 1 .003175 29 255 8 359 0 11 0 0 -216840434497101e-33 .0037973 0 19 8 CC
CCCCCA5 owner12 0 Z9 66 0 1 17 0 20 V0 16 255 10 95 0 ?21 0 22 7 0 0 1 18 255 11
 337 0 23 0 0 8 ?1 17 255 23 0 24 23 23 11 0 0 0 0 ?15 255 24 345 0 23 25 26 14
 255 25 342 27 ?28 29 24 5 30 -0 0 28 29 20 15 26 346 0 31 25 0 17 31 0 26 31 31
 0 32 33 0 0 +17 32 0 34 32 32 0 31 33 0 0 -16 33 336 0 ?31 35 36 37 0 0 1 16 35
 70 0 ?38 39 33 40 0 0 1 16 36 335 0 ?41 33 0 42 0 0 1 31 37 357 0 33 42 40 0 +0
 .00475116623270625 0 0 1 0 0 0 1 .0015875 31 42 358 0 36 0 37 0 +0 .0047625 0 0
 1 0 0 0 1 .0015875 31 40 116 0 35 37 43 0 +1360888755552496e-33 -.0047625 0 0 1
 0 0 0 1 .003175 31 43 117 0 39 40 44 0 +1360888755552496e-33 -79375e-8 0 0 1 0
 0 0 1 .003175 16 39 75 0 ?45 46 35 43 0 0 1 31 44 118 0 46 43 47 0 +13608887555
52496e-33 -79375e-8 0 0 1 0 0 0 1 .00635 16 46 80 0 ?48 49 39 44 0 0 1 31 47 119
 0 49 44 19 0 +1360888755552496e-33 79375e-8 0 0 1 0 0 0 1 .00635 16 49 85 0 ?50
 22 46 47 0 0 1 31 19 120 0 22 47 7 0 +1360888755552496e-33 79375e-8 0 0 1 0 0 0
 1 .003175 16 22 90 0 ?51 10 49 19 0 0 1 17 51 0 52 51 51 0 53 22 0 0 +15 52 97
 0 51 54 0 17 53 0 55 53 53 0 51 22 0 0 -15 55 152 0 53 56 57 14 56 93 58 ?59 54
 55 5 60 -0 0 59 54 20 15 57 92 0 50 56 0 17 50 0 57 50 50 0 61 49 0 0 +17 61 0
 62 61 61 0 50 49 0 0 -15 62 153 0 61 59 63 14 59 88 64 ?65 56 62 5 66 -0 0 65 5
6 20 15 63 87 0 48 59 0 17 48 0 63 48 48 0 67 46 0 0 +17 67 0 68 67 67 0 48 46 0
 0 -15 68 154 0 67 65 69 14 65 83 70 ?71 59 68 5 72 -0 0 71 59 20 15 69 82 0 45
 65 0 17 45 0 69 45 45 0 73 39 0 0 +17 73 0 74 73 73 0 45 39 0 0 -15 74 155 0 73
 71 75 14 71 78 76 ?29 65 74 5 77 -0 0 29 65 20 15 75 77 0 38 71 0 17 38 0 75 38
 38 0 78 35 0 0 +17 78 0 79 78 78 0 38 35 0 0 -15 79 156 0 78 29 0 14 29 73 80 ?
25 71 79 5 81 -0 0 25 71 20 81 1 80 465 82 29 83 0 76 84 85 50 81 109 0 29 30 77
 0 +.003175 -.0047625 0 0 1 0 0 0 1 13 20 65 0 0 0 0 0 0 9 16 14 16 103 84 ?54 0
 86 5 6 -0 0 54 0 20 81 1 84 466 82 16 87 0 80 88 89 14 54 98 88 ?56 16 90 5 18
 -0 0 56 16 20 15 86 326 0 91 16 92 17 91 0 86 91 91 0 41 36 0 0 -15 92 102 0 21
 16 0 17 21 0 92 21 21 0 93 10 0 0 +17 93 0 90 93 93 0 21 10 0 0 -15 90 151 0 93
 54 52 17 41 0 94 41 41 0 91 36 0 0 +15 94 351 0 41 28 0 14 28 347 95 ?0 25 34 5
 96 -0 0 0 25 20 81 1 95 468 82 28 97 0 88 0 98 15 34 350 0 32 28 94 51 255 96 3
56 0 28 0 30 0 +0 .0047625 0 0 1 0 .0015875 0 0 1 52 255 30 355 0 25 96 81 0 +0
 .00475116623270625 0 0 1 0 .0015875 .857167300702112 .515038074910055 0 0 1 80
 255 1 82 99 100 9000 1 1 1 1 1 1 1 1 0 FFFFTFTFFFFFFF1 81 1 97 438 101 28 0 95
 102 0 103 81 1 88 467 82 54 104 0 84 95 105 82 255 1 98 192348318 81 1 104 431
 101 54 0 88 87 106 107 82 1 105 -1083244422 80 1 101 0 108 8001 0 0 0 0 3 5 0 0
 0 FFFFTFTFFFFFFF2 81 1 87 430 101 16 0 84 0 104 109 81 1 106 432 101 56 0 58 10
4 110 111 83 255 3 107 0 0 1 81 1 58 461 82 56 106 0 27 64 112 81 1 110 433 101
 59 0 64 106 113 114 83 3 111 0 0 1 81 1 64 462 82 59 110 0 58 70 115 81 1 113 4
34 101 65 0 70 110 116 117 83 3 114 0 0 1 81 1 70 463 82 65 113 0 64 76 118 81 1
 116 435 101 71 0 76 113 83 119 83 3 117 0 0 1 81 1 76 464 82 71 116 0 70 80 120
 81 1 83 436 101 29 0 80 116 102 121 83 3 119 0 0 1 81 1 102 437 101 25 0 27 83
 97 122 83 3 121 0 0 1 81 1 27 460 82 25 102 0 0 58 123 83 3 122 0 0 1 82 1 123
 192938142 82 1 120 -1085603718 82 1 118 -1085013894 82 1 115 -1084424070 82 1 1
12 -1083834246 83 3 109 0 0 1 79 255 15 108 SDL/TYSA_COLOUR83 3 103 0 0 1 79 14
 100 SWEntUnchanged51 18 114 0 54 60 6 0 -1360888755552496e-33 .0047625 0 0 1 0
 .003175 0 0 1 50 60 113 0 56 66 18 0 +.003175 79375e-8 0 0 -1 0 0 0 -1 51 66 11
2 0 59 72 60 0 -1360888755552496e-33 .0047625 0 0 1 0 .00635 0 0 1 50 72 111 0 6
5 77 66 0 +.00635 -79375e-8 0 0 1 0 0 0 1 51 77 110 0 71 81 72 0 -13608887555524
96e-33 .0047625 0 0 1 0 .003175 0 0 1 82 1 89 1524629662 82 1 85 -1086193542 19
 17 61 0 1 0 9 5 S0 74 4 CI16 index_map_offset0 0 1 dCCZ20 15 9 0 0 124 125 95 1
26 127 128 97 13 2 0 0 0 0 0 0 0 0 0 0 0 81 2 124 164 129 1 0 125 0 0 0 130 81 2
 125 168 131 1 124 126 0 0 0 132 81 2 126 294 133 1 125 127 0 0 0 134 81 1 127 3
65 135 1 126 128 0 0 136 81 2 128 420 137 1 127 13 0 0 0 0 81 2 13 458 138 1 128
 2 0 0 139 0 80 2 138 140 141 8004 0 0 0 0 3 5 0 0 0 FFTFFFFFFFFFFF2 3 83 1 139
 2700.001083 79 16 141 SDL/TYSA_DENSITY80 2 137 142 143 9000 0 0 0 0 3 5 0 0 0 F
FTFFFFFFFFFFF9 1 79 16 143 BODY_RECIPE_200180 1 135 144 145 9000 1 1 1 1 1 1 1 1
 0 FFTFFFFFFFFFFF1 82 1 136 88762 79 10 145 BODY_MATCH80 2 133 146 147 9000 0 0
 0 0 3 5 0 0 0 FFTFFFFFFFFFFF9 1 82 1 134 1 79 24 147 BODY_IN_LIGHTWEIGHT_PERM80
 2 131 148 149 9000 0 0 0 0 3 5 0 0 0 FFTFFFFFFFFFFF9 1 82 1 132 56 79 30 149 LA
ST_BODY_MODIFYING_FEATURE_ID80 2 129 150 151 9000 0 0 0 0 3 5 0 0 0 FFTFFFFFFFFF
FT9 1 82 1 130 126 79 19 151 ENT_TIME_STAMP_200180 2 12 152 153 9000 0 0 0 0 3 5
 0 0 0 FFTFFFFFFFFFFF9 1 82 1 14 103 79 12 153 ATOM_ID_20011 0 
