**ABCDEFGHIJKLMNOPQRSTUVWXYZabcdefghijklmnopqrstuvwxyz**************************
**PARASOLID !"#$%&'()*+,-./:;<=>?@[\]^_`{|}~0123456789**************************
**PART1;
MC=AMD64;
MC_MODEL=Intel64 Family 6 Model 158 Stepping 9, GenuineIntel;
MC_ID=unknown;
OS=Windows_NT;
OS_RELEASE=unknown;
FRU=Parasolid Version 33.1, build 260,  4-25-2022;
APPL=SOLIDWORKS 2022-2022207;
SITE=;
USER=unknown;
FORMAT=text;
GUISE=transmit;
KEY=FILEMcMaster 1327K65 - Rotary Shaft_para.x_t;
DATE=Fri Sep  2 13:18:24 2022;
**PART2;
SCH=SCH_3301260_33103;
USFLD_SIZE=0;
**PART3;
**END_OF_HEADER*****************************************************************
T51 : TRANSMIT FILE created by modeller version 330126023 SCH_3301260_33103_1300
6230 0 12 35 CCCI7 lattice222 0 CCCI4 mesh1006 0 I8 polyline1008 0 CCCCCCCDI5 ow
ner1040 0 CCCCCCI13 boundary_mesh1006 0 I17 boundary_polyline1008 0 CCCA16 index
_map_offset0 0 1 dA9 index_map82 0 A17 node_id_index_map82 0 A20 schema_embeddin
g_map82 0 A5 child12 0 A14 lowest_node_id0 0 1 dA16 mesh_offset_data206 0 Z1 469
 2 3 0 0 0 0 0 0 0 1e3 1e-8 0 4 0 1 0 1 1 5 6 7 0 0 0 8 9 0 0 0 0 0 0 0 0 81 255
 2 2 456 10 1 11 0 0 0 0 12 70 11 CI9 list_type0 0 1 uI10 notransmit0 0 1 lCCCDC
CDI12 finger_index0 0 1 dI12 finger_block1012 0 CZ3 0 4 T1 0 0 10 20 1 13 13 13
 255 5 29 0 1 0 14 0 0 15 0 52 255 6 261 16 17 18 0 0 +0 -910729824887824e-32 -.
057785 0 0 -1 .003175 .707106781186555 .70710678118654 -1 0 0 31 255 7 245 0 9 1
9 0 0 -0 -910729824887824e-32 -.05715 0 0 -1 -1 0 0 .00254 19 8 CCCCCCCA5 owner1
2 0 Z8 7 0 1 15 0 20 V0 16 255 9 242 0 ?21 0 22 7 0 0 1 17 255 21 0 23 21 21 0 2
4 9 0 0 +16 22 235 0 ?25 9 26 19 0 0 1 17 25 0 27 25 25 0 28 22 0 0 +16 26 65 0
 ?29 22 30 31 0 0 1 31 19 238 0 22 31 7 0 +0 -910729824887824e-32 -.057785 0 0 -
1 -1 0 0 .003175 31 31 68 0 26 32 19 0 -0 -910729824887824e-32 -.0762 0 0 1 1 0
 0 .002539999999999875 31 32 62 0 30 33 31 0 +0 -910729824887824e-32 -.075565 0
 0 1 1 0 0 .003175 16 30 59 0 ?34 26 35 32 0 0 1 31 33 364 0 36 37 32 0 +0 -9107
29824887824e-32 -.073025 0 0 1 1 0 0 .003175 16 36 333 0 ?38 39 40 33 0 0 1 31 3
7 365 0 40 41 33 0 +0 -910729824887824e-32 -.073025 0 0 1 1 0 0 .002921 16 40 33
4 0 ?42 36 43 37 0 0 1 31 41 366 0 43 44 37 0 +0 -910729824887824e-32 -.0737616
 0 0 1 1 0 0 .002921 16 43 335 0 ?45 40 46 41 0 0 1 31 44 367 0 46 47 41 0 +0 -9
10729824887824e-32 -.0737616 0 0 1 1 0 0 .003175 16 46 332 0 ?48 43 0 44 0 0 1 3
1 47 368 0 35 49 44 0 +0 -910729824887824e-32 -.0595884 0 0 1 1 0 0 .003175 16 3
5 312 0 ?50 30 51 47 0 0 1 31 49 369 0 51 52 47 0 +0 -910729824887824e-32 -.0595
884 0 0 1 1 0 0 .002921 16 51 313 0 ?53 35 54 49 0 0 1 31 52 370 0 54 55 49 0 +0
 -910729824887824e-32 -.060325 0 0 1 1 0 0 .002921 16 54 314 0 ?56 51 39 52 0 0
 1 31 55 371 0 39 0 52 0 +0 -910729824887824e-32 -.060325 0 0 1 1 0 0 .003175 16
 39 311 0 ?57 54 36 55 0 0 1 17 57 0 58 57 57 0 59 39 0 0 +15 255 58 330 0 57 60
 0 17 59 0 61 59 59 0 57 39 0 0 -15 61 295 0 59 62 63 14 255 62 284 64 ?65 60 61
 5 66 -67 14 65 60 20 15 63 288 0 38 62 0 17 38 0 63 38 38 0 68 36 0 0 +17 68 0
 69 68 68 0 38 36 0 0 -15 69 342 0 68 65 70 14 65 340 71 ?72 62 69 5 73 -0 0 72
 62 20 15 70 343 0 42 65 0 17 42 0 70 42 42 0 74 40 0 0 +17 74 0 75 74 74 0 42 4
0 0 0 -15 75 346 0 74 72 76 14 72 344 77 ?78 65 75 5 79 -0 0 78 65 20 15 76 347
 0 45 72 0 17 45 0 76 45 45 0 80 43 0 0 +17 80 0 81 80 80 0 45 43 0 0 -15 81 350
 0 80 78 82 14 78 348 83 ?84 72 81 5 85 -0 0 84 72 20 15 82 351 0 48 78 0 17 48
 0 82 48 48 0 86 46 0 0 +17 86 0 87 86 86 0 48 46 0 0 -15 87 281 0 86 67 88 14 6
7 25 89 ?0 90 87 5 66 -14 62 0 90 20 15 88 60 0 34 67 0 17 34 0 88 34 34 0 91 30
 0 0 +17 91 0 92 91 91 0 34 30 0 0 -15 92 86 0 91 90 0 14 90 84 93 ?67 84 94 5 1
8 +0 0 67 84 20 81 1 93 462 95 90 96 0 89 97 98 14 84 16 97 ?90 78 99 5 100 -0 0
 90 78 20 15 94 85 0 101 90 92 52 18 91 0 90 66 6 0 +0 -910729824887824e-32 -.07
5565 0 0 1 .003175 .707106781186542 .707106781186554 1 0 0 13 20 8 0 0 0 0 0 0 8
 14 14 14 298 102 ?103 0 104 5 66 -62 67 103 0 20 81 1 102 464 95 14 105 0 97 10
6 107 14 103 199 106 ?17 14 23 5 108 -0 0 17 14 20 15 104 302 0 50 14 27 51 255
 66 28 0 67 100 18 0 -0 -910729824887824e-32 .0762 0 0 -1 .003175 -1 0 0 50 255
 100 22 0 84 108 66 0 +0 -910729824887824e-32 -.0762 0 0 1 1 0 0 50 108 205 0 10
3 73 100 0 +0 0 -.05715 0 0 -1 -1 0 0 50 73 357 0 65 79 108 0 +.003175 0 -.07302
5 0 0 1 1 0 0 51 79 358 0 72 85 73 0 -0 -910729824887824e-32 -.057785 0 0 1 .002
921 1 0 0 50 85 359 0 78 109 79 0 +.003175 0 -.0737616 0 0 -1 -1 0 0 50 109 361
 0 110 111 85 0 +.003175 0 -.0595884 0 0 1 1 0 0 14 110 319 112 ?113 17 114 5 10
9 -0 0 113 17 20 51 111 362 0 113 115 109 0 -0 -910729824887824e-32 -.057785 0 0
 1 .002921 1 0 0 14 113 323 116 ?60 110 117 5 111 -0 0 60 110 20 50 115 363 0 60
 0 111 0 +.003175 0 -.060325 0 0 -1 -1 0 0 14 60 327 118 ?62 113 119 5 115 -0 0
 62 113 20 81 1 118 468 95 60 120 0 116 121 122 15 119 329 0 123 60 58 17 123 0
 119 123 123 0 56 54 0 0 -17 56 0 124 56 56 0 123 54 0 0 +15 124 326 0 56 113 0
 80 255 1 95 125 126 9000 1 1 1 1 1 1 1 1 0 FFFFTFTFFFFFFF1 81 1 120 421 127 60
 0 118 128 129 130 81 1 116 467 95 113 128 0 112 118 131 81 1 121 469 95 17 132
 0 118 0 133 82 255 1 122 117440758 14 17 254 121 ?110 103 134 5 6 +0 0 110 103
 20 81 1 132 418 127 17 0 121 135 136 137 82 1 133 1688928466 80 1 127 0 138 800
1 0 0 0 0 3 5 0 0 0 FFFFTFTFFFFFFF2 81 1 135 417 127 103 0 106 105 132 139 81 1
 136 419 127 110 0 112 132 128 140 83 255 3 137 .752941176470588 .75294117647058
8 .752941176470588 81 1 112 466 95 110 136 0 106 116 141 81 1 128 420 127 113 0
 116 136 120 142 83 3 140 .752941176470588 .752941176470588 .752941176470588 83
 3 142 .752941176470588 .752941176470588 .752941176470588 81 1 106 465 95 103 13
5 0 102 112 143 82 1 141 118620406 82 1 143 1681129682 81 1 105 416 127 14 0 102
 0 135 144 83 3 139 .752941176470588 .752941176470588 .752941176470588 83 3 144
 .752941176470588 .752941176470588 .752941176470588 79 255 15 138 SDL/TYSA_COLOU
R15 134 255 0 24 17 145 17 24 0 134 24 24 0 21 9 0 0 -15 145 256 0 28 17 0 17 28
 0 145 28 28 0 25 22 0 0 -82 1 131 118030582 81 1 129 422 127 62 0 64 120 146 14
7 83 3 130 .752941176470588 .752941176470588 .752941176470588 81 1 64 457 95 62
 129 0 0 71 148 81 1 146 423 127 65 0 71 129 149 150 83 3 147 .752941176470588 .
752941176470588 .752941176470588 81 1 71 458 95 65 146 0 64 77 151 81 1 149 424
 127 72 0 77 146 152 153 83 3 150 .752941176470588 .752941176470588 .75294117647
0588 81 1 77 459 95 72 149 0 71 83 154 81 1 152 425 127 78 0 83 149 155 156 83 3
 153 .752941176470588 .752941176470588 .752941176470588 81 1 83 460 95 78 152 0
 77 89 157 81 1 155 426 127 84 0 97 152 96 158 83 3 156 .752941176470588 .752941
176470588 .752941176470588 81 1 97 463 95 84 155 0 93 102 159 81 1 96 427 127 90
 0 93 155 160 161 83 3 158 .752941176470588 .752941176470588 .752941176470588 81
 1 160 428 127 67 0 89 96 0 162 83 3 161 .752941176470588 .752941176470588 .7529
41176470588 81 1 89 461 95 67 160 0 83 93 163 83 3 162 .752941176470588 .7529411
76470588 .752941176470588 82 1 163 10748150 82 1 159 347734206 82 1 157 12478079
0 82 1 154 125370614 82 1 151 125960438 82 1 148 129368310 79 14 126 SWEntUnchan
ged15 117 325 0 164 113 124 17 164 0 117 164 164 0 53 51 0 0 -17 53 0 165 53 53
 0 164 51 0 0 +15 165 322 0 53 110 0 15 114 321 0 166 110 165 17 166 0 114 166 1
66 0 50 35 0 0 -17 50 0 104 50 50 0 166 35 0 0 +15 27 236 0 25 14 0 15 23 243 0
 21 103 0 82 1 107 130547958 17 101 0 94 101 101 0 29 26 0 0 -17 29 0 99 29 29 0
 101 26 0 0 +15 99 66 0 29 84 0 82 1 98 354222270 19 15 30 0 1 0 8 5 S0 81 2 16
 262 167 6 0 0 0 0 168 169 80 2 167 170 171 8044 0 0 0 0 3 5 0 0 0 FFFFTFFFTTFFF
F3 2 84 255 6 168 BAAAAB83 3 169 -.000634999999999969 0 .000634999999999982 79 1
7 171 SDL/TYSA_BLEND_ID74 4 CI16 index_map_offset0 0 1 dCCZ20 13 10 0 0 172 173
 121 174 175 16 176 11 160 2 0 0 0 0 0 0 0 0 0 0 81 2 172 42 177 1 0 173 0 0 0 1
78 81 2 173 46 179 1 172 174 0 0 0 180 81 2 174 121 181 1 173 175 0 0 0 182 81 2
 175 144 183 1 174 176 0 0 184 0 81 1 176 402 185 1 175 11 0 0 186 81 2 11 411 1
87 1 176 2 0 0 0 0 80 2 187 188 189 9000 0 0 0 0 3 5 0 0 0 FFTFFFFFFFFFFF9 1 79
 16 189 BODY_RECIPE_200180 1 185 190 191 9000 1 1 1 1 1 1 1 1 0 FFTFFFFFFFFFFF1
 82 1 186 3211393 79 10 191 BODY_MATCH80 2 183 192 193 8004 0 0 0 0 3 5 0 0 0 FF
TFFFFFFFFFFF2 3 83 1 184 1e3 79 16 193 SDL/TYSA_DENSITY80 2 181 194 195 9000 0 0
 0 0 3 5 0 0 0 FFTFFFFFFFFFFF9 1 82 1 182 1 79 24 195 BODY_IN_LIGHTWEIGHT_PERM80
 2 179 196 197 9000 0 0 0 0 3 5 0 0 0 FFTFFFFFFFFFFF9 1 82 1 180 244 79 30 197 L
AST_BODY_MODIFYING_FEATURE_ID80 2 177 198 199 9000 0 0 0 0 3 5 0 0 0 FFTFFFFFFFF
FFT9 1 82 1 178 690 79 19 199 ENT_TIME_STAMP_200180 2 10 200 201 9000 0 0 0 0 3
 5 0 0 0 FFTFFFFFFFFFFF9 1 82 1 12 111 79 12 201 ATOM_ID_20011 0 
