**ABCDEFGHIJKLMNOPQRSTUVWXYZabcdefghijklmnopqrstuvwxyz**************************
**PARASOLID !"#$%&'()*+,-./:;<=>?@[\]^_`{|}~0123456789**************************
**PART1;
MC=AMD64;
MC_MODEL=Intel64 Family 6 Model 158 Stepping 9, GenuineIntel;
MC_ID=unknown;
OS=Windows_NT;
OS_RELEASE=unknown;
FRU=Parasolid Version 33.1, build 260,  4-25-2022;
APPL=SOLIDWORKS 2022-2022207;
SITE=;
USER=unknown;
FORMAT=text;
GUISE=transmit;
KEY=FILEMcMaster 91590A113 - External Retaining Ring_para.x_t;
DATE=Fri Sep  2 13:21:41 2022;
**PART2;
SCH=SCH_3301260_33103;
USFLD_SIZE=0;
**PART3;
**END_OF_HEADER*****************************************************************
T51 : TRANSMIT FILE created by modeller version 330126023 SCH_3301260_33103_1300
6230 0 12 35 CCCI7 lattice222 0 CCCI4 mesh1006 0 I8 polyline1008 0 CCCCCCCDI5 ow
ner1040 0 CCCCCCI13 boundary_mesh1006 0 I17 boundary_polyline1008 0 CCCA16 index
_map_offset0 0 1 dA9 index_map82 0 A17 node_id_index_map82 0 A20 schema_embeddin
g_map82 0 A5 child12 0 A14 lowest_node_id0 0 1 dA16 mesh_offset_data206 0 Z1 522
0 2 3 0 0 0 0 0 0 0 1e3 1e-8 0 4 0 1 0 1 1 5 6 7 8 0 0 9 10 11 0 0 0 0 0 0 0 81
 255 2 2 5204 12 1 13 0 0 0 0 14 70 11 CI9 list_type0 0 1 uI10 notransmit0 0 1 l
CCCDCCDI12 finger_index0 0 1 dI12 finger_block1012 0 CZ3 0 4 T1 0 0 9 20 1 15 15
 13 255 5 166 0 1 0 16 0 0 17 0 51 255 6 525 0 18 19 0 0 +3175e-7 .0042362398614
7601 -.001083251094427386 -1 0 0 635e-6 0 0 1 31 255 7 434 0 10 20 0 0 -3175e-7
 .00323663344671568 -.0025697737436685 1 0 0 0 0 -1 635e-6 29 255 8 399 0 11 21
 0 3175e-7 .00487114314790032 -.001094333372515062 19 8 CCCCCCCA5 owner12 0 Z9 4
4 0 1 17 0 22 V0 16 255 10 427 0 ?23 0 24 7 0 0 1 18 255 11 397 0 25 0 26 8 ?1 1
7 255 25 0 27 28 29 11 30 31 0 32 +18 26 389 0 33 11 34 21 ?1 17 33 0 35 36 37 2
6 38 39 0 40 +18 34 376 0 41 26 42 43 ?1 29 21 391 0 26 43 8 3175e-7 .0048711431
4790032 .001094333372515062 29 43 378 0 34 44 21 -3175e-7 .00487114314790032 .00
1094333372515062 29 44 375 0 42 45 43 -3175e-7 .00487114314790032 -.001094333372
515062 18 42 373 0 46 34 47 44 ?1 29 45 362 0 47 48 44 3175e-7 .0043566525704861
 -.001706729866727495 18 47 360 0 49 42 50 45 ?1 29 48 359 0 50 51 45 3175e-7 .0
0311622073770559 -.00194629497136839 18 50 357 0 23 47 52 48 ?1 29 51 356 0 52 5
3 48 -3175e-7 .0043566525704861 -.001706729866727495 18 52 354 0 54 50 55 51 ?1
 29 53 353 0 55 56 51 -3175e-7 .00311622073770559 -.00194629497136839 18 55 351
 0 57 52 58 53 ?1 29 56 340 0 58 59 53 3175e-7 .00311622073770559 .0019462949713
6839 18 58 338 0 60 55 61 56 ?1 29 59 337 0 61 62 56 3175e-7 .0043566525704861 .
001706729866727495 18 61 335 0 63 58 64 59 ?1 29 62 334 0 64 65 59 -3175e-7 .003
11622073770559 .00194629497136839 18 64 332 0 66 61 67 62 ?1 29 65 331 0 67 68 6
2 -3175e-7 .0043566525704861 .001706729866727495 18 67 329 0 69 64 70 65 ?1 29 6
8 318 0 70 71 65 3175e-7 .00273137951372646 -.002185139549662135 18 70 316 0 72
 67 73 68 ?1 29 71 315 0 73 74 68 3175e-7 .00273137951372646 .002185139549662135
 18 73 313 0 75 70 76 71 ?1 29 74 312 0 76 77 71 -3175e-7 .00273137951372646 -.0
02185139549662135 18 76 310 0 78 73 79 74 ?1 29 77 309 0 79 80 74 -3175e-7 .0027
3137951372646 .002185139549662135 18 79 307 0 81 76 82 77 ?1 29 80 118 0 83 84 7
7 -3175e-7 .002857064788909385 -498702513945379e-19 18 83 101 0 85 86 87 80 ?1 2
9 84 119 0 87 88 80 -3175e-7 .00488875530546717 -853335412750982e-19 18 87 102 0
 89 83 90 84 ?1 29 88 124 0 90 91 84 -3175e-7 .00488875530546717 853335412750982
e-19 18 90 107 0 92 87 93 88 ?1 29 91 125 0 93 94 88 -3175e-7 .00285706478890938
5 498702513945379e-19 18 93 108 0 95 90 0 91 ?1 29 94 43 0 82 96 91 3175e-7 .002
857064788909385 -498702513945379e-19 18 82 42 0 97 79 98 94 ?1 29 96 41 0 98 99
 94 3175e-7 .00488875530546717 -853335412750982e-19 18 98 40 0 28 82 100 96 ?1 2
9 99 31 0 100 101 96 3175e-7 .00488875530546717 853335412750982e-19 18 100 30 0
 102 98 86 99 ?1 29 101 29 0 86 0 99 3175e-7 .002857064788909385 498702513945379
e-19 18 86 28 0 103 100 83 101 ?1 17 103 0 104 105 106 86 102 107 0 108 -15 255
 104 146 0 92 109 0 17 105 0 104 92 103 93 110 111 0 112 +17 106 0 104 103 92 10
0 113 114 0 36 -17 102 0 27 40 108 100 103 107 0 106 +16 107 7 0 ?102 115 116 11
7 0 0 1 17 108 0 27 102 97 86 118 116 0 110 +15 27 3 0 40 16 119 17 97 0 27 108
 28 82 120 121 0 122 +17 118 0 123 124 110 82 108 116 0 0 -16 116 4 0 ?108 107 1
25 126 0 0 1 17 110 0 123 118 112 86 105 111 0 0 -15 123 148 0 112 127 0 17 112
 0 123 110 124 93 128 129 0 0 +16 111 133 0 ?105 130 114 131 0 0 1 16 130 319 0
 ?72 132 111 133 0 0 1 16 114 132 0 ?113 111 134 135 0 0 1 30 255 131 157 0 111
 135 133 0 +3175e-7 .002857064788909385 498702513945379e-19 -1 0 0 30 135 156 0
 114 136 131 0 +3175e-7 .00488875530546717 853335412750982e-19 -1 0 0 30 133 321
 0 130 131 137 0 -3175e-7 .00273137951372646 -.002185139549662135 -1 0 0 30 137
 326 0 132 133 138 0 +3175e-7 .00273137951372646 .002185139549662135 -1 0 0 16 1
32 324 0 ?139 140 130 137 0 0 1 30 138 343 0 140 137 141 0 +3175e-7 .00435665257
04861 .001706729866727495 -1 0 0 16 140 341 0 ?142 143 132 138 0 0 1 30 141 348
 0 143 138 144 0 +3175e-7 .00311622073770559 .00194629497136839 1 0 0 16 143 346
 0 ?60 145 140 141 0 0 1 30 144 365 0 145 141 146 0 -3175e-7 .0043566525704861 -
.001706729866727495 -1 0 0 16 145 363 0 ?49 147 143 144 0 0 1 30 146 370 0 147 1
44 148 0 --3175e-7 .00311622073770559 -.00194629497136839 1 0 0 16 147 368 0 ?14
9 150 145 146 0 0 1 31 148 381 0 150 146 151 0 --3175e-7 .00423623986147601 -.00
1083251094427386 1 0 0 0 0 -1 635e-6 16 150 379 0 ?54 152 147 148 0 0 1 31 151 3
86 0 152 148 153 0 --3175e-7 .00423623986147601 .001083251094427388 1 0 0 0 0 -1
 635e-6 16 152 384 0 ?41 39 150 151 0 0 1 30 153 394 0 39 151 154 0 -3175e-7 .00
487114314790032 .001094333372515062 -1 0 0 16 39 392 0 ?33 31 152 153 0 0 1 31 1
54 402 0 31 153 155 0 +3175e-7 .00423623986147601 -.001083251094427386 1 0 0 0 0
 -1 635e-6 16 31 400 0 ?25 156 39 154 0 0 1 31 155 407 0 156 154 157 0 +3175e-7
 .00423623986147601 .001083251094427388 1 0 0 0 0 -1 635e-6 16 156 405 0 ?63 158
 31 155 0 0 1 30 157 412 0 158 155 159 0 +3175e-7 .00487114314790032 -.001094333
372515062 -1 0 0 16 158 410 0 ?160 161 156 157 0 0 1 31 159 431 0 161 157 162 0
 +-3175e-7 .00323663344671568 .0025697737436685 1 0 0 0 0 -1 635e-6 16 161 415 0
 ?66 163 158 159 0 0 1 31 162 432 0 163 159 20 0 -3175e-7 .00323663344671568 .00
25697737436685 1 0 0 0 0 -1 635e-6 16 163 419 0 ?75 24 161 162 0 0 1 31 20 433 0
 24 162 7 0 +-3175e-7 .00323663344671568 -.0025697737436685 1 0 0 0 0 -1 635e-6
 16 24 423 0 ?78 10 163 20 0 0 1 17 78 0 164 165 166 76 57 24 0 167 +15 164 68 0
 168 169 170 17 165 0 164 66 78 79 167 171 0 0 -17 166 0 164 78 54 55 172 173 0
 0 -17 57 0 174 175 176 55 78 24 0 149 -17 167 0 177 72 139 76 165 171 0 176 +15
 177 140 0 178 179 0 17 72 0 177 178 167 70 176 130 0 180 +17 139 0 177 167 178
 79 181 132 0 165 +16 171 308 0 ?167 173 182 183 0 0 1 17 176 0 174 57 184 76 72
 130 0 0 -15 174 472 0 184 185 0 17 184 0 174 176 175 70 23 10 0 0 -17 175 0 174
 184 57 50 149 147 0 0 -17 23 0 27 29 180 50 184 10 0 186 +17 29 0 27 25 23 47 1
86 187 0 30 +17 180 0 27 23 75 70 178 188 0 184 +17 186 0 189 149 49 50 29 187 0
 175 -15 189 138 0 186 190 0 17 149 0 189 172 186 55 175 147 0 166 +17 49 0 189
 186 172 47 191 145 0 29 +16 187 358 0 ?29 192 188 193 0 0 1 16 192 398 0 ?28 12
1 187 194 0 0 1 16 188 314 0 ?180 187 195 196 0 0 1 30 193 20 0 187 196 194 0 +3
175e-7 .00486215783805675 -.00160910142869344 0 .981856334330881 .18962631340171
45 31 196 17 0 188 197 193 0 +3175e-7 -.000139011025651335 0 1 0 0 0 0 -1 .00360
7488974348665 30 194 23 0 192 193 198 0 +3175e-7 .00488875530546717 -85333541275
0982e-19 0 .01745240643728405 .999847695156391 30 198 26 0 121 194 199 0 +3175e-
7 .002857064788909385 -498702513945379e-19 0 -.999847695156391 .0174524064372836
5 16 121 25 0 ?97 200 192 198 0 0 1 31 199 117 0 129 198 201 0 +-3175e-7 0 0 -1
 0 0 0 0 -1 .0028575 16 129 97 0 ?112 202 203 199 0 0 1 30 201 116 0 202 199 204
 0 +-3175e-7 .002857064788909385 498702513945379e-19 0 .999847695156391 .0174524
0643728365 16 202 93 0 ?92 205 129 201 0 0 1 30 204 115 0 205 201 206 0 +-3175e-
7 .00488875530546717 853335412750982e-19 0 -.01745240643728405 .999847695156391
 16 205 89 0 ?37 182 202 204 0 0 1 30 206 114 0 182 204 183 0 +-3175e-7 .0048621
5783805675 .00160910142869344 0 -.981856334330881 .1896263134017145 16 182 330 0
 ?207 171 205 206 0 0 1 31 183 113 0 171 206 208 0 +-3175e-7 -.00013901102565133
5 0 1 0 0 0 0 -1 .003607488974348665 30 208 112 0 173 183 209 0 +-3175e-7 .00486
215783805675 -.00160910142869344 0 .981856334330881 .1896263134017145 16 173 352
 0 ?172 210 171 208 0 0 1 30 209 111 0 210 208 211 0 +-3175e-7 .0048887553054671
7 -853335412750982e-19 0 .01745240643728405 .999847695156391 16 210 374 0 ?89 12
5 173 209 0 0 1 30 211 110 0 125 209 212 0 +-3175e-7 .002857064788909385 -498702
513945379e-19 0 -.999847695156391 .01745240643728365 16 125 69 0 ?85 116 210 211
 0 0 1 30 212 150 0 200 211 136 0 +3175e-7 .002857064788909385 -498702513945379e
-19 -1 0 0 16 200 126 0 ?124 134 121 212 0 0 1 30 136 151 0 134 212 135 0 +3175e
-7 .00488875530546717 -853335412750982e-19 -1 0 0 16 134 127 0 ?213 114 200 136
 0 0 1 17 213 0 214 85 120 87 215 134 0 216 +15 214 134 0 85 217 0 17 85 0 214 1
22 213 83 216 125 0 124 +17 120 0 214 213 122 98 97 121 0 0 -17 215 0 218 32 89
 98 213 134 0 120 -17 216 0 164 219 128 87 85 125 0 0 -17 219 0 164 54 216 42 89
 210 0 0 -17 128 0 164 216 95 83 112 129 0 0 -17 95 0 164 128 220 93 92 202 0 10
5 -17 220 0 164 95 41 90 37 205 0 0 -17 92 0 104 106 105 90 95 202 0 113 +17 113
 0 35 37 36 90 106 114 0 220 +15 35 144 0 37 221 0 17 37 0 35 33 113 34 220 205
 0 38 +17 36 0 35 113 33 100 40 115 0 0 -17 40 0 27 63 102 26 36 115 0 222 +16 1
15 10 0 ?40 195 107 223 0 0 1 16 195 336 0 ?224 188 115 197 0 0 1 30 223 11 0 11
5 117 197 0 +3175e-7 .00488875530546717 853335412750982e-19 0 -.0174524064372840
5 .999847695156391 30 117 8 0 107 126 223 0 +3175e-7 .002857064788909385 4987025
13945379e-19 0 .999847695156391 .01745240643728365 30 197 14 0 195 223 196 0 +31
75e-7 .00486215783805675 .00160910142869344 0 -.981856334330881 .189626313401714
5 31 126 5 0 116 225 117 0 +3175e-7 0 0 -1 0 0 0 0 -1 .0028575 31 225 222 0 226
 227 126 0 +-3175e-7 .00385961131348307 .000829485840043988 1 0 0 0 0 -1 5207e-7
 16 226 200 0 ?228 203 229 225 0 0 1 31 227 223 0 203 230 225 0 +3175e-7 .003859
61131348307 .000829485840043988 1 0 0 0 0 -1 5207e-7 16 203 203 0 ?231 129 226 2
27 0 0 1 31 230 260 0 232 233 227 0 +-3175e-7 .00385961131348307 -.0008294858400
43988 1 0 0 0 0 -1 5207e-7 16 232 238 0 ?234 229 0 230 0 0 1 31 233 261 0 229 0
 230 0 +3175e-7 .00385961131348307 -.000829485840043988 1 0 0 0 0 -1 5207e-7 16
 229 241 0 ?235 226 232 233 0 0 1 17 235 0 236 235 235 0 237 229 0 0 +15 236 247
 0 235 238 239 17 237 0 119 237 237 0 235 229 0 0 -15 119 232 0 237 16 0 14 255
 16 235 240 ?169 0 241 5 242 +0 0 169 0 22 81 1 240 5205 243 16 244 0 0 245 246
 14 169 229 245 ?127 16 247 5 248 -0 0 127 16 22 15 241 194 0 249 16 27 50 255 2
42 2 0 16 250 248 0 +3175e-7 0 0 1 0 0 0 0 -1 13 22 45 0 0 0 0 0 0 9 16 51 250 2
19 0 251 252 242 0 -3175e-7 .00385961131348307 .000829485840043988 -1 0 0 5207e-
7 0 0 1 50 248 109 0 169 242 253 0 +-3175e-7 0 0 1 0 0 0 0 -1 50 253 158 0 217 2
48 254 0 +3175e-7 .002857064788909385 -498702513945379e-19 0 -.01745240643728365
 -.999847695156391 0 .999847695156391 -.01745240643728365 14 217 135 255 ?251 25
6 214 5 253 -0 0 251 256 22 50 254 159 0 256 253 257 0 +3175e-7 .004888755305467
17 -853335412750982e-19 0 -.999847695156391 .01745240643728405 0 -.0174524064372
8405 -.999847695156391 14 256 137 258 ?217 190 218 5 254 -0 0 217 190 22 50 257
 160 0 190 254 259 0 +3175e-7 .00486215783805675 -.00160910142869344 0 -.1896263
134017145 .981856334330881 0 -.981856334330881 -.1896263134017145 14 190 139 260
 ?256 179 189 5 257 -0 0 256 179 22 51 259 161 0 179 257 261 0 -3175e-7 -.000139
011025651335 0 -1 0 0 .003607488974348665 0 0 1 14 179 141 262 ?190 263 177 5 25
9 -0 0 190 263 22 50 261 162 0 263 259 264 0 +3175e-7 .00486215783805675 .001609
10142869344 0 -.1896263134017145 -.981856334330881 0 .981856334330881 -.18962631
34017145 14 263 143 265 ?179 221 266 5 261 -0 0 179 221 22 50 264 163 0 221 261
 267 0 +3175e-7 .00488875530546717 853335412750982e-19 0 -.999847695156391 -.017
45240643728405 0 .01745240643728405 -.999847695156391 14 221 145 268 ?263 109 35
 5 264 -0 0 263 109 22 50 267 164 0 109 264 269 0 +3175e-7 .002857064788909385 4
98702513945379e-19 0 -.01745240643728365 .999847695156391 0 -.999847695156391 -.
01745240643728365 14 109 147 270 ?221 127 104 5 267 -0 0 221 127 22 51 269 165 0
 127 267 271 0 +3175e-7 0 0 -1 0 0 .0028575 0 0 1 14 127 149 272 ?109 169 123 5
 269 -0 0 109 169 22 51 271 462 0 273 269 274 0 +3175e-7 .00323663344671568 .002
5697737436685 -1 0 0 635e-6 0 0 1 14 273 450 275 ?185 238 276 5 271 -0 0 185 238
 22 51 274 483 0 185 271 19 0 +3175e-7 .00323663344671568 -.0025697737436685 -1
 0 0 635e-6 0 0 1 14 185 471 277 ?278 273 174 5 274 -0 0 278 273 22 51 19 504 0
 278 274 6 0 +3175e-7 .00423623986147601 .001083251094427388 -1 0 0 635e-6 0 0 1
 14 278 492 279 ?18 185 280 5 19 +0 0 18 185 22 81 1 279 5217 243 278 281 0 277
 282 283 14 18 513 282 ?0 278 284 5 6 +0 0 0 278 22 15 280 493 0 222 278 0 17 22
2 0 280 38 285 26 63 156 0 0 -17 38 0 280 69 222 34 33 39 0 0 -17 285 0 280 222
 69 61 142 140 0 0 -17 63 0 27 224 40 61 222 156 0 286 +17 224 0 27 75 63 58 286
 195 0 287 +17 286 0 266 142 60 61 224 195 0 285 -15 266 142 0 207 263 0 17 142
 0 266 207 286 67 285 140 0 168 +17 60 0 266 286 207 58 288 143 0 224 +17 207 0
 266 60 142 64 168 182 0 288 +17 288 0 276 81 287 64 60 143 0 0 -15 276 451 0 28
7 273 0 17 81 0 276 181 288 79 66 161 0 139 -17 287 0 276 288 181 58 75 163 0 0
 -17 181 0 276 287 81 73 139 132 0 0 -17 75 0 27 180 224 73 287 163 0 178 +17 17
8 0 177 139 72 73 180 188 0 181 -17 66 0 164 168 165 64 81 161 0 207 +17 168 0 1
64 41 66 67 207 182 0 0 -17 41 0 164 220 168 34 69 152 0 37 +17 69 0 280 285 38
 67 41 152 0 142 -81 1 282 5218 243 18 289 0 279 290 291 15 284 514 0 30 18 0 17
 30 0 284 191 292 47 25 31 0 0 -17 191 0 284 46 30 52 49 145 0 0 -17 292 0 284 3
0 46 11 160 158 0 0 -17 46 0 284 292 191 42 54 150 0 160 -17 160 0 218 89 32 42
 292 158 0 219 +15 218 136 0 32 256 0 17 89 0 218 215 160 87 219 210 0 213 +17 3
2 0 218 160 215 11 28 192 0 292 -17 28 0 27 97 25 98 32 192 0 215 +17 54 0 164 1
66 219 52 46 150 0 172 +17 172 0 189 49 149 52 166 173 0 191 +80 255 1 243 293 2
94 9000 1 1 1 1 1 1 1 1 0 FFFFTFTFFFFFFF1 81 1 289 5170 295 18 0 282 281 0 296 8
1 1 290 5219 243 238 297 0 282 298 299 82 255 1 291 1793523846 14 238 244 290 ?2
73 251 236 5 252 +0 0 273 251 22 81 1 297 5166 295 238 0 290 300 301 302 81 1 29
8 5220 243 251 300 0 290 0 303 82 1 299 1778450565 14 251 206 298 ?238 217 304 5
 250 +0 0 238 217 22 81 1 300 5165 295 251 0 298 305 297 306 82 1 303 1774387333
 80 1 295 0 307 8001 0 0 0 0 3 5 0 0 0 FFFFTFTFFFFFFF2 81 1 305 5164 295 217 0 2
55 308 300 309 83 255 3 306 .752941176470588 .752941176470588 .752941176470588 8
1 1 255 5207 243 217 305 0 245 258 310 81 1 308 5163 295 256 0 258 311 305 312 8
3 3 309 .752941176470588 .752941176470588 .752941176470588 81 1 258 5208 243 256
 308 0 255 260 313 81 1 311 5162 295 190 0 260 314 308 315 83 3 312 .75294117647
0588 .752941176470588 .752941176470588 81 1 260 5209 243 190 311 0 258 262 316 8
1 1 314 5161 295 179 0 262 317 311 318 83 3 315 .752941176470588 .75294117647058
8 .752941176470588 81 1 262 5210 243 179 314 0 260 265 319 81 1 317 5160 295 263
 0 265 320 314 321 83 3 318 .752941176470588 .752941176470588 .752941176470588 8
1 1 265 5211 243 263 317 0 262 268 322 81 1 320 5159 295 221 0 268 323 317 324 8
3 3 321 .752941176470588 .752941176470588 .752941176470588 81 1 268 5212 243 221
 320 0 265 270 325 81 1 323 5158 295 109 0 270 326 320 327 83 3 324 .75294117647
0588 .752941176470588 .752941176470588 81 1 270 5213 243 109 323 0 268 272 328 8
1 1 326 5157 295 127 0 272 329 323 330 83 3 327 .752941176470588 .75294117647058
8 .752941176470588 81 1 272 5214 243 127 326 0 270 275 331 81 1 329 5156 295 169
 0 245 244 326 332 83 3 330 .752941176470588 .752941176470588 .752941176470588 8
1 1 245 5206 243 169 329 0 240 255 333 81 1 244 5155 295 16 0 240 0 329 334 83 3
 332 .752941176470588 .752941176470588 .752941176470588 83 3 334 .75294117647058
8 .752941176470588 .752941176470588 82 1 333 1781465222 81 1 275 5215 243 273 30
1 0 272 277 335 82 1 331 1768489093 81 1 301 5167 295 273 0 275 297 336 337 81 1
 277 5216 243 185 336 0 275 279 338 82 1 335 1787625606 81 1 336 5168 295 185 0
 277 301 281 339 82 1 338 1789591686 81 1 281 5169 295 278 0 279 336 289 340 83
 3 339 .752941176470588 .752941176470588 .752941176470588 83 3 340 .752941176470
588 .752941176470588 .752941176470588 83 3 337 .752941176470588 .752941176470588
 .752941176470588 82 1 328 1768226949 82 1 325 1767964806 82 1 322 1767702662 82
 1 319 1767440518 82 1 316 1767178374 82 1 313 1766916230 82 1 310 1766654085 79
 255 15 307 SDL/TYSA_COLOUR15 304 209 0 231 251 341 17 231 0 304 231 231 0 249 2
03 0 0 +15 341 210 0 342 251 0 17 342 0 341 342 342 0 228 226 0 0 -17 228 0 247
 228 228 0 342 226 0 0 +15 247 189 0 228 169 164 17 249 0 241 249 249 0 231 203
 0 0 -83 3 302 .752941176470588 .752941176470588 .752941176470588 51 252 257 0 2
38 0 250 0 -3175e-7 .00385961131348307 -.000829485840043988 -1 0 0 5207e-7 0 0 1
 83 3 296 .752941176470588 .752941176470588 .752941176470588 79 14 294 SWEntUnch
anged82 1 283 1791557766 82 1 246 1781989510 15 239 248 0 343 238 0 17 343 0 239
 343 343 0 234 232 0 0 -17 234 0 170 234 234 0 343 232 0 0 +15 170 227 0 234 169
 0 17 122 0 214 120 85 82 124 200 0 118 -17 124 0 123 112 118 83 122 200 0 128 +
19 17 167 0 1 0 9 5 S0 74 4 CI16 index_map_offset0 0 1 dCCZ20 15 9 0 0 344 298 3
45 346 347 348 13 289 2 0 0 0 0 0 0 0 0 0 0 0 81 2 344 186 349 1 0 345 0 0 0 350
 81 1 345 550 351 1 344 346 0 0 352 81 2 346 569 353 1 345 347 0 0 0 354 81 2 34
7 572 355 1 346 348 0 0 0 356 81 2 348 5027 357 1 347 13 0 0 358 0 81 2 13 5150
 359 1 348 2 0 0 0 0 80 2 359 360 361 9000 0 0 0 0 3 5 0 0 0 FFTFFFFFFFFFFF9 1 7
9 16 361 BODY_RECIPE_200180 2 357 362 363 8004 0 0 0 0 3 5 0 0 0 FFTFFFFFFFFFFF2
 3 83 1 358 78e2 79 16 363 SDL/TYSA_DENSITY80 2 355 364 365 9000 0 0 0 0 3 5 0 0
 0 FFTFFFFFFFFFFF9 1 82 1 356 761 79 30 365 LAST_BODY_MODIFYING_FEATURE_ID80 2 3
53 366 367 9000 0 0 0 0 3 5 0 0 0 FFTFFFFFFFFFFF9 1 82 1 354 1 79 24 367 BODY_IN
_LIGHTWEIGHT_PERM80 1 351 368 369 9000 1 1 1 1 1 1 1 1 0 FFTFFFFFFFFFFF1 82 1 35
2 25127058 79 10 369 BODY_MATCH80 2 349 370 371 9000 0 0 0 0 3 5 0 0 0 FFTFFFFFF
FFFFT9 1 82 1 350 1878 79 19 371 ENT_TIME_STAMP_200180 2 12 372 373 9000 0 0 0 0
 3 5 0 0 0 FFTFFFFFFFFFFF9 1 82 1 14 121 79 12 373 ATOM_ID_20011 0 
