**ABCDEFGHIJKLMNOPQRSTUVWXYZabcdefghijklmnopqrstuvwxyz**************************
**PARASOLID !"#$%&'()*+,-./:;<=>?@[\]^_`{|}~0123456789**************************
**PART1;
MC=AMD64;
MC_MODEL=Intel64 Family 6 Model 158 Stepping 9, GenuineIntel;
MC_ID=unknown;
OS=Windows_NT;
OS_RELEASE=unknown;
FRU=Parasolid Version 33.1, build 260,  4-25-2022;
APPL=SOLIDWORKS 2022-2022207;
SITE=;
USER=unknown;
FORMAT=text;
GUISE=transmit;
KEY=FILEMcMaster 5862K112 - Neodymium Magnet_para.x_t;
DATE=Fri Sep  2 13:20:30 2022;
**PART2;
SCH=SCH_3301260_33103;
USFLD_SIZE=0;
**PART3;
**END_OF_HEADER*****************************************************************
T51 : TRANSMIT FILE created by modeller version 330126023 SCH_3301260_33103_1300
6230 0 12 35 CCCI7 lattice222 0 CCCI4 mesh1006 0 I8 polyline1008 0 CCCCCCCDI5 ow
ner1040 0 CCCCCCI13 boundary_mesh1006 0 I17 boundary_polyline1008 0 CCCA16 index
_map_offset0 0 1 dA9 index_map82 0 A17 node_id_index_map82 0 A20 schema_embeddin
g_map82 0 A5 child12 0 A14 lowest_node_id0 0 1 dA16 mesh_offset_data206 0 Z1 206
 2 3 0 0 0 0 0 0 0 1e3 1e-8 0 4 0 1 0 1 1 5 6 7 0 0 0 8 9 0 0 0 0 0 0 0 0 81 255
 2 2 201 10 1 11 0 0 0 0 12 70 11 CI9 list_type0 0 1 uI10 notransmit0 0 1 lCCCDC
CDI12 finger_index0 0 1 dI12 finger_block1012 0 CZ3 0 4 T1 0 0 9 20 1 13 13 13 2
55 5 29 0 1 0 14 0 0 15 0 54 255 6 130 0 16 17 0 0 +0 0 .00225425 0 0 1 .006223
 127e-6 1 0 0 31 255 7 100 0 9 18 0 0 +0 0 .00238125 0 0 1 1 0 0 .006223 19 8 CC
CCCCCA5 owner12 0 Z8 7 0 1 15 0 19 V0 16 255 9 97 0 ?20 0 21 7 0 0 1 17 255 20 0
 22 20 20 0 23 9 0 0 +16 21 91 0 ?24 9 25 18 0 0 1 17 24 0 26 24 24 0 27 21 0 0
 +16 25 85 0 ?28 21 29 30 0 0 1 31 18 94 0 21 30 7 0 -0 0 -.00238125 0 0 1 1 0 0
 .006223 31 30 88 0 25 31 18 0 +0 0 -.00225425 0 0 1 1 0 0 .00635 31 31 82 0 29
 0 30 0 -0 0 .00225425 0 0 1 1 0 0 .00635 16 29 79 0 ?32 25 0 31 0 0 1 17 32 0 3
3 32 32 0 34 29 0 0 +15 255 33 80 0 32 14 0 17 34 0 35 34 34 0 32 29 0 0 -15 35
 124 0 34 16 36 14 255 16 123 37 ?0 38 35 5 6 +0 0 0 38 19 15 36 125 0 23 16 0 1
7 23 0 36 23 23 0 20 9 0 0 -81 1 37 202 39 16 40 0 0 41 42 14 38 110 41 ?16 43 4
4 5 17 +0 0 16 43 19 13 19 8 0 0 0 0 0 0 8 14 14 14 25 45 ?46 0 47 5 48 -0 0 46
 0 19 81 1 45 204 39 14 49 0 41 50 51 14 46 1 50 ?43 14 22 5 52 +0 0 43 14 19 15
 47 86 0 28 14 33 51 255 48 28 0 14 52 17 0 -0 0 .00238125 0 0 -1 .00635 -1 0 0
 50 255 52 2 0 46 53 48 0 +0 0 .00238125 0 0 1 1 0 0 54 17 117 0 38 48 6 0 +0 0
 -.00225425 0 0 1 .006223 127e-6 1 0 0 50 53 58 0 43 0 52 0 +0 0 -.00238125 0 0
 1 1 0 0 14 43 48 54 ?38 46 26 5 53 -0 0 38 46 19 81 1 54 206 39 43 55 0 50 0 56
 15 26 92 0 24 43 0 80 255 1 39 57 58 9000 1 1 1 1 1 1 1 1 0 FFFFTFTFFFFFFF1 81
 1 55 186 59 43 0 54 60 61 62 81 1 50 205 39 46 60 0 45 54 63 82 255 1 56 471205
90 81 1 60 185 59 46 0 50 49 55 64 82 1 63 42926286 80 1 59 0 65 8001 0 0 0 0 3
 5 0 0 0 FFFFTFTFFFFFFF2 81 1 49 184 59 14 0 45 0 60 66 83 255 3 64 .75294117647
0588 .752941176470588 .752941176470588 83 3 66 .752941176470588 .752941176470588
 .752941176470588 79 255 15 65 SDL/TYSA_COLOUR81 1 61 187 59 38 0 41 55 40 67 83
 3 62 .752941176470588 .752941176470588 .752941176470588 81 1 41 203 39 38 61 0
 37 45 68 81 1 40 188 59 16 0 37 61 0 69 83 3 67 .752941176470588 .7529411764705
88 .752941176470588 83 3 69 .752941176470588 .752941176470588 .752941176470588 8
2 1 68 56164558 79 14 58 SWEntUnchanged17 28 0 47 28 28 0 70 25 0 0 +17 70 0 71
 70 70 0 28 25 0 0 -15 71 112 0 70 38 0 15 22 98 0 20 46 0 82 1 51 44892366 15 4
4 111 0 27 38 71 17 27 0 44 27 27 0 24 21 0 0 -82 1 42 57409742 19 15 30 0 1 0 8
 5 S0 74 4 CI16 index_map_offset0 0 1 dCCZ20 13 9 0 0 72 73 54 74 75 76 40 11 2
 0 0 0 0 0 0 0 0 0 0 0 81 2 72 61 77 1 0 73 0 0 0 78 81 2 73 72 79 1 72 74 0 0 0
 80 81 1 74 140 81 1 73 75 0 0 82 81 2 75 147 83 1 74 76 0 0 0 84 81 2 76 177 85
 1 75 11 0 0 0 0 81 2 11 200 86 1 76 2 0 0 87 0 80 2 86 88 89 8004 0 0 0 0 3 5 0
 0 0 FFTFFFFFFFFFFF2 3 83 1 87 1e3 79 16 89 SDL/TYSA_DENSITY80 2 85 90 91 9000 0
 0 0 0 3 5 0 0 0 FFTFFFFFFFFFFF9 1 79 16 91 BODY_RECIPE_200180 2 83 92 93 9000 0
 0 0 0 3 5 0 0 0 FFTFFFFFFFFFFF9 1 82 1 84 1 79 24 93 BODY_IN_LIGHTWEIGHT_PERM80
 1 81 94 95 9000 1 1 1 1 1 1 1 1 0 FFTFFFFFFFFFFF1 82 1 82 652 79 10 95 BODY_MAT
CH80 2 79 96 97 9000 0 0 0 0 3 5 0 0 0 FFTFFFFFFFFFFF9 1 82 1 80 77 79 30 97 LAS
T_BODY_MODIFYING_FEATURE_ID80 2 77 98 99 9000 0 0 0 0 3 5 0 0 0 FFTFFFFFFFFFFT9
 1 82 1 78 2624 79 19 99 ENT_TIME_STAMP_200180 2 10 100 101 9000 0 0 0 0 3 5 0 0
 0 FFTFFFFFFFFFFF9 1 82 1 12 104 79 12 101 ATOM_ID_20011 0 
