**ABCDEFGHIJKLMNOPQRSTUVWXYZabcdefghijklmnopqrstuvwxyz**************************
**PARASOLID !"#$%&'()*+,-./:;<=>?@[\]^_`{|}~0123456789**************************
**PART1;
MC=AMD64;
MC_MODEL=Intel64 Family 6 Model 158 Stepping 9, GenuineIntel;
MC_ID=unknown;
OS=Windows_NT;
OS_RELEASE=unknown;
FRU=Parasolid Version 33.1, build 260,  4-25-2022;
APPL=SOLIDWORKS 2022-2022207;
SITE=;
USER=unknown;
FORMAT=text;
GUISE=transmit;
KEY=FILEMcMaster 57155K336 - Stainless Steel Ball Bearing_para.x_t;
DATE=Fri Sep  2 13:21:08 2022;
**PART2;
SCH=SCH_3301260_33103;
USFLD_SIZE=0;
**PART3;
**END_OF_HEADER*****************************************************************
T51 : TRANSMIT FILE created by modeller version 330126023 SCH_3301260_33103_1300
6230 0 10 21 CCCCI7 lattice222 0 CCCI4 mesh1006 0 I8 polyline1008 0 CCCCCCCCCCA1
6 mesh_offset_data206 0 Z1 63 2 3 0 0 0 0 0 0 0 0 1e3 1e-8 0 0 0 1 0 1 4 0 81 25
5 2 2 63 5 1 0 0 0 0 0 0 70 11 CI9 list_type0 0 1 uI10 notransmit0 0 1 lCCCDCCDI
12 finger_index0 0 1 dI12 finger_block1012 0 CZ3 0 4 T1 0 0 1 20 1 6 6 11 255 4
 61 0 1 7 8 1 9 0 0 0 12 35 CCCI7 lattice222 0 CCCI4 mesh1006 0 I8 polyline1008
 0 CCCCCCCDI5 owner1040 0 CCCCCCI13 boundary_mesh1006 0 I17 boundary_polyline100
8 0 CCCA16 index_map_offset0 0 1 dA9 index_map82 0 A17 node_id_index_map82 0 A20
 schema_embedding_map82 0 A5 child12 0 A14 lowest_node_id0 0 1 dA16 mesh_offset_
data206 0 Z7 107 10 11 0 0 0 0 0 0 0 1e3 1e-8 4 12 0 1 0 1 1 13 14 0 0 0 0 15 0
 0 0 0 0 0 0 0 0 100 10 CCCCCCCCCA9 precision229 0 Z8 62 4 0 0 1 0 0 0 1 0 0 0 1
 0 0 0 1 0 ?0 11 9 59 0 1 12 16 1 17 4 0 0 12 12 107 18 19 0 0 0 0 0 0 0 1e3 1e-
8 9 20 7 1 0 1 1 21 22 0 0 0 0 23 0 0 0 0 0 0 0 0 0 100 16 60 9 0 0 1 0 0 0 1 0
 0 0 1 0 0 0 1 0 ?0 11 17 57 0 1 20 24 1 25 9 0 0 12 20 107 26 27 0 0 0 0 0 0 0
 1e3 1e-8 17 28 12 1 0 1 1 29 30 0 0 0 0 31 0 0 0 0 0 0 0 0 0 100 24 58 17 0 0 1
 0 0 0 1 0 0 0 1 0 0 0 1 0 ?0 11 25 55 0 1 28 32 1 33 17 0 0 12 28 107 34 35 0 0
 0 0 0 0 0 1e3 1e-8 25 36 20 1 0 1 1 37 38 0 0 0 0 39 0 0 0 0 0 0 0 0 0 100 32 5
6 25 0 0 1 0 0 0 1 0 0 0 1 0 0 0 1 0 ?0 11 33 53 0 1 36 40 1 41 25 0 0 12 36 107
 42 43 0 0 0 0 0 0 0 1e3 1e-8 33 44 28 1 0 1 1 45 46 0 0 0 0 47 0 0 0 0 0 0 0 0
 0 100 40 54 33 0 0 1 0 0 0 1 0 0 0 1 0 0 0 1 0 ?0 11 41 51 0 1 44 48 1 49 33 0
 0 12 44 107 50 51 0 0 0 0 0 0 0 1e3 1e-8 41 52 36 1 0 1 1 53 54 0 0 0 0 55 0 0
 0 0 0 0 0 0 0 100 48 52 41 0 0 1 0 0 0 1 0 0 0 1 0 0 0 1 0 ?0 11 49 49 0 1 52 5
6 1 57 41 0 0 12 52 107 58 59 0 0 0 0 0 0 0 1e3 1e-8 49 60 44 1 0 1 1 61 62 0 0
 0 0 63 0 0 0 0 0 0 0 0 0 100 56 50 49 0 0 1 0 0 0 1 0 0 0 1 0 0 0 1 0 ?0 11 57
 47 0 1 60 64 1 65 49 0 0 12 60 107 66 67 0 0 0 0 0 0 0 1e3 1e-8 57 68 52 1 0 1
 1 69 70 0 0 0 0 71 0 0 0 0 0 0 0 0 0 100 64 48 57 0 0 1 0 0 0 1 0 0 0 1 0 0 0 1
 0 ?0 11 65 45 0 1 68 72 1 73 57 0 0 12 68 107 74 75 0 0 0 0 0 0 0 1e3 1e-8 65 7
6 60 1 0 1 1 77 78 0 0 0 0 79 0 0 0 0 0 0 0 0 0 100 72 46 65 0 0 1 0 0 0 1 0 0 0
 1 0 0 0 1 0 ?0 11 73 43 0 1 76 80 1 81 65 0 0 12 76 107 82 83 0 0 0 0 0 0 0 1e3
 1e-8 73 84 68 1 0 1 1 85 86 0 0 0 0 87 0 0 0 0 0 0 0 0 0 100 80 44 73 0 0 1 0 0
 0 1 0 0 0 1 0 0 0 1 0 ?0 11 81 41 0 1 84 88 1 89 73 0 0 12 84 107 90 91 0 0 0 0
 0 0 0 1e3 1e-8 81 92 76 1 0 1 1 93 94 0 0 0 0 95 0 0 0 0 0 0 0 0 0 100 88 42 81
 0 0 1 0 0 0 1 0 0 0 1 0 0 0 1 0 ?0 11 89 39 0 1 92 96 1 97 81 0 0 12 92 107 98
 99 0 0 0 0 0 0 0 1e3 1e-8 89 100 84 1 0 1 1 101 102 0 0 0 0 103 0 0 0 0 0 0 0 0
 0 100 96 40 89 0 0 1 0 0 0 1 0 0 0 1 0 0 0 1 0 ?0 11 97 37 0 1 100 104 1 105 89
 0 0 12 100 107 106 107 0 0 0 0 0 0 0 1e3 1e-8 97 108 92 1 0 1 1 109 110 0 0 0 0
 111 0 0 0 0 0 0 0 0 0 100 104 38 97 0 0 1 0 0 0 1 0 0 0 1 0 0 0 1 0 ?0 11 105 3
5 0 1 108 112 1 113 97 0 0 12 108 107 114 115 0 0 0 0 0 0 0 1e3 1e-8 105 116 100
 1 0 1 1 117 118 0 0 0 0 119 0 0 0 0 0 0 0 0 0 100 112 36 105 0 0 1 0 0 0 1 0 0
 0 1 0 0 0 1 0 ?0 11 113 33 0 1 116 120 1 121 105 0 0 12 116 107 122 123 0 0 0 0
 0 0 0 1e3 1e-8 113 124 108 1 0 1 1 125 126 0 0 0 0 127 0 0 0 0 0 0 0 0 0 100 12
0 34 113 0 0 1 0 0 0 1 0 0 0 1 0 0 0 1 0 ?0 11 121 31 0 1 124 128 1 129 113 0 0
 12 124 265 130 131 0 0 0 0 0 0 0 1e3 1e-8 121 132 116 1 0 1 1 133 134 135 0 0 0
 136 137 0 0 0 0 0 0 0 0 100 128 32 121 0 0 1 0 0 0 1 0 0 0 1 0 0 0 1 0 ?0 11 12
9 29 0 1 132 138 1 139 121 0 0 12 132 266 140 141 0 0 0 0 0 0 0 1e3 1e-8 129 142
 124 1 0 1 1 143 144 145 0 0 0 146 147 0 0 0 0 0 0 0 0 100 138 30 129 0 0 1 0 0
 0 1 0 0 0 1 0 0 0 1 0 ?0 11 139 27 0 1 142 148 1 149 129 0 0 12 142 620 150 151
 0 0 152 0 0 0 0 1e3 1e-8 139 153 132 1 0 1 1 154 155 156 0 0 0 157 158 0 0 0 0
 0 0 0 0 100 148 28 139 0 0 1 0 0 0 1 0 0 0 1 0 0 0 1 0 ?0 11 149 25 0 1 153 159
 1 160 139 0 0 12 153 107 161 162 0 0 0 0 0 0 0 1e3 1e-8 149 163 142 1 0 1 1 164
 165 0 0 0 0 166 0 0 0 0 0 0 0 0 0 100 159 26 149 0 0 1 0 0 0 1 0 0 0 1 0 0 0 1
 0 ?0 11 160 23 0 1 163 167 1 168 149 0 0 12 163 107 169 170 0 0 0 0 0 0 0 1e3 1
e-8 160 171 153 1 0 1 1 172 173 0 0 0 0 174 0 0 0 0 0 0 0 0 0 100 167 24 160 0 0
 1 0 0 0 1 0 0 0 1 0 0 0 1 0 ?0 11 168 21 0 1 171 175 1 176 160 0 0 12 171 107 1
77 178 0 0 0 0 0 0 0 1e3 1e-8 168 179 163 1 0 1 1 180 181 0 0 0 0 182 0 0 0 0 0
 0 0 0 0 100 175 22 168 0 0 1 0 0 0 1 0 0 0 1 0 0 0 1 0 ?0 11 176 19 0 1 179 183
 1 184 168 0 0 12 179 107 185 186 0 0 0 0 0 0 0 1e3 1e-8 176 187 171 1 0 1 1 188
 189 0 0 0 0 190 0 0 0 0 0 0 0 0 0 100 183 20 176 0 0 1 0 0 0 1 0 0 0 1 0 0 0 1
 0 ?0 11 184 17 0 1 187 191 1 192 176 0 0 12 187 107 193 194 0 0 0 0 0 0 0 1e3 1
e-8 184 195 179 1 0 1 1 196 197 0 0 0 0 198 0 0 0 0 0 0 0 0 0 100 191 18 184 0 0
 1 0 0 0 1 0 0 0 1 0 0 0 1 0 ?0 11 192 15 0 1 195 199 1 200 184 0 0 12 195 107 2
01 202 0 0 0 0 0 0 0 1e3 1e-8 192 203 187 1 0 1 1 204 205 0 0 0 0 206 0 0 0 0 0
 0 0 0 0 100 199 16 192 0 0 1 0 0 0 1 0 0 0 1 0 0 0 1 0 ?0 11 200 13 0 1 203 207
 1 208 192 0 0 12 203 107 209 210 0 0 0 0 0 0 0 1e3 1e-8 200 211 195 1 0 1 1 212
 213 0 0 0 0 214 0 0 0 0 0 0 0 0 0 100 207 14 200 0 0 1 0 0 0 1 0 0 0 1 0 0 0 1
 0 ?0 11 208 11 0 1 211 215 1 216 200 0 0 12 211 107 217 218 0 0 0 0 0 0 0 1e3 1
e-8 208 219 203 1 0 1 1 220 221 0 0 0 0 222 0 0 0 0 0 0 0 0 0 100 215 12 208 0 0
 1 0 0 0 1 0 0 0 1 0 0 0 1 0 ?0 11 216 9 0 1 219 223 1 224 208 0 0 12 219 107 22
5 226 0 0 0 0 0 0 0 1e3 1e-8 216 227 211 1 0 1 1 228 229 0 0 0 0 230 0 0 0 0 0 0
 0 0 0 100 223 10 216 0 0 1 0 0 0 1 0 0 0 1 0 0 0 1 0 ?0 11 224 7 0 1 227 231 1
 232 216 0 0 12 227 107 233 234 0 0 0 0 0 0 0 1e3 1e-8 224 235 219 1 0 1 1 236 2
37 0 0 0 0 238 0 0 0 0 0 0 0 0 0 100 231 8 224 0 0 1 0 0 0 1 0 0 0 1 0 0 0 1 0 ?
0 11 232 5 0 1 235 239 1 240 224 0 0 12 235 107 241 242 0 0 0 0 0 0 0 1e3 1e-8 2
32 243 227 1 0 1 1 244 245 0 0 0 0 246 0 0 0 0 0 0 0 0 0 100 239 6 232 0 0 1 0 0
 0 1 0 0 0 1 0 0 0 1 0 ?0 11 240 3 0 1 243 247 1 248 232 0 0 12 243 101 249 250
 0 0 0 0 0 0 0 1e3 1e-8 240 251 235 1 0 1 1 252 253 0 0 0 0 254 0 0 0 0 0 0 0 0
 0 100 247 4 240 0 0 1 0 0 0 1 0 0 0 1 0 0 0 1 0 ?0 11 248 1 0 1 251 255 1 0 240
 0 0 12 251 449 256 257 0 0 258 0 0 0 0 1e3 1e-8 248 259 243 1 0 1 1 260 261 262
 0 0 0 263 264 0 0 0 0 0 0 0 0 100 255 2 248 0 0 1 0 0 0 1 0 0 0 1 0 0 0 1 0 ?0
 81 1 256 449 265 251 266 0 0 0 0 70 257 0 4 T251 0 0 4 20 1 267 267 133 255 258
 256 0 251 268 0 0 +268 0 -.003205691666666665 .001950508333333335 0 -.003205691
666666665 .001950508333333335 0 6.28318530717959 13 255 260 41 0 251 0 269 0 0 2
70 0 52 255 261 244 0 271 272 0 0 -0 10849052749408e-32 .001919816666666665 0 56
5108790739112e-31 1 .003175 .70710678118655 .707106781186545 0 -1 56510879073911
2e-31 31 255 262 186 0 264 273 0 0 -0 -1084905274940794e-34 -.001919816666666665
 0 565108790739116e-31 1 0 -1 565108790739116e-31 .003175 19 8 CCCCCCCA5 owner12
 0 Z263 45 0 251 270 0 274 V0 16 255 264 183 0 ?275 0 276 262 0 0 251 17 255 275
 0 277 275 275 0 278 264 0 0 +16 276 177 0 ?279 264 280 273 0 0 251 17 279 0 281
 279 279 0 282 276 0 0 +16 280 171 0 ?283 276 284 285 0 0 251 31 273 180 0 276 2
85 262 0 -0 10849052749408e-32 .001919816666666665 0 -565108790739112e-31 -1 0 1
 -565108790739112e-31 .003175 31 285 174 0 280 286 273 0 +0 10849052749408e-32 .
001919816666666665 0 -565108790739112e-31 -1 0 1 -565108790739112e-31 .0035433 3
1 286 168 0 284 287 285 0 -0 1119593536212334e-34 .0019812 0 -565108790739114e-3
1 -1 0 1 -565108790739114e-31 .003481916666666665 16 284 165 0 ?288 280 289 286
 0 0 251 31 287 162 0 289 290 286 0 +0 1119593536212334e-34 .0019812 0 -56510879
0739114e-31 -1 0 1 -565108790739114e-31 .003236383333333335 16 289 159 0 ?291 28
4 292 287 0 0 251 31 290 156 0 292 293 287 0 -0 -111959353621233e-33 -.0019812 0
 565108790739114e-31 1 0 -1 565108790739114e-31 .003481916666666665 16 292 153 0
 ?294 289 295 290 0 0 251 31 293 150 0 295 296 290 0 +0 -111959353621233e-33 -.0
019812 0 565108790739114e-31 1 0 -1 565108790739114e-31 .003236383333333335 16 2
95 147 0 ?297 292 298 293 0 0 251 31 296 144 0 298 299 293 0 +0 -108490527494079
4e-34 -.001919816666666665 0 565108790739116e-31 1 0 -1 565108790739116e-31 .003
5433 16 298 141 0 ?300 295 301 296 0 0 251 31 299 88 0 301 302 296 0 +0 -1345665
30794749e-34 -238125e-9 0 565108790739114e-31 1 0 -1 565108790739114e-31 .003543
3 16 301 69 0 ?303 298 304 299 0 0 251 31 302 87 0 304 0 299 0 +0 13456653079475
4e-34 238125e-9 0 565108790739114e-31 1 0 -1 565108790739114e-31 .0035433 16 304
 64 0 ?305 301 0 302 0 0 251 17 305 0 306 305 305 0 307 304 0 0 +15 255 306 66 0
 305 308 0 17 307 0 309 307 307 0 305 304 0 0 -15 309 117 0 307 310 311 14 255 3
10 72 312 ?308 269 309 260 313 -0 0 308 269 274 15 311 71 0 303 310 0 17 303 0 3
11 303 303 0 314 301 0 0 +17 314 0 315 314 314 0 303 301 0 0 -15 315 118 0 314 2
69 0 14 269 75 316 ?310 0 317 260 318 -0 0 310 0 274 81 1 316 440 319 269 320 0
 312 321 322 15 317 142 0 300 269 315 51 255 318 82 0 269 313 323 0 -0 0 -430897
9560989785e-33 0 565108790739114e-31 1 .0035433 0 -1 565108790739114e-31 13 274
 44 0 0 0 0 0 0 263 269 54 255 313 81 0 310 324 318 0 +0 0 10775080004944e-32 0
 565108790739114e-31 1 .0038608 396875e-9 0 -1 565108790739114e-31 52 323 205 0
 325 318 326 0 +0 -1084905274940794e-34 -.001919816666666665 0 565108790739116e-
31 1 .0035433 .707106781186548 .707106781186548 0 -1 565108790739116e-31 14 325
 198 321 ?327 328 329 260 323 +0 0 327 328 274 52 326 218 0 327 323 272 0 +0 111
9593536212334e-34 .0019812 0 -565108790739112e-31 -1 .003481916666666665 .707106
78118655 .707106781186545 0 1 -565108790739112e-31 14 327 211 330 ?331 325 332 2
60 326 +0 0 331 325 274 52 272 231 0 331 326 261 0 -0 -111959353621233e-33 -.001
9812 0 -565108790739116e-31 -1 .003236383333333335 .707106781186548 .70710678118
6548 0 1 -565108790739116e-31 14 331 224 333 ?271 327 334 260 272 +0 0 271 327 2
74 81 1 333 443 319 331 335 0 330 336 337 14 271 237 336 ?0 331 338 260 261 +0 0
 0 331 274 15 334 225 0 278 331 339 17 278 0 334 278 278 0 275 264 0 0 -15 339 2
26 0 340 331 0 17 340 0 339 340 340 0 297 295 0 0 -17 297 0 341 297 297 0 340 29
5 0 0 +15 341 148 0 297 328 0 14 328 52 342 ?325 343 344 260 345 -0 0 325 343 27
4 81 1 342 445 319 328 346 0 336 347 348 14 343 57 347 ?328 349 277 260 350 -0 0
 328 349 274 15 344 154 0 294 328 341 50 255 345 77 0 328 0 350 0 +0 .0035433 -.
0019812 0 565108790739114e-31 1 0 -1 565108790739114e-31 51 350 78 0 343 345 351
 0 +0 0 -4308979560989785e-33 0 565108790739114e-31 1 .003175 0 -1 5651087907391
14e-31 50 351 79 0 349 350 324 0 +0 .003175 .0019812 0 -565108790739114e-31 -1 0
 1 -565108790739114e-31 14 349 62 352 ?343 308 353 260 351 -0 0 343 308 274 51 3
24 80 0 308 351 313 0 -0 0 -4308979560989785e-33 0 565108790739114e-31 1 .003543
3 0 -1 565108790739114e-31 14 308 67 354 ?349 310 355 260 324 -0 0 349 310 274 8
1 1 354 448 319 308 356 0 352 0 357 15 355 172 0 283 308 306 17 283 0 355 283 28
3 0 358 280 0 0 +17 358 0 332 358 358 0 283 280 0 0 -15 332 212 0 358 327 359 15
 359 213 0 360 327 0 17 360 0 359 360 360 0 288 284 0 0 -17 288 0 353 288 288 0
 360 284 0 0 +15 353 166 0 288 349 361 15 361 160 0 291 349 0 17 291 0 361 291 2
91 0 362 289 0 0 +17 362 0 338 362 362 0 291 289 0 0 -15 338 238 0 362 271 363 1
5 363 239 0 282 271 0 17 282 0 363 282 282 0 279 276 0 0 -80 255 1 319 364 365 9
000 1 1 1 1 1 1 1 1 0 FFFFTFTFFFFFFF1 81 1 356 408 366 308 0 354 367 368 369 81
 1 352 447 319 349 368 0 347 354 370 82 255 1 357 -385547540 81 1 368 409 366 34
9 0 352 356 371 372 81 1 347 446 319 343 371 0 342 352 373 82 1 370 -386137364 8
1 1 371 410 366 343 0 347 368 346 374 82 1 373 -386727188 80 1 366 0 375 8001 0
 0 0 0 3 5 0 0 0 FFFFTFTFFFFFFF2 81 1 346 411 366 328 0 342 371 376 377 83 255 3
 374 .752941176470588 .752941176470588 .752941176470588 81 1 376 412 366 325 0 3
21 346 378 379 83 3 377 .752941176470588 .752941176470588 .752941176470588 81 1
 321 441 319 325 376 0 316 330 380 81 1 378 413 366 327 0 330 376 335 381 83 3 3
79 .752941176470588 .752941176470588 .752941176470588 81 1 330 442 319 327 378 0
 321 333 382 81 1 335 414 366 331 0 333 378 383 384 83 3 381 .752941176470588 .7
52941176470588 .752941176470588 81 1 383 415 366 271 0 336 335 0 385 83 3 384 .7
52941176470588 .752941176470588 .752941176470588 81 1 336 444 319 271 383 0 333
 342 386 83 3 385 .752941176470588 .752941176470588 .752941176470588 82 1 386 -3
59726356 82 1 382 -362216724 82 1 380 -363461908 79 255 15 375 SDL/TYSA_COLOUR83
 3 372 .752941176470588 .752941176470588 .752941176470588 81 1 367 407 366 310 0
 312 320 356 387 83 3 369 .752941176470588 .752941176470588 .752941176470588 81
 1 312 439 319 310 367 0 0 316 388 81 1 320 406 366 269 0 316 0 367 389 83 3 387
 .752941176470588 .752941176470588 .752941176470588 83 3 389 .752941176470588 .7
52941176470588 .752941176470588 82 1 388 -384957719 79 14 365 SWEntUnchanged17 2
94 0 344 294 294 0 390 292 0 0 +17 390 0 329 390 390 0 294 292 0 0 -15 329 199 0
 390 325 391 15 391 200 0 392 325 0 17 392 0 391 392 392 0 300 298 0 0 -17 300 0
 317 300 300 0 392 298 0 0 +15 277 184 0 275 343 281 15 281 178 0 279 343 0 82 1
 348 -387317012 82 1 337 -360971540 82 1 322 -384630036 19 270 40 0 251 0 263 26
0 S0 31 268 255 0 251 393 258 394 +0 1102249405576566e-34 .001950508333333335 0
 565108790739112e-31 1 0 -1 565108790739112e-31 .003205691666666665 31 393 254 0
 251 395 268 0 +0 1102249405576566e-34 .001950508333333335 0 565108790739112e-31
 1 0 -1 565108790739112e-31 .003205691666666665 141 255 394 258 394 394 268 133
 395 253 0 251 396 393 0 +396 1138843108745164e-34 .00092993596973272 -.00032524
73636005975 865956445060855e-27 7071.0709868655 7071.06973168212 -.003175 1e4 30
 255 396 252 0 251 397 395 398 +3888253587292845e-34 .003175 .001919816666666665
 865956056235496e-31 .70710678118655 .707106781186545 30 397 251 0 251 399 396 0
 +3888253587292845e-34 .003175 .001919816666666665 865956056235496e-31 .70710678
118655 .707106781186545 141 398 395 398 398 396 30 399 250 0 251 400 397 0 +3888
253587292845e-34 .003175 .001919816666666665 865956056235496e-31 .70710678118655
 .707106781186545 30 400 249 0 251 0 399 0 +3888253587292845e-34 .003175 .001919
816666666665 865956056235496e-31 .70710678118655 .707106781186545 74 4 CI16 inde
x_map_offset0 0 1 dCCZ20 267 4 0 0 354 383 266 256 0 0 0 0 0 0 0 0 0 0 0 0 0 0 0
 0 81 2 266 437 401 251 0 256 0 0 402 0 80 2 401 403 404 8004 0 0 0 0 3 5 0 0 0
 FFTFFFFFFFFFFF2 3 83 1 402 1e3 79 16 404 SDL/TYSA_DENSITY80 1 265 405 406 8017
 0 0 0 0 0 0 0 0 0 TTTTTTTTTTTTTF3 79 13 406 SDL/TYSA_NAME81 1 249 101 265 243 4
07 0 0 0 0 70 250 0 4 T243 0 0 4 20 1 408 408 13 252 17 0 243 0 409 0 0 410 0 53
 255 253 34 0 409 0 0 0 +0 .0038608 0 396875e-9 -1085771852124042e-31 1 0 1 1085
771852124042e-31 0 19 254 21 0 243 410 0 411 V0 19 410 16 0 243 0 254 252 S0 13
 411 20 0 0 0 0 0 0 254 409 14 409 31 412 ?0 0 0 252 253 +0 0 0 0 411 81 1 412 1
00 319 409 413 0 0 0 414 81 1 413 94 366 409 0 412 0 0 415 82 1 414 -332070162 8
3 3 415 .752941176470588 .752941176470588 .752941176470588 74 20 408 4 0 0 413 4
07 412 249 0 0 0 0 0 0 0 0 0 0 0 0 0 0 0 0 81 2 407 98 401 243 0 249 0 0 416 0 8
3 1 416 1e3 81 1 241 107 265 235 417 0 0 0 0 70 242 0 4 T235 0 0 4 20 1 418 418
 13 244 17 0 235 0 419 0 0 420 0 53 245 34 0 419 0 0 0 +.000890361753762415 .003
756731636334585 58809947145162e-34 396875e-9 .2306158707424405 .973044870579824
 1523258059085215e-33 .973044870579824 -.2306158707424405 1303230558405084e-32 1
9 246 21 0 235 420 0 421 V0 19 420 16 0 235 0 246 244 S0 13 421 20 0 0 0 0 0 0 2
46 419 14 419 31 422 ?0 0 0 244 245 +0 0 0 0 421 81 1 422 106 319 419 423 0 0 0
 424 81 1 423 100 366 419 0 422 0 0 425 82 1 424 -329383185 83 3 425 .7529411764
70588 .752941176470588 .752941176470588 74 20 418 4 0 0 423 417 422 241 0 0 0 0
 0 0 0 0 0 0 0 0 0 0 0 0 81 2 417 104 401 235 0 241 0 0 426 0 83 1 426 1e3 81 1
 233 107 265 227 427 0 0 0 0 70 234 0 4 T227 0 0 4 20 1 428 428 13 236 17 0 227
 0 429 0 0 430 0 53 237 34 0 429 0 0 0 +.00173272387491795 .00345013689776063 23
20693291076645e-35 396875e-9 .448799180200463 .893632640323412 601091300009491e-
32 .893632640323412 -.448799180200463 2536203620077895e-32 19 238 21 0 227 430 0
 431 V0 19 430 16 0 227 0 238 236 S0 13 431 20 0 0 0 0 0 0 238 429 14 429 31 432
 ?0 0 0 236 237 +0 0 0 0 431 81 1 432 106 319 429 433 0 0 0 434 81 1 433 100 366
 429 0 432 0 0 435 82 1 434 -328072465 83 3 435 .752941176470588 .75294117647058
8 .752941176470588 74 20 428 4 0 0 433 427 432 233 0 0 0 0 0 0 0 0 0 0 0 0 0 0 0
 0 81 2 427 104 401 227 0 233 0 0 436 0 83 1 436 1e3 81 1 225 107 265 219 437 0
 0 0 0 70 226 0 4 T219 0 0 4 20 1 438 438 13 228 17 0 219 0 439 0 0 440 0 53 229
 34 0 439 0 0 0 +.002481674403477795 .002957544385993745 51043768775939e-33 3968
75e-9 .642787609686541 .766044443118977 132210341835731e-31 .766044443118977 -.6
42787609686541 3632449288120465e-32 19 230 21 0 219 440 0 441 V0 19 440 16 0 219
 0 230 228 S0 13 441 20 0 0 0 0 0 0 230 439 14 439 31 442 ?0 0 0 228 229 +0 0 0
 0 441 81 1 442 106 319 439 443 0 0 0 444 81 1 443 100 366 439 0 442 0 0 445 82
 1 444 -326761745 83 3 445 .752941176470588 .752941176470588 .752941176470588 74
 20 438 4 0 0 443 437 442 225 0 0 0 0 0 0 0 0 0 0 0 0 0 0 0 0 81 2 437 104 401 2
19 0 225 0 0 446 0 83 1 446 1e3 81 1 217 107 265 211 447 0 0 0 0 70 218 0 4 T211
 0 0 4 20 1 448 448 13 220 17 0 211 0 449 0 0 450 0 53 221 34 0 449 0 0 0 +.0030
9683722258868 .00230550989084611 878908112832459e-34 396875e-9 .802123192755045
 .597158591702785 227649221102481e-31 .597158591702785 -.802123192755045 4532868
67481601e-31 19 222 21 0 211 450 0 451 V0 19 450 16 0 211 0 222 220 S0 13 451 20
 0 0 0 0 0 0 222 449 14 449 31 452 ?0 0 0 220 221 +0 0 0 0 451 81 1 452 106 319
 449 453 0 0 0 454 81 1 453 100 366 449 0 452 0 0 455 82 1 454 -325451025 83 3 4
55 .752941176470588 .752941176470588 .752941176470588 74 20 448 4 0 0 453 447 45
2 217 0 0 0 0 0 0 0 0 0 0 0 0 0 0 0 0 81 2 447 104 401 211 0 217 0 0 456 0 83 1
 456 1e3 81 1 209 107 265 203 457 0 0 0 0 70 210 0 4 T203 0 0 4 20 1 458 458 13
 212 17 0 203 0 459 0 0 460 0 53 213 34 0 459 0 0 0 +.003545048745443365 .001529
18476072397 131761626833617e-33 396875e-9 .918216106880275 .3960797660391545 341
2806331164965e-32 .3960797660391545 -.918216106880275 518891993796289e-31 19 214
 21 0 203 460 0 461 V0 19 460 16 0 203 0 214 212 S0 13 461 20 0 0 0 0 0 0 214 45
9 14 459 31 462 ?0 0 0 212 213 +0 0 0 0 461 81 1 462 106 319 459 463 0 0 0 464 8
1 1 463 100 366 459 0 462 0 0 465 82 1 464 -324140305 83 3 465 .752941176470588
 .752941176470588 .752941176470588 74 20 458 4 0 0 463 457 462 209 0 0 0 0 0 0 0
 0 0 0 0 0 0 0 0 0 81 2 457 104 401 203 0 209 0 0 466 0 83 1 466 1e3 81 1 201 10
7 265 195 467 0 0 0 0 70 202 0 4 T195 0 0 4 20 1 468 468 13 204 17 0 195 0 469 0
 0 470 0 53 205 34 0 469 0 0 0 +.003802145772829535 .000670420884336473 18029112
8405194e-33 396875e-9 .984807753012209 .1736481776669275 466978679043706e-31 .17
36481776669275 -.984807753012209 556523518415233e-31 19 206 21 0 195 470 0 471 V
0 19 470 16 0 195 0 206 204 S0 13 471 20 0 0 0 0 0 0 206 469 14 469 31 472 ?0 0
 0 204 205 +0 0 0 0 471 81 1 472 106 319 469 473 0 0 0 474 81 1 473 100 366 469
 0 472 0 0 475 82 1 474 -322829585 83 3 475 .752941176470588 .752941176470588 .7
52941176470588 74 20 468 4 0 0 473 467 472 201 0 0 0 0 0 0 0 0 0 0 0 0 0 0 0 0 8
1 2 467 104 401 195 0 201 0 0 476 0 83 1 476 1e3 81 1 193 107 265 187 477 0 0 0
 0 70 194 0 4 T187 0 0 4 20 1 478 478 13 196 17 0 187 0 479 0 0 480 0 53 197 34
 0 479 0 0 0 +.00385426813745371 -.0002244855554575795 2308630780068605e-34 3968
75e-9 .998308158271268 -.0581448289104794 597966944692448e-31 -.0581448289104794
 -.998308158271268 564152716105669e-31 19 198 21 0 187 480 0 481 V0 19 480 16 0
 187 0 198 196 S0 13 481 20 0 0 0 0 0 0 198 479 14 479 31 482 ?0 0 0 196 197 +0
 0 0 0 481 81 1 482 106 319 479 483 0 0 0 484 81 1 483 100 366 479 0 482 0 0 485
 82 1 484 -321518865 83 3 485 .752941176470588 .752941176470588 .752941176470588
 74 20 478 4 0 0 483 477 482 193 0 0 0 0 0 0 0 0 0 0 0 0 0 0 0 0 81 2 477 104 40
1 187 0 193 0 0 486 0 83 1 486 1e3 81 1 185 107 265 179 487 0 0 0 0 70 186 0 4 T
179 0 0 4 20 1 488 488 13 188 17 0 179 0 489 0 0 490 0 53 189 34 0 489 0 0 0 +.0
03698605909147635 -.001107289920850992 2807511287455285e-34 396875e-9 .957989512
315488 -.286803232711094 727183818756549e-31 -.286803232711094 -.957989512315488
 541368294845359e-31 19 190 21 0 179 490 0 491 V0 19 490 16 0 179 0 190 188 S0 1
3 491 20 0 0 0 0 0 0 190 489 14 489 31 492 ?0 0 0 188 189 +0 0 0 0 491 81 1 492
 106 319 489 493 0 0 0 494 81 1 493 100 366 489 0 492 0 0 495 82 1 494 -32020814
5 83 3 495 .752941176470588 .752941176470588 .752941176470588 74 20 488 4 0 0 49
3 487 492 185 0 0 0 0 0 0 0 0 0 0 0 0 0 0 0 0 81 2 487 104 401 179 0 185 0 0 496
 0 83 1 496 1e3 81 1 177 107 265 171 497 0 0 0 0 70 178 0 4 T171 0 0 4 20 1 498
 498 13 180 17 0 171 0 499 0 0 500 0 53 181 34 0 499 0 0 0 +.003343550878930955
 -.0019304 3272658028928365e-34 396875e-9 .866025403784437 -.5 847663186108674e-
31 -.5 -.866025403784437 489398568681976e-31 19 182 21 0 171 500 0 501 V0 19 500
 16 0 171 0 182 180 S0 13 501 20 0 0 0 0 0 0 182 499 14 499 31 502 ?0 0 0 180 18
1 +0 0 0 0 501 81 1 502 106 319 499 503 0 0 0 504 81 1 503 100 366 499 0 502 0 0
 505 82 1 504 -318897425 83 3 505 .752941176470588 .752941176470588 .75294117647
0588 74 20 498 4 0 0 503 497 502 177 0 0 0 0 0 0 0 0 0 0 0 0 0 0 0 0 81 2 497 10
4 401 171 0 177 0 0 506 0 83 1 506 1e3 81 1 169 107 265 163 507 0 0 0 0 70 170 0
 4 T163 0 0 4 20 1 508 508 13 172 17 0 163 0 509 0 0 510 0 53 173 34 0 509 0 0 0
 +.002808244155385215 -.00264944171548362 3678994823256285e-34 396875e-9 .727373
641573045 -.686241637868737 952909972869945e-31 -.686241637868737 -.727373641573
045 4110452390048495e-32 19 174 21 0 163 510 0 511 V0 19 510 16 0 163 0 174 172
 S0 13 511 20 0 0 0 0 0 0 174 509 14 509 31 512 ?0 0 0 172 173 +0 0 0 0 511 81 1
 512 106 319 509 513 0 0 0 514 81 1 513 100 366 509 0 512 0 0 515 82 1 514 -3175
86705 83 3 515 .752941176470588 .752941176470588 .752941176470588 74 20 508 4 0
 0 513 507 512 169 0 0 0 0 0 0 0 0 0 0 0 0 0 0 0 0 81 2 507 104 401 163 0 169 0
 0 516 0 83 1 516 1e3 81 1 161 107 265 153 517 0 0 0 0 70 162 0 4 T153 0 0 4 20
 1 518 518 13 164 17 0 153 0 519 0 0 520 0 53 165 34 0 519 0 0 0 +.0021215442625
3575 -.003225651342303075 4004615948680465e-34 396875e-9 .549508978070802 -.8354
87811412939 103725029752395e-30 -.835487811412939 -.549508978070802 310532354097
877e-31 19 166 21 0 153 520 0 521 V0 19 520 16 0 153 0 166 164 S0 13 521 20 0 0
 0 0 0 0 166 519 14 519 31 522 ?0 0 0 164 165 +0 0 0 0 521 81 1 522 106 319 519
 523 0 0 0 524 81 1 523 100 366 519 0 522 0 0 525 82 1 524 -316275985 83 3 525 .
752941176470588 .752941176470588 .752941176470588 74 20 518 4 0 0 523 517 522 16
1 0 0 0 0 0 0 0 0 0 0 0 0 0 0 0 0 81 2 517 104 401 153 0 161 0 0 526 0 83 1 526
 1e3 81 1 150 620 265 142 527 0 0 0 0 70 151 0 4 T142 0 0 4 20 1 528 528 133 152
 348 0 142 529 0 0 +529 0 .00471381666666667 .001538816666666665 0 .004713816666
66667 .001538816666666665 0 6.28318530717959 13 154 77 0 142 0 530 0 0 531 0 52
 155 337 0 532 533 0 0 +0 897110205298346e-34 .0015875 0 -565108790739114e-31 -1
 .00466513333333333 .707106781186548 .707106781186547 0 1 -565108790739114e-31 3
1 156 293 0 158 534 0 0 +0 842087446040048e-34 .001490133333333334 0 -5651087907
39114e-31 -1 0 1 -565108790739114e-31 .0047625 19 157 81 0 142 531 0 535 V0 16 1
58 290 0 ?536 0 537 156 0 0 142 17 536 0 538 536 536 0 539 158 0 0 +16 537 284 0
 ?540 158 541 534 0 0 142 17 540 0 542 540 540 0 543 537 0 0 +16 541 278 0 ?544
 537 545 546 0 0 142 31 534 287 0 537 546 156 0 -0 897110205298346e-34 .0015875
 0 -565108790739114e-31 -1 0 1 -565108790739114e-31 .00466513333333333 31 546 28
1 0 541 547 534 0 -0 -3229596739074015e-35 -5715e-7 0 -565108790739114e-31 -1 0
 1 -565108790739114e-31 .00526203333333333 31 547 275 0 545 548 546 0 -0 -897110
205298341e-34 -.0015875 0 565108790739114e-31 1 0 -1 565108790739114e-31 .005262
03333333333 16 545 272 0 ?549 541 550 547 0 0 142 31 548 269 0 550 551 547 0 +0
 -842087446040043e-34 -.001490133333333334 0 565108790739114e-31 1 0 -1 56510879
0739114e-31 .0053594 16 550 266 0 ?552 545 553 548 0 0 142 31 551 263 0 553 554
 548 0 +0 -3779824331656995e-35 -.000668866666666667 0 -565108790739114e-31 -1 0
 1 -565108790739114e-31 .0053594 16 553 260 0 ?555 550 556 551 0 0 142 31 554 16
5 0 556 557 551 0 +0 -134566530794749e-34 -238125e-9 0 565108790739114e-31 1 0 -
1 565108790739114e-31 .0041783 16 556 130 0 ?558 553 559 554 0 0 142 31 557 164
 0 559 560 554 0 +0 134566530794754e-34 238125e-9 0 565108790739114e-31 1 0 -1 5
65108790739114e-31 .0041783 16 559 125 0 ?561 556 562 557 0 0 142 31 560 161 0 5
62 563 557 0 +0 -221463240365303e-34 -.000391894877578617 0 565108790739114e-31
 1 0 -1 565108790739114e-31 .0047625 16 562 110 0 ?564 559 565 560 0 0 142 31 56
3 160 0 565 566 560 0 +0 -2722114571363525e-35 -.000481697438789309 0 5651087907
39114e-31 1 0 -1 565108790739114e-31 .00467269743878931 16 565 105 0 ?567 562 56
8 563 0 0 142 31 566 159 0 568 569 563 0 +0 -373707890678451e-34 -.0006613025612
10693 0 565108790739114e-31 1 0 -1 565108790739114e-31 .00467269743878931 16 568
 100 0 ?570 565 571 566 0 0 142 31 569 158 0 571 572 566 0 +0 -373707890678451e-
34 -.000661302561210693 0 565108790739114e-31 1 0 -1 565108790739114e-31 .004852
30256121069 16 571 95 0 ?573 568 574 569 0 0 142 31 572 157 0 574 575 569 0 +0 -
3229596739074015e-35 -5715e-7 0 565108790739114e-31 1 0 -1 565108790739114e-31 .
00494210512242138 16 574 90 0 ?576 571 577 572 0 0 142 31 575 405 0 577 578 572
 0 +0 897110205298346e-34 .0015875 0 565108790739114e-31 1 0 -1 565108790739114e
-31 .004373033333333335 16 577 375 0 ?579 574 580 575 0 0 142 31 578 406 0 580 5
81 575 0 +0 76895160454144e-33 .001360714285714286 0 565108790739114e-31 1 0 -1
 565108790739114e-31 .004373033333333335 16 580 376 0 ?582 577 583 578 0 0 142 3
1 581 407 0 583 584 578 0 +0 76895160454144e-33 .001360714285714286 0 5651087907
39114e-31 1 0 -1 565108790739114e-31 .0041783 16 583 377 0 ?585 580 586 581 0 0
 142 31 584 456 0 586 587 581 0 +0 -897110205298341e-34 -.0015875 0 565108790739
114e-31 1 0 -1 565108790739114e-31 .004373033333333335 16 586 427 0 ?588 583 589
 584 0 0 142 31 587 457 0 589 590 584 0 +0 -768951604541435e-34 -.00136071428571
4286 0 565108790739114e-31 1 0 -1 565108790739114e-31 .004373033333333335 16 589
 428 0 ?591 586 592 587 0 0 142 31 590 458 0 592 0 587 0 +0 -768951604541435e-34
 -.001360714285714286 0 565108790739114e-31 1 0 -1 565108790739114e-31 .0041783
 16 592 429 0 ?593 589 0 590 0 0 142 17 593 0 594 593 593 0 595 592 0 0 +15 594
 443 0 593 596 597 17 595 0 598 595 595 0 593 592 0 0 -15 598 414 0 595 599 0 14
 599 416 600 ?601 530 602 154 603 -0 0 601 530 535 81 1 600 601 319 599 604 0 0
 605 606 14 601 371 605 ?607 599 608 154 609 -0 0 607 599 535 14 530 422 610 ?59
9 0 611 154 612 -0 0 599 0 535 15 602 137 0 558 599 598 51 603 153 0 599 613 612
 0 +0 0 -4308979560989785e-33 0 565108790739114e-31 1 .0041783 0 -1 565108790739
114e-31 13 535 80 0 0 0 0 0 0 157 530 54 613 152 0 614 609 603 0 +0 0 1077508000
4944e-32 0 565108790739114e-31 1 .0038608 396875e-9 0 -1 565108790739114e-31 50
 612 154 0 530 603 615 0 +0 .0041783 -.0015875 0 565108790739114e-31 1 0 -1 5651
08790739114e-31 52 615 311 0 616 612 533 0 +0 -842087446040043e-34 -.00149013333
3333334 0 565108790739114e-31 1 .0053594 .707106781186548 .707106781186547 0 -1
 565108790739114e-31 14 616 304 617 ?618 619 620 154 615 +0 0 618 619 535 52 533
 324 0 618 615 155 0 +0 -3229596739074015e-35 -5715e-7 0 -565108790739114e-31 -1
 .00526203333333333 .707106781186549 .707106781186546 0 1 -565108790739114e-31 1
4 618 317 621 ?532 616 622 154 533 +0 0 532 616 535 81 1 621 605 319 618 623 0 6
17 624 625 14 532 330 624 ?626 618 627 154 155 +0 0 626 618 535 15 622 318 0 628
 618 629 17 628 0 622 628 628 0 555 553 0 0 -15 629 319 0 630 618 0 17 630 0 629
 630 630 0 544 541 0 0 -17 544 0 631 544 544 0 630 541 0 0 +15 631 279 0 544 632
 633 14 632 93 634 ?619 635 631 154 636 -0 0 619 635 535 15 633 224 0 637 632 0
 17 637 0 633 637 637 0 576 574 0 0 -17 576 0 638 576 576 0 637 574 0 0 +15 638
 97 0 576 635 0 14 635 98 639 ?632 640 641 154 642 -0 0 632 640 535 81 1 639 608
 319 635 643 0 634 644 645 14 640 103 644 ?635 646 647 154 648 -0 0 635 646 535
 15 641 223 0 649 635 638 52 642 145 0 635 636 648 0 +0 -3229596739074015e-35 -5
715e-7 0 565108790739114e-31 1 .00494210512242138 .707106781186542 .707106781186
553 0 -1 565108790739114e-31 50 636 144 0 632 650 642 0 +0 .0053594 -5715e-7 0 -
565108790739114e-31 -1 0 1 -565108790739114e-31 50 648 146 0 640 642 651 0 +0 .0
0485230256121069 -.000661302561210693 0 -565108790739114e-31 -1 0 1 -56510879073
9114e-31 51 651 147 0 646 648 652 0 -0 0 -4308979560989785e-33 0 565108790739114
e-31 1 .00467269743878931 0 -1 565108790739114e-31 14 646 108 653 ?640 654 655 1
54 651 -0 0 640 654 535 52 652 148 0 654 651 656 0 -0 -2722114571363525e-35 -.00
0481697438789309 0 565108790739114e-31 1 .00467269743878931 .707106781186545 .70
710678118655 0 -1 565108790739114e-31 14 654 113 657 ?646 658 659 154 652 -0 0 6
46 658 535 51 656 149 0 658 652 660 0 -0 0 -4308979560989785e-33 0 5651087907391
14e-31 1 .0047625 0 -1 565108790739114e-31 14 658 118 661 ?654 614 538 154 656 -
0 0 654 614 535 50 660 150 0 607 656 609 0 +0 .0047625 .0015875 0 -5651087907391
14e-31 -1 0 1 -565108790739114e-31 14 607 365 662 ?614 601 542 154 660 -0 0 614
 601 535 51 609 151 0 601 660 613 0 +0 0 -4308979560989785e-33 0 565108790739114
e-31 1 .0041783 0 -1 565108790739114e-31 81 1 662 613 319 607 663 0 661 664 665
 14 614 133 664 ?658 607 666 154 613 -0 0 658 607 535 15 542 285 0 540 607 667 1
5 667 363 0 668 607 0 17 668 0 667 668 668 0 579 577 0 0 -17 579 0 669 579 579 0
 668 577 0 0 +15 669 387 0 579 626 670 14 626 384 671 ?672 532 669 154 673 +0 0
 672 532 535 15 670 388 0 674 626 0 17 674 0 670 674 674 0 582 580 0 0 -17 582 0
 675 582 582 0 674 580 0 0 +15 675 392 0 582 672 676 14 672 389 677 ?678 626 675
 154 679 +0 0 678 626 535 15 676 393 0 680 672 0 17 680 0 676 680 680 0 585 583
 0 0 -17 585 0 681 585 585 0 680 583 0 0 +15 681 369 0 585 601 0 81 1 677 616 31
9 672 682 0 671 683 684 14 678 435 683 ?596 672 685 154 686 +0 0 596 672 535 50
 679 403 0 672 686 673 0 +0 .0041783 .001360714285714286 0 565108790739114e-31 1
 0 -1 565108790739114e-31 51 686 453 0 678 687 679 0 -0 0 -4308979560989785e-33
 0 565108790739114e-31 1 .004373033333333335 0 -1 565108790739114e-31 51 673 402
 0 626 679 650 0 -0 0 -4308979560989785e-33 0 565108790739114e-31 1 .00437303333
3333335 0 -1 565108790739114e-31 51 650 143 0 619 673 636 0 -0 0 -43089795609897
85e-33 0 565108790739114e-31 1 .0053594 0 -1 565108790739114e-31 14 619 88 688 ?
616 632 689 154 650 -0 0 616 632 535 81 1 688 618 319 619 690 0 683 691 692 15 6
89 267 0 552 619 693 17 552 0 689 552 552 0 694 550 0 0 +15 693 261 0 555 619 0
 17 555 0 693 555 555 0 628 553 0 0 +17 694 0 695 694 694 0 552 550 0 0 -15 695
 306 0 694 616 0 81 1 690 552 366 619 0 688 696 697 698 81 1 683 617 319 678 699
 0 677 688 700 81 1 691 619 319 596 701 0 688 0 702 82 1 692 -403963158 14 596 4
40 691 ?0 678 594 154 687 +0 0 0 678 535 81 1 701 559 366 596 0 691 699 0 703 82
 1 702 -232717583 81 1 699 558 366 678 0 683 682 701 704 83 3 703 .7529411764705
88 .752941176470588 .752941176470588 81 1 682 557 366 672 0 677 705 699 706 83 3
 704 .752941176470588 .752941176470588 .752941176470588 81 1 705 556 366 626 0 6
71 707 682 708 83 3 706 .752941176470588 .752941176470588 .752941176470588 81 1
 671 615 319 626 705 0 664 677 709 81 1 707 555 366 532 0 624 623 705 710 83 3 7
08 .752941176470588 .752941176470588 .752941176470588 81 1 624 606 319 532 707 0
 621 634 711 81 1 623 554 366 618 0 621 697 707 712 83 3 710 .752941176470588 .7
52941176470588 .752941176470588 81 1 697 553 366 616 0 617 690 623 713 83 3 712
 .752941176470588 .752941176470588 .752941176470588 81 1 617 604 319 616 697 0 6
10 621 714 83 3 713 .752941176470588 .752941176470588 .752941176470588 81 1 610
 603 319 530 715 0 605 617 716 82 1 714 -375454998 81 1 715 541 366 530 0 610 0
 604 717 81 1 605 602 319 601 718 0 600 610 719 82 1 716 -229833999 81 1 718 543
 366 601 0 605 604 663 720 82 1 719 -234749199 81 1 604 542 366 599 0 600 715 71
8 721 81 1 663 544 366 607 0 662 718 722 723 83 3 720 .752941176470588 .75294117
6470588 .752941176470588 81 1 722 545 366 614 0 664 663 724 725 83 3 723 .752941
176470588 .752941176470588 .752941176470588 81 1 664 614 319 614 722 0 662 671 7
26 81 1 724 546 366 658 0 661 722 727 728 83 3 725 .752941176470588 .75294117647
0588 .752941176470588 81 1 661 612 319 658 724 0 657 662 729 81 1 727 547 366 65
4 0 657 724 730 731 83 3 728 .752941176470588 .752941176470588 .752941176470588
 81 1 657 611 319 654 727 0 653 661 732 81 1 730 548 366 646 0 653 727 733 734 8
3 3 731 .752941176470588 .752941176470588 .752941176470588 81 1 653 610 319 646
 730 0 644 657 735 81 1 733 549 366 640 0 644 730 643 736 83 3 734 .752941176470
588 .752941176470588 .752941176470588 81 1 644 609 319 640 733 0 639 653 737 81
 1 643 550 366 635 0 639 733 696 738 83 3 736 .752941176470588 .752941176470588
 .752941176470588 81 1 696 551 366 632 0 634 643 690 739 83 3 738 .7529411764705
88 .752941176470588 .752941176470588 81 1 634 607 319 632 696 0 624 639 740 83 3
 739 .752941176470588 .752941176470588 .752941176470588 82 1 740 -403373334 82 1
 737 -402193687 82 1 735 -401603863 82 1 732 -401014039 82 1 729 -400424214 82 1
 726 -398654743 83 3 721 .752941176470588 .752941176470588 .752941176470588 83 3
 717 .752941176470588 .752941176470588 .752941176470588 82 1 711 -372964630 82 1
 709 -237763855 50 687 454 0 596 0 686 0 +0 .0041783 -.001360714285714286 0 -565
108790739114e-31 -1 0 1 -565108790739114e-31 82 1 700 -232520975 83 3 698 .75294
1176470588 .752941176470588 .752941176470588 15 685 438 0 591 678 741 17 591 0 6
85 591 591 0 742 589 0 0 +15 741 439 0 743 678 0 17 743 0 741 743 743 0 588 586
 0 0 -17 588 0 744 588 588 0 743 586 0 0 +15 744 420 0 588 530 0 17 742 0 597 74
2 742 0 591 589 0 0 -15 597 444 0 742 596 0 82 1 684 -237567247 15 666 216 0 745
 614 746 17 745 0 666 745 745 0 558 556 0 0 -15 746 132 0 561 614 0 17 561 0 746
 561 561 0 747 559 0 0 +17 747 0 608 747 747 0 561 559 0 0 -15 608 217 0 747 601
 681 17 558 0 602 558 558 0 745 556 0 0 +82 1 665 -235273487 15 538 291 0 536 65
8 748 15 748 117 0 564 658 0 17 564 0 748 564 564 0 749 562 0 0 +17 749 0 659 74
9 749 0 564 562 0 0 -15 659 220 0 749 654 750 15 750 112 0 567 654 0 17 567 0 75
0 567 567 0 751 565 0 0 +17 751 0 655 751 751 0 567 565 0 0 -15 655 221 0 751 64
6 752 15 752 107 0 570 646 0 17 570 0 752 570 570 0 753 568 0 0 +17 753 0 647 75
3 753 0 570 568 0 0 -15 647 222 0 753 640 754 15 754 102 0 573 640 0 17 573 0 75
4 573 573 0 649 571 0 0 +17 649 0 641 649 649 0 573 571 0 0 -82 1 645 -402783511
 15 627 331 0 539 532 755 17 539 0 627 539 539 0 536 158 0 0 -15 755 332 0 543 5
32 0 17 543 0 755 543 543 0 540 537 0 0 -82 1 625 -374209814 15 620 305 0 756 61
6 695 17 756 0 620 756 756 0 549 545 0 0 -17 549 0 611 549 549 0 756 545 0 0 +15
 611 273 0 549 530 744 82 1 606 -230358287 19 531 76 0 142 0 157 154 S0 31 529 3
47 0 142 757 152 758 +0 869598825669197e-34 .001538816666666665 0 -5651087907391
14e-31 -1 0 1 -565108790739114e-31 .00471381666666667 31 757 346 0 142 759 529 0
 +0 869598825669197e-34 .001538816666666665 0 -565108790739114e-31 -1 0 1 -56510
8790739114e-31 .00471381666666667 141 758 152 758 758 529 133 759 345 0 142 760
 757 0 +760 167334014111622e-33 .001366385918193934 .00488624741513939 865956627
549554e-27 7071.07247699882 -7071.06622436547 -.00466513333333332 1e4 30 760 344
 0 142 761 759 762 +571314060426229e-33 .00466513333333333 .0015875 865956056235
494e-31 .707106781186548 -.707106781186547 30 761 343 0 142 763 760 0 +571314060
426229e-33 .00466513333333333 .0015875 865956056235494e-31 .707106781186548 -.70
7106781186547 141 762 759 762 762 760 30 763 342 0 142 764 761 0 +57131406042622
9e-33 -.00466513333333333 .0015875 865956056235494e-31 -.707106781186548 -.70710
6781186547 30 764 341 0 142 0 763 0 +571314060426229e-33 -.00466513333333333 .00
15875 865956056235494e-31 -.707106781186548 -.707106781186547 74 20 528 4 0 0 69
1 701 527 150 0 0 0 0 0 0 0 0 0 0 0 0 0 0 0 0 81 2 527 599 401 142 0 150 0 0 765
 0 83 1 765 1e3 81 1 140 266 265 132 766 0 0 0 0 70 141 0 4 T132 0 0 4 20 1 767
 767 13 143 53 0 132 0 768 0 0 769 0 51 144 106 0 768 770 0 0 -0 0 -430897956098
9785e-33 0 565108790739114e-31 1 .004373033333333335 0 -1 565108790739114e-31 31
 145 114 0 147 771 0 0 +0 800991254730665e-34 .001417410714285712 0 565108790739
114e-31 1 0 -1 565108790739114e-31 .004373033333333335 19 146 57 0 132 769 0 772
 V0 16 147 91 0 ?773 0 774 145 0 0 132 17 773 0 775 773 773 0 776 147 0 0 +16 77
4 86 0 ?777 147 778 771 0 0 132 17 777 0 779 777 777 0 780 774 0 0 +16 778 81 0
 ?781 774 782 783 0 0 132 31 771 113 0 774 783 145 0 +0 800991254730665e-34 .001
417410714285712 0 565108790739114e-31 1 0 -1 565108790739114e-31 .00409990773809
5235 31 783 112 0 778 784 771 0 +0 865070555109118e-34 .00153080357142857 0 5651
08790739114e-31 1 0 -1 565108790739114e-31 .00390350554830841 31 784 111 0 782 7
85 783 0 +0 865070555109118e-34 .00153080357142857 0 565108790739114e-31 1 0 -1
 565108790739114e-31 .003599996428571425 16 782 76 0 ?786 778 787 784 0 0 132 31
 785 110 0 787 788 784 0 +0 833030904919893e-34 .001474107142857144 0 5651087907
39114e-31 1 0 -1 565108790739114e-31 .003599996428571425 16 787 71 0 ?789 782 79
0 785 0 0 132 31 788 109 0 790 791 785 0 +0 833030904919893e-34 .001474107142857
144 0 565108790739114e-31 1 0 -1 565108790739114e-31 .003888313786058965 16 790
 66 0 ?792 787 793 788 0 0 132 31 791 108 0 793 794 788 0 +0 76895160454144e-33
 .001360714285714286 0 565108790739114e-31 1 0 -1 565108790739114e-31 .004084715
975845795 16 793 61 0 ?795 790 796 791 0 0 132 31 794 107 0 796 0 791 0 +0 76895
160454144e-33 .001360714285714286 0 565108790739114e-31 1 0 -1 565108790739114e-
31 .004373033333333335 16 796 59 0 ?797 793 0 794 0 0 132 17 797 0 798 797 797 0
 799 796 0 0 +15 798 96 0 797 768 0 17 799 0 800 799 799 0 797 796 0 0 -15 800 1
47 0 799 801 802 14 801 64 803 ?0 804 800 143 805 -0 0 0 804 772 15 802 63 0 795
 801 0 17 795 0 802 795 795 0 806 793 0 0 +17 806 0 807 806 806 0 795 793 0 0 -1
5 807 148 0 806 804 808 14 804 69 809 ?801 810 807 143 811 -0 0 801 810 772 15 8
08 68 0 792 804 0 17 792 0 808 792 792 0 812 790 0 0 +17 812 0 813 812 812 0 792
 790 0 0 -15 813 149 0 812 810 814 14 810 74 815 ?804 816 813 143 817 -0 0 804 8
16 772 15 814 73 0 789 810 0 17 789 0 814 789 789 0 818 787 0 0 +17 818 0 819 81
8 818 0 789 787 0 0 -15 819 150 0 818 816 820 14 816 79 821 ?810 822 819 143 823
 -0 0 810 822 772 15 820 78 0 786 816 0 17 786 0 820 786 786 0 824 782 0 0 +17 8
24 0 825 824 824 0 786 782 0 0 -15 825 151 0 824 822 826 14 822 84 827 ?816 828
 825 143 829 -0 0 816 828 772 15 826 83 0 781 822 0 17 781 0 826 781 781 0 830 7
78 0 0 +17 830 0 831 830 830 0 781 778 0 0 -15 831 152 0 830 828 779 14 828 89 8
32 ?822 833 831 143 834 -0 0 822 833 772 15 779 88 0 777 828 0 81 1 832 263 319
 828 835 0 827 836 837 14 833 94 836 ?828 768 838 143 770 -0 0 828 768 772 52 83
4 104 0 828 829 770 0 -0 800991254730665e-34 .001417410714285712 0 -565108790739
114e-31 -1 .004099907738095235 .866025403784439 .5 0 1 -565108790739114e-31 13 7
72 56 0 0 0 0 0 0 146 768 14 768 97 839 ?833 0 840 143 144 -0 0 833 0 772 81 1 8
39 265 319 768 841 0 836 0 842 15 840 154 0 776 768 798 17 776 0 840 776 776 0 7
73 147 0 0 -81 1 841 231 366 768 0 839 0 843 844 81 1 836 264 319 833 843 0 832
 839 845 82 1 842 -159448333 81 1 843 232 366 833 0 836 841 835 846 82 1 845 -15
9776013 81 1 835 233 366 828 0 832 843 847 848 83 3 846 .752941176470588 .752941
176470588 .752941176470588 81 1 847 234 366 822 0 827 835 849 850 83 3 848 .7529
41176470588 .752941176470588 .752941176470588 81 1 827 262 319 822 847 0 821 832
 851 81 1 849 235 366 816 0 821 847 852 853 83 3 850 .752941176470588 .752941176
470588 .752941176470588 81 1 821 261 319 816 849 0 815 827 854 81 1 852 236 366
 810 0 815 849 855 856 83 3 853 .752941176470588 .752941176470588 .7529411764705
88 81 1 815 260 319 810 852 0 809 821 857 81 1 855 237 366 804 0 809 852 858 859
 83 3 856 .752941176470588 .752941176470588 .752941176470588 81 1 809 259 319 80
4 855 0 803 815 860 81 1 858 238 366 801 0 803 855 0 861 83 3 859 .7529411764705
88 .752941176470588 .752941176470588 81 1 803 258 319 801 858 0 0 809 862 83 3 8
61 .752941176470588 .752941176470588 .752941176470588 82 1 862 -163314957 82 1 8
60 -162725133 82 1 857 -162135309 82 1 854 -161545485 82 1 851 -160955661 83 3 8
44 .752941176470588 .752941176470588 .752941176470588 50 829 103 0 822 823 834 0
 +0 .00390350554830841 .00153080357142857 0 -565108790739114e-31 -1 0 1 -5651087
90739114e-31 50 770 105 0 833 834 144 0 +0 .004373033333333335 .0014174107142857
12 0 -565108790739114e-31 -1 0 1 -565108790739114e-31 51 823 102 0 816 817 829 0
 +0 0 -4308979560989785e-33 0 565108790739114e-31 1 .003599996428571425 0 -1 565
108790739114e-31 50 817 101 0 810 811 823 0 +0 .003888313786058965 .001474107142
857142 0 565108790739114e-31 1 0 -1 565108790739114e-31 52 811 100 0 804 805 817
 0 +0 833030904919893e-34 .001474107142857144 0 -565108790739114e-31 -1 .0038883
13786058965 .86602540378444 .5 0 1 -565108790739114e-31 50 805 99 0 801 0 811 0
 +0 .004373033333333335 .001360714285714286 0 565108790739114e-31 1 0 -1 5651087
90739114e-31 15 838 153 0 780 833 775 17 780 0 838 780 780 0 777 774 0 0 -15 775
 93 0 773 833 0 82 1 837 -160365837 19 769 52 0 132 0 146 143 S0 74 20 767 4 0 0
 839 858 766 140 0 0 0 0 0 0 0 0 0 0 0 0 0 0 0 0 81 2 766 256 401 132 0 140 0 0
 863 0 83 1 863 1e3 81 1 130 265 265 124 864 0 0 0 0 70 131 0 4 T124 0 0 4 20 1
 865 865 13 133 53 0 124 0 866 0 0 867 0 51 134 106 0 866 868 0 0 -0 0 -43089795
60989785e-33 0 565108790739114e-31 1 .004373033333333335 0 -1 565108790739114e-3
1 31 135 114 0 137 869 0 0 +0 -80099125473066e-33 -.001417410714285712 0 5651087
90739114e-31 1 0 -1 565108790739114e-31 .004373033333333335 19 136 57 0 124 867
 0 870 V0 16 137 91 0 ?871 0 872 135 0 0 124 17 871 0 873 871 871 0 874 137 0 0
 +16 872 86 0 ?875 137 876 869 0 0 124 17 875 0 877 875 875 0 878 872 0 0 +16 87
6 81 0 ?879 872 880 881 0 0 124 31 869 113 0 872 881 135 0 +0 -80099125473066e-3
3 -.001417410714285712 0 565108790739114e-31 1 0 -1 565108790739114e-31 .0040999
07738095235 31 881 112 0 876 882 869 0 +0 -865070555109114e-34 -.001530803571428
57 0 565108790739114e-31 1 0 -1 565108790739114e-31 .003903505548308405 31 882 1
11 0 880 883 881 0 +0 -865070555109114e-34 -.00153080357142857 0 565108790739114
e-31 1 0 -1 565108790739114e-31 .003599996428571425 16 880 76 0 ?884 876 885 882
 0 0 124 31 883 110 0 885 886 882 0 +0 -833030904919889e-34 -.001474107142857144
 0 565108790739114e-31 1 0 -1 565108790739114e-31 .003599996428571425 16 885 71
 0 ?887 880 888 883 0 0 124 31 886 109 0 888 889 883 0 +0 -833030904919888e-34 -
.001474107142857142 0 565108790739114e-31 1 0 -1 565108790739114e-31 .0038883137
86058965 16 888 66 0 ?890 885 891 886 0 0 124 31 889 108 0 891 892 886 0 +0 -768
951604541435e-34 -.001360714285714286 0 565108790739114e-31 1 0 -1 5651087907391
14e-31 .004084715975845795 16 891 61 0 ?893 888 894 889 0 0 124 31 892 107 0 894
 0 889 0 +0 -768951604541435e-34 -.001360714285714286 0 565108790739114e-31 1 0
 -1 565108790739114e-31 .004373033333333335 16 894 59 0 ?895 891 0 892 0 0 124 1
7 895 0 896 895 895 0 897 894 0 0 +15 896 63 0 895 898 0 17 897 0 899 897 897 0
 895 894 0 0 -15 899 154 0 897 866 873 14 866 97 900 ?901 0 899 133 134 -0 0 901
 0 870 15 873 96 0 871 866 0 81 1 900 257 319 866 902 0 0 903 904 14 901 94 903
 ?905 866 906 133 868 -0 0 905 866 870 13 870 56 0 0 0 0 0 0 136 866 81 1 903 25
8 319 901 907 0 900 908 909 14 905 89 908 ?910 901 911 133 912 -0 0 910 901 870
 15 906 147 0 874 901 877 50 868 105 0 901 912 134 0 +0 .004373033333333335 -.00
1417410714285712 0 565108790739114e-31 1 0 -1 565108790739114e-31 52 912 104 0 9
05 913 868 0 -0 -865070555109114e-34 -.00153080357142857 0 565108790739114e-31 1
 .003903505548308405 .866025403784441 .5 0 -1 565108790739114e-31 50 913 103 0 9
10 914 912 0 +0 .003903505548308405 -.00153080357142857 0 565108790739114e-31 1
 0 -1 565108790739114e-31 14 910 84 915 ?916 905 917 133 913 -0 0 916 905 870 51
 914 102 0 916 918 913 0 +0 0 -4308979560989785e-33 0 565108790739114e-31 1 .003
599996428571425 0 -1 565108790739114e-31 14 916 79 919 ?920 910 921 133 914 -0 0
 920 910 870 50 918 101 0 920 922 914 0 +0 .003888313786058965 -.001474107142857
144 0 -565108790739114e-31 -1 0 1 -565108790739114e-31 14 920 74 923 ?924 916 92
5 133 918 -0 0 924 916 870 52 922 100 0 924 926 918 0 +0 -768951604541435e-34 -.
001360714285714286 0 565108790739114e-31 1 .004084715975845795 .86602540378444 .
5 0 -1 565108790739114e-31 14 924 69 927 ?898 920 928 133 922 -0 0 898 920 870 5
0 926 99 0 898 0 922 0 +0 .004373033333333335 -.001360714285714286 0 -5651087907
39114e-31 -1 0 1 -565108790739114e-31 14 898 64 929 ?0 924 930 133 926 -0 0 0 92
4 870 81 1 929 264 319 898 931 0 927 0 932 15 930 153 0 933 898 896 17 933 0 930
 933 933 0 893 891 0 0 -17 893 0 934 893 893 0 933 891 0 0 +15 934 68 0 893 924
 0 81 1 931 237 366 898 0 929 935 0 936 81 1 927 263 319 924 935 0 923 929 937 8
2 1 932 -149945613 81 1 935 236 366 924 0 927 938 931 939 81 1 923 262 319 920 9
38 0 919 927 940 82 1 937 -149355789 81 1 938 235 366 920 0 923 941 935 942 81 1
 919 261 319 916 941 0 915 923 943 82 1 940 -148765965 81 1 941 234 366 916 0 91
9 944 938 945 81 1 915 260 319 910 944 0 908 919 946 82 1 943 -148176141 81 1 94
4 233 366 910 0 915 947 941 948 81 1 908 259 319 905 947 0 903 915 949 82 1 946
 -147586317 81 1 947 232 366 905 0 908 907 944 950 82 1 949 -146996493 81 1 907
 231 366 901 0 903 902 947 951 83 3 950 .752941176470588 .752941176470588 .75294
1176470588 81 1 902 230 366 866 0 900 0 907 952 83 3 951 .752941176470588 .75294
1176470588 .752941176470588 83 3 952 .752941176470588 .752941176470588 .75294117
6470588 83 3 948 .752941176470588 .752941176470588 .752941176470588 83 3 945 .75
2941176470588 .752941176470588 .752941176470588 83 3 942 .752941176470588 .75294
1176470588 .752941176470588 83 3 939 .752941176470588 .752941176470588 .75294117
6470588 83 3 936 .752941176470588 .752941176470588 .752941176470588 15 928 152 0
 953 924 934 17 953 0 928 953 953 0 890 888 0 0 -17 890 0 954 890 890 0 953 888
 0 0 +15 954 73 0 890 920 0 15 925 151 0 955 920 954 17 955 0 925 955 955 0 887
 885 0 0 -17 887 0 956 887 887 0 955 885 0 0 +15 956 78 0 887 916 0 15 921 150 0
 957 916 956 17 957 0 921 957 957 0 884 880 0 0 -17 884 0 958 884 884 0 957 880
 0 0 +15 958 83 0 884 910 0 15 917 149 0 959 910 958 17 959 0 917 959 959 0 879
 876 0 0 -17 879 0 960 879 879 0 959 876 0 0 +15 960 88 0 879 905 0 17 874 0 906
 874 874 0 871 137 0 0 -15 877 93 0 875 901 0 15 911 148 0 878 905 960 17 878 0
 911 878 878 0 875 872 0 0 -82 1 909 -146406669 82 1 904 -146078989 19 867 52 0
 124 0 136 133 S0 74 20 865 4 0 0 929 931 864 130 0 0 0 0 0 0 0 0 0 0 0 0 0 0 0
 0 81 2 864 255 401 124 0 130 0 0 961 0 83 1 961 1e3 81 1 122 107 265 116 962 0
 0 0 0 70 123 0 4 T116 0 0 4 20 1 963 963 13 125 17 0 116 0 964 0 0 965 0 53 126
 34 0 964 0 0 0 +.001320471369351718 -.003627965270330245 42319670860454e-32 396
875e-9 .3420201433256625 -.939692620785911 109613735133791e-30 -.939692620785911
 -.3420201433256625 193278589603184e-31 19 127 21 0 116 965 0 966 V0 19 965 16 0
 116 0 127 125 S0 13 966 20 0 0 0 0 0 0 127 964 14 964 31 967 ?0 0 0 125 126 +0
 0 0 0 966 81 1 967 106 319 964 968 0 0 0 969 81 1 968 100 366 964 0 967 0 0 970
 82 1 969 -314965265 83 3 970 .752941176470588 .752941176470588 .752941176470588
 74 20 963 4 0 0 968 962 967 122 0 0 0 0 0 0 0 0 0 0 0 0 0 0 0 0 81 2 962 104 40
1 116 0 122 0 0 971 0 83 1 971 1e3 81 1 114 107 265 108 972 0 0 0 0 70 115 0 4 T
108 0 0 4 20 1 973 973 13 117 17 0 108 0 974 0 0 975 0 53 118 34 0 974 0 0 0 +.0
00448211522854662 -.003834694651570095 43487916766881e-32 396875e-9 .11609291412
52234 -.993238357741944 1126396517998368e-31 -.993238357741944 -.116092914125223
4 656051263146849e-32 19 119 21 0 108 975 0 976 V0 19 975 16 0 108 0 119 117 S0
 13 976 20 0 0 0 0 0 0 119 974 14 974 31 977 ?0 0 0 117 118 +0 0 0 0 976 81 1 97
7 106 319 974 978 0 0 0 979 81 1 978 100 366 974 0 977 0 0 980 82 1 979 -3136545
45 83 3 980 .752941176470588 .752941176470588 .752941176470588 74 20 973 4 0 0 9
78 972 977 114 0 0 0 0 0 0 0 0 0 0 0 0 0 0 0 0 81 2 972 104 401 108 0 114 0 0 98
1 0 83 1 981 1e3 81 1 106 107 265 100 982 0 0 0 0 70 107 0 4 T100 0 0 4 20 1 983
 983 13 109 17 0 100 0 984 0 0 985 0 53 110 34 0 984 0 0 0 +-.000448211522854717
5 -.00383469465157009 4348791676688095e-34 396875e-9 -.1160929141252374 -.993238
357741942 1126396517998366e-31 -.993238357741942 .1160929141252374 -656051263146
927e-32 19 111 21 0 100 985 0 986 V0 19 985 16 0 100 0 111 109 S0 13 986 20 0 0
 0 0 0 0 111 984 14 984 31 987 ?0 0 0 109 110 +0 0 0 0 986 81 1 987 106 319 984
 988 0 0 0 989 81 1 988 100 366 984 0 987 0 0 990 82 1 989 -312343825 83 3 990 .
752941176470588 .752941176470588 .752941176470588 74 20 983 4 0 0 988 982 987 10
6 0 0 0 0 0 0 0 0 0 0 0 0 0 0 0 0 81 2 982 104 401 100 0 106 0 0 991 0 83 1 991
 1e3 81 1 98 107 265 92 992 0 0 0 0 70 99 0 4 T92 0 0 4 20 1 993 993 13 101 17 0
 92 0 994 0 0 995 0 53 102 34 0 994 0 0 0 +-.00132047136935177 -.003627965270330
225 423196708604539e-33 396875e-9 -.342020143325676 -.939692620785906 1096137351
337906e-31 -.939692620785906 .342020143325676 -193278589603191e-31 19 103 21 0 9
2 995 0 996 V0 19 995 16 0 92 0 103 101 S0 13 996 20 0 0 0 0 0 0 103 994 14 994
 31 997 ?0 0 0 101 102 +0 0 0 0 996 81 1 997 106 319 994 998 0 0 0 999 81 1 998
 100 366 994 0 997 0 0 1000 82 1 999 -311033105 83 3 1000 .752941176470588 .7529
41176470588 .752941176470588 74 20 993 4 0 0 998 992 997 98 0 0 0 0 0 0 0 0 0 0
 0 0 0 0 0 0 81 2 992 104 401 92 0 98 0 0 1001 0 83 1 1001 1e3 81 1 90 107 265 8
4 1002 0 0 0 0 70 91 0 4 T84 0 0 4 20 1 1003 1003 13 93 17 0 84 0 1004 0 0 1005
 0 53 94 34 0 1004 0 0 0 +-.002121544262535795 -.00322565134230305 4004615948680
445e-34 396875e-9 -.549508978070813 -.835487811412932 1037250297523944e-31 -.835
487811412932 .549508978070813 -3105323540978835e-32 19 95 21 0 84 1005 0 1006 V0
 19 1005 16 0 84 0 95 93 S0 13 1006 20 0 0 0 0 0 0 95 1004 14 1004 31 1007 ?0 0
 0 93 94 +0 0 0 0 1006 81 1 1007 106 319 1004 1008 0 0 0 1009 81 1 1008 100 366
 1004 0 1007 0 0 1010 82 1 1009 -309722385 83 3 1010 .752941176470588 .752941176
470588 .752941176470588 74 20 1003 4 0 0 1008 1002 1007 90 0 0 0 0 0 0 0 0 0 0 0
 0 0 0 0 0 81 2 1002 104 401 84 0 90 0 0 1011 0 83 1 1011 1e3 81 1 82 107 265 76
 1012 0 0 0 0 70 83 0 4 T76 0 0 4 20 1 1013 1013 13 85 17 0 76 0 1014 0 0 1015 0
 53 86 34 0 1014 0 0 0 +-.00280824415538525 -.00264944171548358 367899482325626e
-33 396875e-9 -.727373641573055 -.686241637868727 952909972869939e-31 -.68624163
7868727 .727373641573055 -4110452390048545e-32 19 87 21 0 76 1015 0 1016 V0 19 1
015 16 0 76 0 87 85 S0 13 1016 20 0 0 0 0 0 0 87 1014 14 1014 31 1017 ?0 0 0 85
 86 +0 0 0 0 1016 81 1 1017 106 319 1014 1018 0 0 0 1019 81 1 1018 100 366 1014
 0 1017 0 0 1020 82 1 1019 -308411665 83 3 1020 .752941176470588 .75294117647058
8 .752941176470588 74 20 1013 4 0 0 1018 1012 1017 82 0 0 0 0 0 0 0 0 0 0 0 0 0
 0 0 0 81 2 1012 104 401 76 0 82 0 0 1021 0 83 1 1021 1e3 81 1 74 107 265 68 102
2 0 0 0 0 70 75 0 4 T68 0 0 4 20 1 1023 1023 13 77 17 0 68 0 1024 0 0 1025 0 53
 78 34 0 1024 0 0 0 +-.00334355087893098 -.00193039999999997 327265802892834e-33
 396875e-9 -.866025403784443 -.499999999999992 847663186108667e-31 -.49999999999
9992 .866025403784443 -48939856868198e-30 19 79 21 0 68 1025 0 1026 V0 19 1025 1
6 0 68 0 79 77 S0 13 1026 20 0 0 0 0 0 0 79 1024 14 1024 31 1027 ?0 0 0 77 78 +0
 0 0 0 1026 81 1 1027 106 319 1024 1028 0 0 0 1029 81 1 1028 100 366 1024 0 1027
 0 0 1030 82 1 1029 -307100945 83 3 1030 .752941176470588 .752941176470588 .7529
41176470588 74 20 1023 4 0 0 1028 1022 1027 74 0 0 0 0 0 0 0 0 0 0 0 0 0 0 0 0 8
1 2 1022 104 401 68 0 74 0 0 1031 0 83 1 1031 1e3 81 1 66 107 265 60 1032 0 0 0
 0 70 67 0 4 T60 0 0 4 20 1 1033 1033 13 69 17 0 60 0 1034 0 0 1035 0 53 70 34 0
 1034 0 0 0 +-.00369860590914765 -.00110728992085094 2807511287455255e-34 396875
e-9 -.957989512315492 -.2868032327110805 727183818756541e-31 -.2868032327110805
 .957989512315492 -541368294845361e-31 19 71 21 0 60 1035 0 1036 V0 19 1035 16 0
 60 0 71 69 S0 13 1036 20 0 0 0 0 0 0 71 1034 14 1034 31 1037 ?0 0 0 69 70 +0 0
 0 0 1036 81 1 1037 106 319 1034 1038 0 0 0 1039 81 1 1038 100 366 1034 0 1037 0
 0 1040 82 1 1039 -305790225 83 3 1040 .752941176470588 .752941176470588 .752941
176470588 74 20 1033 4 0 0 1038 1032 1037 66 0 0 0 0 0 0 0 0 0 0 0 0 0 0 0 0 81
 2 1032 104 401 60 0 66 0 0 1041 0 83 1 1041 1e3 81 1 58 107 265 52 1042 0 0 0 0
 70 59 0 4 T52 0 0 4 20 1 1043 1043 13 61 17 0 52 0 1044 0 0 1045 0 53 62 34 0 1
044 0 0 0 +-.003854268137453715 -.0002244855554575255 230863078006857e-33 396875
e-9 -.998308158271269 -.0581448289104657 59796694469244e-30 -.0581448289104657 .
998308158271269 -564152716105669e-31 19 63 21 0 52 1045 0 1046 V0 19 1045 16 0 5
2 0 63 61 S0 13 1046 20 0 0 0 0 0 0 63 1044 14 1044 31 1047 ?0 0 0 61 62 +0 0 0
 0 1046 81 1 1047 106 319 1044 1048 0 0 0 1049 81 1 1048 100 366 1044 0 1047 0 0
 1050 82 1 1049 -304479505 83 3 1050 .752941176470588 .752941176470588 .75294117
6470588 74 20 1043 4 0 0 1048 1042 1047 58 0 0 0 0 0 0 0 0 0 0 0 0 0 0 0 0 81 2
 1042 104 401 52 0 58 0 0 1051 0 83 1 1051 1e3 81 1 50 107 265 44 1052 0 0 0 0 7
0 51 0 4 T44 0 0 4 20 1 1053 1053 13 53 17 0 44 0 1054 0 0 1055 0 53 54 34 0 105
4 0 0 0 +-.003802145772829525 .000670420884336527 180291128405191e-33 396875e-9
 -.984807753012206 .1736481776669415 466978679043698e-31 .1736481776669415 .9848
07753012206 -556523518415232e-31 19 55 21 0 44 1055 0 1056 V0 19 1055 16 0 44 0
 55 53 S0 13 1056 20 0 0 0 0 0 0 55 1054 14 1054 31 1057 ?0 0 0 53 54 +0 0 0 0 1
056 81 1 1057 106 319 1054 1058 0 0 0 1059 81 1 1058 100 366 1054 0 1057 0 0 106
0 82 1 1059 -303168785 83 3 1060 .752941176470588 .752941176470588 .752941176470
588 74 20 1053 4 0 0 1058 1052 1057 50 0 0 0 0 0 0 0 0 0 0 0 0 0 0 0 0 81 2 1052
 104 401 44 0 50 0 0 1061 0 83 1 1061 1e3 81 1 42 107 265 36 1062 0 0 0 0 70 43
 0 4 T36 0 0 4 20 1 1063 1063 13 45 17 0 36 0 1064 0 0 1065 0 53 46 34 0 1064 0
 0 0 +-.003545048745443345 .001529184760724015 131761626833614e-33 396875e-9 -.9
1821610688027 .396079766039167 341280633116489e-31 .396079766039167 .91821610688
027 -518891993796286e-31 19 47 21 0 36 1065 0 1066 V0 19 1065 16 0 36 0 47 45 S0
 13 1066 20 0 0 0 0 0 0 47 1064 14 1064 31 1067 ?0 0 0 45 46 +0 0 0 0 1066 81 1
 1067 106 319 1064 1068 0 0 0 1069 81 1 1068 100 366 1064 0 1067 0 0 1070 82 1 1
069 -301858065 83 3 1070 .752941176470588 .752941176470588 .752941176470588 74 2
0 1063 4 0 0 1068 1062 1067 42 0 0 0 0 0 0 0 0 0 0 0 0 0 0 0 0 81 2 1062 104 401
 36 0 42 0 0 1071 0 83 1 1071 1e3 81 1 34 107 265 28 1072 0 0 0 0 70 35 0 4 T28
 0 0 4 20 1 1073 1073 13 37 17 0 28 0 1074 0 0 1075 0 53 38 34 0 1074 0 0 0 +-.0
03096837222588645 .002305509890846155 878908112832434e-34 396875e-9 -.8021231927
55037 .597158591702796 227649221102475e-31 .597158591702796 .802123192755037 -45
3286867481596e-31 19 39 21 0 28 1075 0 1076 V0 19 1075 16 0 28 0 39 37 S0 13 107
6 20 0 0 0 0 0 0 39 1074 14 1074 31 1077 ?0 0 0 37 38 +0 0 0 0 1076 81 1 1077 10
6 319 1074 1078 0 0 0 1079 81 1 1078 100 366 1074 0 1077 0 0 1080 82 1 1079 -300
547345 83 3 1080 .752941176470588 .752941176470588 .752941176470588 74 20 1073 4
 0 0 1078 1072 1077 34 0 0 0 0 0 0 0 0 0 0 0 0 0 0 0 0 81 2 1072 104 401 28 0 34
 0 0 1081 0 83 1 1081 1e3 81 1 26 107 265 20 1082 0 0 0 0 70 27 0 4 T20 0 0 4 20
 1 1083 1083 13 29 17 0 20 0 1084 0 0 1085 0 53 30 34 0 1084 0 0 0 +-.0024816744
03477755 .002957544385993785 510437687759369e-34 396875e-9 -.64278760968653 .766
044443118986 1322103418357256e-32 .766044443118986 .64278760968653 -363244928812
04e-30 19 31 21 0 20 1085 0 1086 V0 19 1085 16 0 20 0 31 29 S0 13 1086 20 0 0 0
 0 0 0 31 1084 14 1084 31 1087 ?0 0 0 29 30 +0 0 0 0 1086 81 1 1087 106 319 1084
 1088 0 0 0 1089 81 1 1088 100 366 1084 0 1087 0 0 1090 82 1 1089 -299236625 83
 3 1090 .752941176470588 .752941176470588 .752941176470588 74 20 1083 4 0 0 1088
 1082 1087 26 0 0 0 0 0 0 0 0 0 0 0 0 0 0 0 0 81 2 1082 104 401 20 0 26 0 0 1091
 0 83 1 1091 1e3 81 1 18 107 265 12 1092 0 0 0 0 70 19 0 4 T12 0 0 4 20 1 1093 1
093 13 21 17 0 12 0 1094 0 0 1095 0 53 22 34 0 1094 0 0 0 +-.0017327238749179 .0
03450136897760655 232069329107651e-34 396875e-9 -.448799180200451 .8936326403234
18 601091300009457e-32 .893632640323418 .448799180200451 -2536203620077825e-32 1
9 23 21 0 12 1095 0 1096 V0 19 1095 16 0 12 0 23 21 S0 13 1096 20 0 0 0 0 0 0 23
 1094 14 1094 31 1097 ?0 0 0 21 22 +0 0 0 0 1096 81 1 1097 106 319 1094 1098 0 0
 0 1099 81 1 1098 100 366 1094 0 1097 0 0 1100 82 1 1099 -297925905 83 3 1100 .7
52941176470588 .752941176470588 .752941176470588 74 20 1093 4 0 0 1098 1092 1097
 18 0 0 0 0 0 0 0 0 0 0 0 0 0 0 0 0 81 2 1092 104 401 12 0 18 0 0 1101 0 83 1 11
01 1e3 81 1 10 107 265 7 1102 0 0 0 0 70 11 0 4 T7 0 0 4 20 1 1103 1103 13 13 17
 0 7 0 1104 0 0 1105 0 53 14 34 0 1104 0 0 0 +-.000890361753762361 .003756731636
334595 588099471451547e-35 396875e-9 -.230615870742427 .973044870579827 15232580
5908503e-32 .973044870579827 .230615870742427 -1303230558405004e-32 19 15 21 0 7
 1105 0 1106 V0 19 1105 16 0 7 0 15 13 S0 13 1106 20 0 0 0 0 0 0 15 1104 14 1104
 31 1107 ?0 0 0 13 14 +0 0 0 0 1106 81 1 1107 106 319 1104 1108 0 0 0 1109 81 1
 1108 100 366 1104 0 1107 0 0 1110 82 1 1109 -296615185 83 3 1110 .7529411764705
88 .752941176470588 .752941176470588 74 20 1103 4 0 0 1108 1102 1107 10 0 0 0 0
 0 0 0 0 0 0 0 0 0 0 0 0 81 2 1102 104 401 7 0 10 0 0 1111 0 83 1 1111 1e3 74 20
 6 1 0 0 2 0 0 0 0 0 0 0 0 0 0 0 0 0 0 0 0 0 0 0 80 2 5 1112 1113 9000 0 0 0 0 3
 5 0 0 0 TFFFFFFFFFFFFF9 1 79 18 1113 MULTI_BODY_ID_20011 0 
