**ABCDEFGHIJKLMNOPQRSTUVWXYZabcdefghijklmnopqrstuvwxyz**************************
**PARASOLID !"#$%&'()*+,-./:;<=>?@[\]^_`{|}~0123456789**************************
**PART1;
MC=AMD64;
MC_MODEL=Intel64 Family 6 Model 158 Stepping 9, GenuineIntel;
MC_ID=unknown;
OS=Windows_NT;
OS_RELEASE=unknown;
FRU=Parasolid Version 33.1, build 260,  4-25-2022;
APPL=SOLIDWORKS 2022-2022207;
SITE=;
USER=unknown;
FORMAT=text;
GUISE=transmit;
KEY=ra;
FILEMcMaster 3693N15 - High-Strength HTD Timing Belt Idler Pulley_para.x_t;
DATE=Fri Sep  2 13:19:09 2022;
**PART2;
SCH=SCH_3301260_33103;
USFLD_SIZE=0;
**PART3;
**END_OF_HEADER*****************************************************************
T51 : TRANSMIT FILE created by modeller version 330126023 SCH_3301260_33103_1300
6230 0 12 35 CCCI7 lattice222 0 CCCI4 mesh1006 0 I8 polyline1008 0 CCCCCCCDI5 ow
ner1040 0 CCCCCCI13 boundary_mesh1006 0 I17 boundary_polyline1008 0 CCCA16 index
_map_offset0 0 1 dA9 index_map82 0 A17 node_id_index_map82 0 A20 schema_embeddin
g_map82 0 A5 child12 0 A14 lowest_node_id0 0 1 dA16 mesh_offset_data206 0 Z1 119
5 2 3 0 0 0 0 0 0 0 1e3 1e-8 0 4 0 1 0 1 1 5 6 7 0 0 0 8 9 0 0 0 0 0 0 0 0 81 25
5 2 2 1149 10 1 11 0 0 0 0 12 70 11 CI9 list_type0 0 1 uI10 notransmit0 0 1 lCCC
DCCDI12 finger_index0 0 1 dI12 finger_block1012 0 CZ3 0 4 T1 0 0 10 20 1 13 13 1
3 255 5 113 0 1 0 14 0 0 15 0 52 255 6 485 0 16 17 0 0 +0 -1224646799147352e-33
 .007 0 0 -1 .0074 .707106781186548 .707106781186548 -1 0 0 31 255 7 427 0 9 18
 0 0 -0 -1224646799147352e-33 .007 0 0 -1 -1 0 0 .0074 19 8 CCCCCCCA5 owner12 0
 Z8 117 0 1 15 0 19 V0 16 255 9 424 0 ?20 0 21 7 0 0 1 17 255 20 0 22 20 20 0 23
 9 0 0 +16 21 418 0 ?24 9 25 18 0 0 1 17 24 0 26 24 24 0 27 21 0 0 +16 25 412 0
 ?28 21 29 30 0 0 1 31 18 421 0 21 30 7 0 -0 -1224646799147352e-33 .0058 0 0 1 1
 0 0 .0074 31 30 415 0 25 31 18 0 +0 -1224646799147352e-33 .0059 0 0 1 1 0 0 .00
75 31 31 409 0 29 32 30 0 +0 -1224646799147352e-33 .0069 0 0 -1 -1 0 0 .0075 16
 29 406 0 ?33 25 34 31 0 0 1 31 32 403 0 34 35 31 0 -0 -1224646799147352e-33 -.0
058 0 0 -1 -1 0 0 .0074 16 34 400 0 ?36 29 37 32 0 0 1 31 35 397 0 37 38 32 0 -0
 -1224646799147352e-33 -.007 0 0 1 1 0 0 .0074 16 37 394 0 ?39 34 40 35 0 0 1 31
 38 391 0 40 41 35 0 +0 -1224646799147352e-33 -.0069 0 0 1 1 0 0 .0075 16 40 388
 0 ?42 37 43 38 0 0 1 31 41 385 0 43 44 38 0 +0 -1224646799147352e-33 -.0059 0 0
 -1 -1 0 0 .0075 16 43 382 0 ?45 40 46 41 0 0 1 31 44 242 0 46 47 41 0 +0 -12246
46799147352e-33 -.007 0 0 1 1 0 0 .00511838214055972 16 46 191 0 ?48 43 49 44 0
 0 1 31 47 241 0 49 50 44 0 +0 -1224646799147352e-33 -.0067 0 0 1 1 0 0 .0050091
9107027986 16 49 186 0 ?51 46 52 47 0 0 1 31 50 240 0 52 53 47 0 +0 -12246467991
47352e-33 -.007 0 0 1 1 0 0 .0049 16 52 181 0 ?54 49 55 50 0 0 1 31 53 239 0 55
 56 50 0 +0 -1224646799147352e-33 -.007 0 0 1 1 0 0 .004575 16 55 176 0 ?57 52 5
8 53 0 0 1 31 56 238 0 58 59 53 0 +0 -1224646799147352e-33 -.006925 0 0 1 1 0 0
 .004575 16 58 171 0 ?60 55 61 56 0 0 1 31 59 237 0 62 63 56 0 +0 -1224646799147
352e-33 -.006925 0 0 1 1 0 0 .0045 16 62 551 0 ?64 65 66 59 0 0 1 31 63 236 0 61
 67 59 0 +0 -1224646799147352e-33 .006925 0 0 1 1 0 0 .0045 16 61 161 0 ?68 58 6
9 63 0 0 1 31 67 235 0 69 70 63 0 +0 -1224646799147352e-33 .006925 0 0 1 1 0 0 .
004575 16 69 156 0 ?71 61 72 67 0 0 1 31 70 234 0 72 73 67 0 +0 -122464679914735
2e-33 .007 0 0 1 1 0 0 .004575 16 72 151 0 ?74 69 75 70 0 0 1 31 73 233 0 75 76
 70 0 +0 -1224646799147352e-33 .007 0 0 1 1 0 0 .0049 16 75 146 0 ?77 72 78 73 0
 0 1 31 76 232 0 78 79 73 0 +0 -1224646799147352e-33 .0067 0 0 1 1 0 0 .00500919
107027986 16 78 141 0 ?80 75 81 76 0 0 1 31 79 231 0 81 82 76 0 +0 -122464679914
7352e-33 .007 0 0 1 1 0 0 .00511838214055972 16 81 136 0 ?83 78 84 79 0 0 1 31 8
2 228 0 84 85 79 0 +0 -1224646799147352e-33 .0058 0 0 1 1 0 0 .006 16 84 121 0 ?
86 81 65 82 0 0 1 31 85 227 0 65 87 82 0 +0 -1224646799147352e-33 -.0058 0 0 1 1
 0 0 .006 16 65 119 0 ?88 84 62 85 0 0 1 31 87 711 0 66 89 85 0 +0 -122464679914
7352e-33 .007 0 0 -1 -1 0 0 .00255 16 66 567 0 ?90 62 91 87 0 0 1 31 89 712 0 91
 92 87 0 -0 -1224646799147352e-33 .007 0 0 -1 -1 0 0 .00445 16 91 569 0 ?93 66 9
4 89 0 0 1 31 92 713 0 94 95 89 0 +0 -1224646799147352e-33 .007 0 0 -1 -1 0 0 .0
04175 16 94 570 0 ?96 91 97 92 0 0 1 31 95 714 0 97 98 92 0 +0 -1224646799147352
e-33 .006675 0 0 -1 -1 0 0 .004125 16 97 571 0 ?99 94 100 95 0 0 1 31 98 715 0 1
00 101 95 0 -0 -1224646799147352e-33 .00695 0 0 -1 -1 0 0 .004125 16 100 572 0 ?
102 97 103 98 0 0 1 31 101 716 0 103 104 98 0 +0 -1301042606982604e-33 .006625 0
 0 -1 -1 0 0 .00376064947919592 16 103 573 0 ?105 100 106 101 0 0 1 31 104 717 0
 106 107 101 0 -0 -1224646799147352e-33 .006625 0 0 -1 -1 0 0 .004075 16 106 574
 0 ?108 103 109 104 0 0 1 31 107 718 0 109 110 104 0 -0 -1301042606982604e-33 .0
0662928979980934 0 0 -1 -1 0 0 .00374038676470526 16 109 575 0 ?111 106 112 107
 0 0 1 31 110 719 0 112 113 107 0 -0 -1224646799147352e-33 -.00695 0 0 1 1 0 0 .
004125 16 112 561 0 ?114 109 115 110 0 0 1 31 113 720 0 115 116 110 0 -0 -130104
2606982604e-33 -.00662928979980934 0 0 1 1 0 0 .00374038676470526 16 115 564 0 ?
117 112 118 113 0 0 1 31 116 721 0 118 119 113 0 +0 -1301042606982604e-33 -.0066
25 0 0 1 1 0 0 .00376064947919592 16 118 563 0 ?120 115 121 116 0 0 1 31 119 722
 0 121 122 116 0 -0 -1224646799147352e-33 -.007 0 0 1 1 0 0 .00445 16 121 559 0
 ?123 118 124 119 0 0 1 31 122 723 0 124 125 119 0 +0 -1224646799147352e-33 -.00
7 0 0 1 1 0 0 .004175 16 124 560 0 ?126 121 127 122 0 0 1 31 125 724 0 127 128 1
22 0 +0 -1224646799147352e-33 -.00695 0 0 1 1 0 0 .0045 16 127 558 0 ?129 124 13
0 125 0 0 1 31 128 725 0 130 131 125 0 +0 -1224646799147352e-33 .00695 0 0 -1 -1
 0 0 .0045 16 130 552 0 ?132 127 133 128 0 0 1 31 131 726 0 133 134 128 0 +0 -12
24646799147352e-33 -.00695 0 0 1 1 0 0 .002875 16 133 566 0 ?135 130 136 131 0 0
 1 31 134 727 0 136 137 131 0 -0 -1224646799147352e-33 -.00695 0 0 1 1 0 0 .0025
 16 136 556 0 ?138 133 139 134 0 0 1 31 137 728 0 139 140 134 0 -0 -122464679914
7352e-33 .00695 0 0 -1 -1 0 0 .0025 16 139 557 0 ?141 136 142 137 0 0 1 31 140 7
29 0 142 143 137 0 +0 -1224646799147352e-33 -.007 0 0 1 1 0 0 .00255 16 142 554
 0 ?144 139 145 140 0 0 1 31 143 730 0 145 146 140 0 -0 -1224646799147352e-33 -.
007 0 0 1 1 0 0 .002825 16 145 555 0 ?147 142 148 143 0 0 1 31 146 731 0 148 149
 143 0 +0 -1224646799147352e-33 -.006625 0 0 1 1 0 0 .004125 16 148 562 0 ?150 1
45 151 146 0 0 1 31 149 732 0 151 152 146 0 +0 -1224646799147352e-33 -.0068125 0
 0 1 1 0 0 .002875 16 151 565 0 ?153 148 154 149 0 0 1 31 152 733 0 154 155 149
 0 +0 -1224646799147352e-33 .0068125 0 0 1 1 0 0 .002875 16 154 576 0 ?156 151 1
57 152 0 0 1 31 155 734 0 157 0 152 0 +0 -1224646799147352e-33 .007 0 0 1 1 0 0
 .002875 16 157 568 0 ?158 154 0 155 0 0 1 17 158 0 159 158 158 0 160 157 0 0 +1
5 255 159 624 0 158 161 0 17 160 0 162 160 160 0 158 157 0 0 -15 162 644 0 160 1
63 0 14 255 163 641 164 ?165 166 167 5 168 -0 0 165 166 19 81 1 164 1150 169 163
 170 0 0 171 172 14 165 645 171 ?173 163 174 5 175 +0 0 173 163 19 14 166 637 17
6 ?163 177 178 5 179 -0 0 163 177 19 15 167 643 0 156 163 162 51 255 168 710 0 1
63 0 179 0 -0 -1224646799147352e-33 -.007 0 0 -1 .002875 1 0 0 13 19 116 0 0 0 0
 0 0 8 14 14 14 207 180 ?181 0 182 5 183 -0 0 181 0 19 81 1 180 1153 169 14 184
 0 176 185 186 14 181 204 185 ?187 14 188 5 189 -0 0 187 14 19 15 182 401 0 36 1
4 190 50 255 183 226 0 14 189 191 0 +0 .0075 -.0058 0 0 -1 -1 0 0 51 189 225 0 1
81 192 183 0 -0 -1224646799147352e-33 .007 0 0 1 .0075 1 0 0 52 191 446 0 193 18
3 194 0 +0 -1224646799147352e-33 -.0069 0 0 1 .0075 .707106781186541 .7071067811
86554 1 0 0 14 193 439 195 ?196 197 198 5 191 +0 0 196 197 19 52 194 459 0 196 1
91 17 0 +0 -1224646799147352e-33 -.0058 0 0 -1 .0074 .707106781186554 .707106781
186541 -1 0 0 14 196 452 199 ?200 193 201 5 194 +0 0 200 193 19 52 17 472 0 200
 194 6 0 +0 -1224646799147352e-33 .0059 0 0 1 .0075 .707106781186545 .7071067811
86551 1 0 0 14 200 465 202 ?16 196 203 5 17 +0 0 16 196 19 81 1 202 1157 169 200
 204 0 199 205 206 14 16 478 205 ?207 200 208 5 6 +0 0 207 200 19 15 203 466 0 2
7 200 209 17 27 0 203 27 27 0 24 21 0 0 -15 209 467 0 210 200 0 17 210 0 209 210
 210 0 28 25 0 0 -17 28 0 211 28 28 0 210 25 0 0 +15 211 413 0 28 212 213 14 212
 134 214 ?215 216 211 5 217 -0 0 215 216 19 15 213 407 0 33 212 0 17 33 0 213 33
 33 0 218 29 0 0 +17 218 0 208 218 218 0 33 29 0 0 -15 208 479 0 218 16 219 15 2
19 480 0 23 16 0 17 23 0 219 23 23 0 20 9 0 0 -81 1 214 1159 169 212 220 0 205 2
21 222 14 215 129 221 ?197 212 26 5 223 -0 0 197 212 19 14 216 139 224 ?212 225
 22 5 226 -0 0 212 225 19 51 217 211 0 212 223 226 0 -0 -1224646799147352e-33 .0
07 0 0 1 .0075 1 0 0 50 223 210 0 215 227 217 0 +0 .0075 .0058 0 0 1 1 0 0 50 22
6 212 0 216 217 228 0 +0 .0075 .007 0 0 -1 -1 0 0 52 228 213 0 225 226 229 0 +0
 -1224646799147352e-33 .007 0 0 1 .00511838214055972 .3420201433256665 .93969262
0785909 1 0 0 14 225 144 230 ?216 231 232 5 228 -0 0 216 231 19 52 229 214 0 231
 228 233 0 -0 -1224646799147352e-33 .0067 0 0 -1 .00500919107027986 .34202014332
56675 .939692620785909 -1 0 0 14 231 149 234 ?225 235 236 5 229 -0 0 225 235 19
 50 233 215 0 235 229 237 0 +0 .0049 .007 0 0 -1 -1 0 0 14 235 154 238 ?231 239
 240 5 233 -0 0 231 239 19 51 237 216 0 239 233 241 0 +0 -1224646799147352e-33 .
007 0 0 1 .004575 1 0 0 14 239 159 242 ?235 243 244 5 237 -0 0 235 243 19 50 241
 217 0 243 237 245 0 +0 .0045 .006925 0 0 -1 -1 0 0 14 243 164 246 ?239 247 248
 5 241 -0 0 239 247 19 50 245 219 0 247 241 249 0 +0 .0045 -.006925 0 0 1 1 0 0
 14 247 174 250 ?243 251 252 5 245 -0 0 243 251 19 51 249 220 0 251 245 253 0 +0
 -1224646799147352e-33 .007 0 0 1 .004575 1 0 0 14 251 179 254 ?247 255 256 5 24
9 -0 0 247 255 19 50 253 221 0 255 249 257 0 +0 .0049 -.007 0 0 1 1 0 0 14 255 1
84 258 ?251 259 260 5 253 -0 0 251 259 19 52 257 222 0 259 253 261 0 -0 -1224646
799147352e-33 -.007 0 0 1 .0049 .3420201433256665 .939692620785909 1 0 0 14 259
 189 262 ?255 263 264 5 257 -0 0 255 263 19 52 261 223 0 263 257 192 0 +0 -12246
46799147352e-33 -.0067 0 0 -1 .00500919107027986 .3420201433256665 .939692620785
909 -1 0 0 14 263 194 265 ?259 187 266 5 261 -0 0 259 187 19 50 192 224 0 187 26
1 189 0 +0 .0075 -.007 0 0 1 1 0 0 14 187 199 267 ?263 181 268 5 192 -0 0 263 18
1 19 81 1 267 1172 169 187 269 0 265 270 271 15 268 395 0 39 187 272 17 39 0 268
 39 39 0 273 37 0 0 +15 272 198 0 48 187 0 17 48 0 272 48 48 0 274 46 0 0 +17 27
4 0 266 274 274 0 48 46 0 0 -15 266 319 0 274 263 275 15 275 193 0 51 263 0 17 5
1 0 275 51 51 0 276 49 0 0 +17 276 0 264 276 276 0 51 49 0 0 -15 264 320 0 276 2
59 277 15 277 188 0 54 259 0 17 54 0 277 54 54 0 278 52 0 0 +17 278 0 260 278 27
8 0 54 52 0 0 -15 260 321 0 278 255 279 15 279 183 0 57 255 0 17 57 0 279 57 57
 0 280 55 0 0 +17 280 0 256 280 280 0 57 55 0 0 -15 256 322 0 280 251 281 15 281
 178 0 60 251 0 17 60 0 281 60 60 0 282 58 0 0 +17 282 0 252 282 282 0 60 58 0 0
 -15 252 323 0 282 247 283 15 283 173 0 64 247 0 17 64 0 283 64 64 0 284 62 0 0
 +17 284 0 285 284 284 0 64 62 0 0 -15 285 599 0 284 286 287 14 286 596 270 ?288
 289 285 5 290 -207 207 288 289 19 15 287 600 0 129 286 0 17 129 0 287 129 129 0
 291 127 0 0 +17 291 0 292 291 291 0 129 127 0 0 -15 292 656 0 291 293 0 14 293
 653 294 ?295 173 296 5 297 +0 0 295 173 19 81 1 294 1174 169 293 298 0 270 299
 300 14 295 657 299 ?301 293 302 5 303 -0 0 301 293 19 14 173 649 304 ?293 165 3
05 5 306 +0 0 293 165 19 15 296 655 0 307 293 292 54 255 297 694 0 293 306 303 0
 +0 -1224646799147352e-33 -.00695 0 0 1 .00445 5e-5 1 0 0 54 306 695 0 173 175 2
97 0 +0 -1224646799147352e-33 -.00695 0 0 1 .002825 5e-5 1 0 0 54 303 693 0 295
 297 308 0 +0 -1301042606982604e-33 -.006675 0 0 1 .00376064947919592 5e-5 1 0 0
 54 308 692 0 301 303 309 0 +0 -1224646799147352e-33 -.00695 0 0 1 .004175 5e-5
 1 0 0 14 301 661 310 ?311 295 312 5 308 +0 0 311 295 19 54 309 691 0 311 308 31
3 0 +0 -1301042606982604e-33 .006675 0 0 -1 .00376064947919592 5e-5 -1 0 0 14 31
1 665 314 ?315 301 316 5 309 -0 0 315 301 19 54 313 690 0 315 309 317 0 +0 -1224
646799147352e-33 .006675 0 0 -1 .004075 5e-5 -1 0 0 14 315 669 318 ?319 311 320
 5 313 -0 0 319 311 19 54 317 689 0 319 313 321 0 +0 -1224646799147352e-33 .0069
5 0 0 -1 .00445 5e-5 -1 0 0 14 319 673 322 ?323 315 324 5 317 +0 0 323 315 19 54
 321 688 0 323 317 325 0 +0 -1224646799147352e-33 .00695 0 0 -1 .004175 5e-5 -1
 0 0 14 323 677 326 ?327 319 328 5 321 +0 0 327 319 19 54 325 687 0 327 321 227
 0 +0 -1224646799147352e-33 .00695 0 0 -1 .00255 5e-5 -1 0 0 14 327 681 329 ?0 3
23 330 5 325 +0 0 0 323 19 51 227 209 0 197 325 223 0 -0 -1224646799147352e-33 .
007 0 0 1 .006 1 0 0 14 197 124 331 ?193 215 332 5 227 -0 0 193 215 19 81 1 331
 1183 169 197 333 0 329 334 335 15 332 333 0 336 197 337 17 336 0 332 336 336 0
 86 84 0 0 -15 337 123 0 88 197 0 17 88 0 337 88 88 0 338 65 0 0 +17 338 0 190 3
38 338 0 88 65 0 0 -15 190 334 0 338 14 0 17 86 0 339 86 86 0 336 84 0 0 +15 339
 128 0 86 215 0 80 255 1 169 340 341 9000 1 1 1 1 1 1 1 1 0 FFFFTFTFFFFFFF1 81 1
 333 1023 342 197 0 331 343 344 345 81 1 329 1182 169 327 346 0 326 331 347 81 1
 334 1184 169 207 348 0 331 349 350 82 255 1 335 2136867127 14 207 582 334 ?351
 16 352 5 290 -286 286 351 16 19 81 1 348 1028 342 207 353 334 354 355 356 81 1
 349 1185 169 351 355 0 334 357 358 82 1 350 -2050293445 14 351 587 349 ?289 207
 359 5 360 -0 0 289 207 19 81 1 355 1029 342 351 361 349 348 362 363 81 1 357 11
86 169 289 362 0 349 364 365 82 1 358 -2084306629 14 289 591 357 ?286 351 366 5
 367 -0 0 286 351 19 81 1 362 1030 342 289 368 357 355 369 370 81 1 364 1187 169
 288 371 0 357 372 373 82 1 365 -2084175557 14 288 601 364 ?374 286 375 5 376 -0
 0 374 286 19 81 1 371 1032 342 288 377 364 369 378 379 81 1 372 1188 169 374 37
8 0 364 380 381 82 1 373 -2081029829 14 374 605 372 ?382 288 383 5 384 -0 0 382
 288 19 81 1 378 1033 342 374 385 372 371 386 387 81 1 380 1189 169 382 386 0 37
2 388 389 82 1 381 -2081160901 14 382 609 380 ?390 374 391 5 392 -0 0 390 374 19
 81 1 386 1034 342 382 393 380 378 394 395 81 1 388 1190 169 390 394 0 380 396 3
97 82 1 389 -2081291973 14 390 613 388 ?398 382 399 5 400 -0 0 398 382 19 81 1 3
94 1035 342 390 401 388 386 402 403 81 1 396 1191 169 398 402 0 388 404 405 82 1
 397 -2081423045 14 398 617 396 ?161 390 406 5 407 -0 0 161 390 19 81 1 402 1036
 342 398 408 396 394 409 410 81 1 404 1192 169 161 409 0 396 411 412 82 1 405 -2
081554117 14 161 621 404 ?413 398 414 5 415 -0 0 413 398 19 81 1 409 1037 342 16
1 416 404 402 417 418 81 1 411 1193 169 413 417 0 404 419 420 82 1 412 -20816851
89 14 413 625 411 ?421 161 422 5 423 -0 0 421 161 19 81 1 417 1038 342 413 424 4
11 409 425 426 81 1 419 1194 169 421 425 0 411 427 428 82 1 420 -2082078405 14 4
21 629 419 ?177 413 429 5 430 -0 0 177 413 19 81 1 425 1039 342 421 431 419 417
 432 433 81 1 427 1195 169 177 432 0 419 0 434 82 1 428 -2082275013 14 177 633 4
27 ?166 421 435 5 436 -0 0 166 421 19 81 1 432 1040 342 177 437 427 425 438 439
 82 1 434 -2082143941 80 1 342 0 440 8001 0 0 0 0 3 5 0 0 0 FFFFTFTFFFFFFF2 81 2
 437 767 441 177 0 432 431 442 0 0 81 1 438 1041 342 166 442 176 432 170 443 83
 255 3 439 .752941176470588 .752941176470588 .752941176470588 81 2 442 769 441 1
66 0 438 437 444 0 0 81 1 176 1152 169 166 438 0 171 180 445 81 1 170 1042 342 1
63 444 164 438 446 447 83 3 443 .752941176470588 .752941176470588 .7529411764705
88 81 2 444 771 441 163 0 170 442 448 0 0 81 1 446 1043 342 165 448 171 170 449
 450 83 3 447 .752941176470588 .752941176470588 .752941176470588 81 2 448 773 44
1 165 0 446 444 451 0 0 81 1 171 1151 169 165 446 0 164 176 452 81 1 449 1044 34
2 173 451 304 446 298 453 83 3 450 .752941176470588 .752941176470588 .7529411764
70588 81 2 451 775 441 173 0 449 448 454 0 0 81 1 304 1176 169 173 449 0 299 310
 455 81 1 298 1045 342 293 454 294 449 456 457 83 3 453 .752941176470588 .752941
176470588 .752941176470588 81 2 454 777 441 293 0 298 451 458 0 0 81 1 456 1046
 342 295 458 299 298 459 460 83 3 457 .752941176470588 .752941176470588 .7529411
76470588 81 2 458 779 441 295 0 456 454 461 0 0 81 1 299 1175 169 295 456 0 294
 304 462 81 1 459 1047 342 301 461 310 456 463 464 83 3 460 .752941176470588 .75
2941176470588 .752941176470588 81 2 461 781 441 301 0 459 458 465 0 0 81 1 310 1
177 169 301 459 0 304 314 466 81 1 463 1048 342 311 465 314 459 467 468 83 3 464
 .752941176470588 .752941176470588 .752941176470588 81 2 465 783 441 311 0 463 4
61 469 0 0 81 1 314 1178 169 311 463 0 310 318 470 81 1 467 1049 342 315 469 318
 463 471 472 83 3 468 .752941176470588 .752941176470588 .752941176470588 81 2 46
9 785 441 315 0 467 465 473 0 0 81 1 318 1179 169 315 467 0 314 322 474 81 1 471
 1050 342 319 473 322 467 475 476 83 3 472 .752941176470588 .752941176470588 .75
2941176470588 81 2 473 787 441 319 0 471 469 477 0 0 81 1 322 1180 169 319 471 0
 318 326 478 81 1 475 1051 342 323 477 326 471 346 479 83 3 476 .752941176470588
 .752941176470588 .752941176470588 81 2 477 789 441 323 0 475 473 480 0 0 81 1 3
26 1181 169 323 475 0 322 329 481 81 1 346 1052 342 327 480 329 475 0 482 83 3 4
79 .752941176470588 .752941176470588 .752941176470588 81 2 480 791 441 327 0 346
 477 0 0 0 83 3 482 .752941176470588 .752941176470588 .752941176470588 80 2 441
 483 484 9000 0 0 0 0 3 6 0 0 0 FFFFTFFFFFFFFF9 1 79 255 17 484 ATOM_FACE_ID_200
182 1 481 -2082864837 82 1 478 -2082995909 82 1 474 -2083126981 82 1 470 -208325
8053 82 1 466 -2083389125 82 1 462 -2083520197 82 1 455 -2083782341 82 1 452 -20
84634309 82 1 445 -2084568773 81 2 431 765 441 421 0 425 424 437 0 0 81 2 424 76
3 441 413 0 417 416 431 0 0 81 2 416 761 441 161 0 409 408 424 0 0 81 2 408 759
 441 398 0 402 401 416 0 0 81 2 401 757 441 390 0 394 393 408 0 0 81 2 393 755 4
41 382 0 386 385 401 0 0 81 2 385 753 441 374 0 378 377 393 0 0 81 2 377 751 441
 288 0 371 485 385 0 0 81 2 485 749 441 286 0 369 368 377 0 0 81 1 369 1031 342
 286 485 270 362 371 486 81 2 368 747 441 289 0 362 361 485 0 0 81 2 361 745 441
 351 0 355 353 368 0 0 81 2 353 743 441 207 0 348 0 361 0 0 81 1 270 1173 169 28
6 369 0 267 294 487 83 3 486 .752941176470588 .752941176470588 .752941176470588
 82 1 487 -2080898757 79 15 440 SDL/TYSA_COLOUR15 435 635 0 105 177 488 50 436 7
08 0 177 179 430 0 +0 .00375 .006625 0 0 -1 1 0 0 54 179 709 0 166 168 436 0 -0
 -1301042606982604e-33 .00467708333333337 0 0 -1 .002875 .002135416666666635 1 0
 0 51 430 707 0 421 436 423 0 +0 -1224646799147352e-33 -.007 0 0 -1 .004125 1 0
 0 50 423 706 0 413 430 415 0 +0 .0045 .007 0 0 -1 1 0 0 50 415 705 0 161 423 40
7 0 +0 .0025 .007 0 0 -1 1 0 0 51 407 704 0 398 415 400 0 -0 -1224646799147352e-
33 .007 0 0 1 .002875 1 0 0 54 400 703 0 390 407 392 0 -0 -1301042606982604e-33
 -.00467708333333337 0 0 1 .002875 .002135416666666635 1 0 0 50 392 702 0 382 40
0 384 0 +0 .00375 -.006625 0 0 1 1 0 0 51 384 701 0 374 392 376 0 +0 -1224646799
147352e-33 .007 0 0 1 .004125 1 0 0 50 376 700 0 288 384 290 0 +0 .0045 -.007 0
 0 1 1 0 0 51 290 699 0 286 376 367 0 -0 -1224646799147352e-33 .007 0 0 1 .0045
 1 0 0 51 367 698 0 289 290 360 0 +0 -1224646799147352e-33 .007 0 0 1 .0025 1 0
 0 50 360 697 0 351 367 175 0 +0 .0025 -.007 0 0 1 1 0 0 54 175 696 0 165 360 30
6 0 +0 -1224646799147352e-33 -.00695 0 0 1 .00255 5e-5 1 0 0 17 105 0 435 105 10
5 0 489 103 0 0 +15 488 636 0 108 177 0 17 108 0 488 108 108 0 490 106 0 0 +17 4
90 0 491 490 490 0 108 106 0 0 -15 491 672 0 490 315 0 17 489 0 316 489 489 0 10
5 103 0 0 -15 316 667 0 489 311 492 15 492 668 0 493 311 0 17 493 0 492 493 493
 0 111 109 0 0 -17 111 0 178 111 111 0 493 109 0 0 +15 178 639 0 111 166 494 15
 494 640 0 495 166 0 17 495 0 494 495 495 0 156 154 0 0 -17 156 0 167 156 156 0
 495 154 0 0 +83 3 433 .752941176470588 .752941176470588 .752941176470588 15 429
 631 0 99 421 496 17 99 0 429 99 99 0 497 97 0 0 +15 496 632 0 102 421 0 17 102
 0 496 102 102 0 498 100 0 0 +17 498 0 499 498 498 0 102 100 0 0 -15 499 680 0 4
98 323 0 17 497 0 320 497 497 0 99 97 0 0 -15 320 671 0 497 315 491 83 3 426 .75
2941176470588 .752941176470588 .752941176470588 15 422 627 0 93 413 500 17 93 0
 422 93 93 0 501 91 0 0 +15 500 628 0 96 413 0 17 96 0 500 96 96 0 502 94 0 0 +1
7 502 0 328 502 502 0 96 94 0 0 -15 328 679 0 502 323 499 17 501 0 503 501 501 0
 93 91 0 0 -15 503 676 0 501 319 0 83 3 418 .752941176470588 .752941176470588 .7
52941176470588 15 414 623 0 90 161 159 17 90 0 414 90 90 0 504 66 0 0 +17 504 0
 330 504 504 0 90 66 0 0 -15 330 683 0 504 327 505 15 505 684 0 506 327 0 17 506
 0 505 506 506 0 141 139 0 0 -17 141 0 507 141 141 0 506 139 0 0 +15 507 595 0 1
41 289 0 83 3 410 .752941176470588 .752941176470588 .752941176470588 15 406 619
 0 135 398 508 17 135 0 406 135 135 0 509 133 0 0 +15 508 620 0 510 398 0 17 510
 0 508 510 510 0 153 151 0 0 -17 153 0 511 153 153 0 510 151 0 0 +15 511 616 0 1
53 390 0 17 509 0 512 509 509 0 135 133 0 0 -15 512 652 0 509 173 0 83 3 403 .75
2941176470588 .752941176470588 .752941176470588 15 399 615 0 117 390 511 17 117
 0 399 117 117 0 513 115 0 0 +17 513 0 302 513 513 0 117 115 0 0 -15 302 659 0 5
13 295 514 15 514 660 0 515 295 0 17 515 0 514 515 515 0 120 118 0 0 -17 120 0 3
91 120 120 0 515 118 0 0 +15 391 611 0 120 382 516 15 516 612 0 517 382 0 17 517
 0 516 517 517 0 150 148 0 0 -17 150 0 518 150 150 0 517 148 0 0 +15 518 608 0 1
50 374 0 83 3 395 .752941176470588 .752941176470588 .752941176470588 83 3 387 .7
52941176470588 .752941176470588 .752941176470588 15 383 607 0 114 374 518 17 114
 0 383 114 114 0 519 112 0 0 +17 519 0 312 519 519 0 114 112 0 0 -15 312 663 0 5
19 301 520 15 520 664 0 521 301 0 17 521 0 520 521 521 0 126 124 0 0 -17 126 0 5
22 126 126 0 521 124 0 0 +15 522 604 0 126 288 0 83 3 379 .752941176470588 .7529
41176470588 .752941176470588 15 375 603 0 123 288 522 17 123 0 375 123 123 0 307
 121 0 0 +17 307 0 296 307 307 0 123 121 0 0 -83 3 370 .752941176470588 .7529411
76470588 .752941176470588 15 366 594 0 138 289 507 17 138 0 366 138 138 0 523 13
6 0 0 +17 523 0 174 523 523 0 138 136 0 0 -15 174 647 0 523 165 524 15 524 648 0
 525 165 0 17 525 0 524 525 525 0 144 142 0 0 -17 144 0 359 144 144 0 525 142 0
 0 +15 359 589 0 144 351 526 15 526 590 0 147 351 0 17 147 0 526 147 147 0 527 1
45 0 0 +17 527 0 305 527 527 0 147 145 0 0 -15 305 651 0 527 173 512 83 3 363 .7
52941176470588 .752941176470588 .752941176470588 81 1 354 1027 342 16 0 205 204
 348 528 83 3 356 .752941176470588 .752941176470588 .752941176470588 81 1 205 11
58 169 16 354 0 202 214 529 81 1 204 1026 342 200 0 202 530 354 531 83 3 528 .75
2941176470588 .752941176470588 .752941176470588 81 1 530 1025 342 196 0 199 344
 204 532 83 3 531 .752941176470588 .752941176470588 .752941176470588 81 1 199 11
56 169 196 530 0 195 202 533 81 1 344 1024 342 193 0 195 333 530 534 83 3 532 .7
52941176470588 .752941176470588 .752941176470588 81 1 195 1155 169 193 344 0 185
 199 535 83 3 534 .752941176470588 .752941176470588 .752941176470588 81 1 185 11
54 169 181 536 0 180 195 537 82 1 535 -2130050759 81 1 536 1008 342 181 0 185 18
4 269 538 82 1 537 2146304313 81 1 184 1007 342 14 0 180 0 536 539 81 1 269 1009
 342 187 0 267 536 540 541 83 3 538 .752941176470588 .752941176470588 .752941176
470588 81 1 540 1010 342 263 0 265 269 542 543 83 3 541 .752941176470588 .752941
176470588 .752941176470588 81 1 265 1171 169 263 540 0 262 267 544 81 1 542 1011
 342 259 0 262 540 545 546 83 3 543 .752941176470588 .752941176470588 .752941176
470588 81 1 262 1170 169 259 542 0 258 265 547 81 1 545 1012 342 255 0 258 542 5
48 549 83 3 546 .752941176470588 .752941176470588 .752941176470588 81 1 258 1169
 169 255 545 0 254 262 550 81 1 548 1013 342 251 0 254 545 551 552 83 3 549 .752
941176470588 .752941176470588 .752941176470588 81 1 254 1168 169 251 548 0 250 2
58 553 81 1 551 1014 342 247 0 250 548 554 555 83 3 552 .752941176470588 .752941
176470588 .752941176470588 81 1 250 1167 169 247 551 0 246 254 556 81 1 554 1015
 342 243 0 246 551 557 558 83 3 555 .752941176470588 .752941176470588 .752941176
470588 81 1 246 1166 169 243 554 0 242 250 559 81 1 557 1016 342 239 0 242 554 5
60 561 83 3 558 .752941176470588 .752941176470588 .752941176470588 81 1 242 1165
 169 239 557 0 238 246 562 81 1 560 1017 342 235 0 238 557 563 564 83 3 561 .752
941176470588 .752941176470588 .752941176470588 81 1 238 1164 169 235 560 0 234 2
42 565 81 1 563 1018 342 231 0 234 560 566 567 83 3 564 .752941176470588 .752941
176470588 .752941176470588 81 1 234 1163 169 231 563 0 230 238 568 81 1 566 1019
 342 225 0 230 563 569 570 83 3 567 .752941176470588 .752941176470588 .752941176
470588 81 1 230 1162 169 225 566 0 224 234 571 81 1 569 1020 342 216 0 224 566 2
20 572 83 3 570 .752941176470588 .752941176470588 .752941176470588 81 1 224 1161
 169 216 569 0 221 230 573 81 1 220 1021 342 212 0 214 569 343 574 83 3 572 .752
941176470588 .752941176470588 .752941176470588 81 1 343 1022 342 215 0 221 220 3
33 575 83 3 574 .752941176470588 .752941176470588 .752941176470588 81 1 221 1160
 169 215 343 0 214 224 576 83 3 575 .752941176470588 .752941176470588 .752941176
470588 82 1 576 2137456953 82 1 573 2138636601 82 1 571 2139226423 82 1 568 2139
816247 82 1 565 2140406071 82 1 562 2140995895 82 1 559 2141585719 82 1 556 2142
765367 82 1 553 2143355191 82 1 550 2143945015 82 1 547 2144534839 82 1 544 2145
124663 83 3 539 .752941176470588 .752941176470588 .752941176470588 82 1 533 -212
8805575 82 1 529 -2126315207 15 352 585 0 132 207 577 17 132 0 352 132 132 0 578
 130 0 0 +15 577 586 0 68 207 0 17 68 0 577 68 68 0 579 61 0 0 +17 579 0 248 579
 579 0 68 61 0 0 -15 248 325 0 579 243 580 15 580 163 0 71 243 0 17 71 0 580 71
 71 0 581 69 0 0 +17 581 0 244 581 581 0 71 69 0 0 -15 244 326 0 581 239 582 15
 582 158 0 74 239 0 17 74 0 582 74 74 0 583 72 0 0 +17 583 0 240 583 583 0 74 72
 0 0 -15 240 327 0 583 235 584 15 584 153 0 77 235 0 17 77 0 584 77 77 0 585 75
 0 0 +17 585 0 236 585 585 0 77 75 0 0 -15 236 328 0 585 231 586 15 586 148 0 80
 231 0 17 80 0 586 80 80 0 587 78 0 0 +17 587 0 232 587 587 0 80 78 0 0 -15 232
 329 0 587 225 588 15 588 143 0 83 225 0 17 83 0 588 83 83 0 589 81 0 0 +17 589
 0 590 589 589 0 83 81 0 0 -15 590 330 0 589 216 0 17 578 0 324 578 578 0 132 13
0 0 0 -15 324 675 0 578 319 503 82 1 347 -2082733765 83 3 345 .752941176470588 .
752941176470588 .752941176470588 79 14 341 SWEntUnchanged82 1 300 -2083651269 17
 273 0 198 273 273 0 39 37 0 0 -15 198 440 0 273 193 591 15 591 441 0 592 193 0
 17 592 0 591 592 592 0 42 40 0 0 -17 42 0 188 42 42 0 592 40 0 0 +15 188 389 0
 42 181 593 15 593 383 0 45 181 0 17 45 0 593 45 45 0 594 43 0 0 +17 594 0 201 5
94 594 0 45 43 0 0 -15 201 453 0 594 196 595 15 595 454 0 596 196 0 17 596 0 595
 596 596 0 36 34 0 0 -17 36 0 182 36 36 0 596 34 0 0 +82 1 271 2145714489 15 22
 425 0 20 216 590 15 26 419 0 24 215 339 82 1 222 2138046777 82 1 206 -212756039
1 82 1 186 2146631993 82 1 172 -2084765381 19 15 112 0 1 0 8 5 S0 74 4 CI16 inde
x_map_offset0 0 1 dCCZ20 13 10 0 0 427 597 598 480 599 600 601 11 346 2 0 0 0 0
 0 0 0 0 0 0 81 2 597 738 602 1 0 598 0 0 0 603 81 2 598 741 604 1 597 599 0 0 0
 605 81 1 599 792 606 1 598 600 0 0 607 81 2 600 840 608 1 599 601 0 0 0 609 81
 2 601 946 610 1 600 11 0 0 611 0 81 2 11 1002 612 1 601 2 0 0 0 0 80 2 612 613
 614 9000 0 0 0 0 3 5 0 0 0 FFTFFFFFFFFFFF9 1 79 16 614 BODY_RECIPE_200180 2 610
 615 616 8004 0 0 0 0 3 5 0 0 0 FFTFFFFFFFFFFF2 3 83 1 611 1e3 79 16 616 SDL/TYS
A_DENSITY80 2 608 617 618 9000 0 0 0 0 3 5 0 0 0 FFTFFFFFFFFFFF9 1 82 1 609 1 79
 24 618 BODY_IN_LIGHTWEIGHT_PERM80 1 606 619 620 9000 1 1 1 1 1 1 1 1 0 FFTFFFFF
FFFFFF1 82 1 607 951473 79 10 620 BODY_MATCH80 2 604 621 622 9000 0 0 0 0 3 5 0
 0 0 FFTFFFFFFFFFFF9 1 82 1 605 273 79 30 622 LAST_BODY_MODIFYING_FEATURE_ID80 2
 602 623 624 9000 0 0 0 0 3 5 0 0 0 FFTFFFFFFFFFFT9 1 82 1 603 3167 79 19 624 EN
T_TIME_STAMP_200180 2 10 625 626 9000 0 0 0 0 3 5 0 0 0 FFTFFFFFFFFFFF9 1 82 1 1
2 116 79 12 626 ATOM_ID_20011 0 
