**ABCDEFGHIJKLMNOPQRSTUVWXYZabcdefghijklmnopqrstuvwxyz**************************
**PARASOLID !"#$%&'()*+,-./:;<=>?@[\]^_`{|}~0123456789**************************
**PART1;
MC=AMD64;
MC_MODEL=Intel64 Family 6 Model 158 Stepping 9, GenuineIntel;
MC_ID=unknown;
OS=Windows_NT;
OS_RELEASE=unknown;
FRU=Parasolid Version 33.1, build 260,  4-25-2022;
APPL=SOLIDWORKS 2022-2022207;
SITE=;
USER=unknown;
FORMAT=text;
GUISE=transmit;
KEY=FILEMcMaster 93600A304 - 316 Stainless Steel Dowel Pin_para.x_t;
DATE=Fri Sep  2 13:22:34 2022;
**PART2;
SCH=SCH_3301260_33103;
USFLD_SIZE=0;
**PART3;
**END_OF_HEADER*****************************************************************
T51 : TRANSMIT FILE created by modeller version 330126023 SCH_3301260_33103_1300
6230 0 12 35 CCCI7 lattice222 0 CCCI4 mesh1006 0 I8 polyline1008 0 CCCCCCCDI5 ow
ner1040 0 CCCCCCI13 boundary_mesh1006 0 I17 boundary_polyline1008 0 CCCA16 index
_map_offset0 0 1 dA9 index_map82 0 A17 node_id_index_map82 0 A20 schema_embeddin
g_map82 0 A5 child12 0 A14 lowest_node_id0 0 1 dA16 mesh_offset_data206 0 Z1 319
 2 3 0 0 0 0 0 0 0 1e3 1e-8 0 4 0 1 0 1 1 5 6 7 0 0 0 8 9 0 0 0 0 0 0 0 0 81 255
 2 2 314 10 1 11 0 0 0 0 12 70 11 CI9 list_type0 0 1 uI10 notransmit0 0 1 lCCCDC
CDI12 finger_index0 0 1 dI12 finger_block1012 0 CZ3 0 4 T1 0 0 9 20 1 13 13 13 2
55 5 29 0 1 0 14 0 0 15 0 51 255 6 28 0 14 16 0 0 +-.0045 0 0 1 0 0 .0015 0 0 -1
 31 255 7 60 0 9 17 0 0 +.0045 0 0 1 0 0 0 0 -1 .0015 19 8 CCCCCCCA5 owner12 0 Z
8 7 0 1 15 0 18 V0 16 255 9 40 0 ?19 0 20 7 0 0 1 17 255 19 0 21 19 19 0 22 9 0
 0 +16 20 81 0 ?23 9 24 17 0 0 1 17 23 0 25 23 23 0 26 20 0 0 +16 24 116 0 ?27 2
0 28 29 0 0 1 31 17 100 0 20 29 7 0 +.005 0 0 1 0 0 0 0 -1 .00136602540378444 31
 29 135 0 24 30 17 0 +-.005 0 0 -1 0 0 0 0 1 .001366025403784438 31 30 136 0 28
 0 29 0 +-.0045 0 0 -1 0 0 0 0 1 .0015 16 28 113 0 ?31 24 0 30 0 0 1 17 31 0 32
 31 31 0 33 28 0 0 +15 255 32 123 0 31 34 0 17 33 0 35 33 33 0 31 28 0 0 -15 35
 24 0 33 14 36 14 255 14 25 37 ?38 0 35 5 6 +0 0 38 0 18 15 36 46 0 22 14 0 17 2
2 0 36 22 22 0 19 9 0 0 -81 1 37 315 39 14 40 0 0 41 42 14 38 84 41 ?43 14 44 5
 16 -0 0 43 14 18 13 18 8 0 0 0 0 0 0 8 14 81 1 41 316 39 38 45 0 37 46 47 14 43
 89 46 ?34 38 25 5 48 +0 0 34 38 18 15 44 87 0 26 38 21 52 255 16 97 0 38 48 6 0
 -.0045 0 0 -1 0 0 .0015 .2588190451025215 .965925826289068 0 0 -1 50 255 48 99
 0 43 49 16 0 +.005 0 0 1 0 0 0 0 -1 52 49 132 0 34 50 48 0 --.0045 0 0 1 0 0 .0
015 .2588190451025215 .965925826289068 0 0 1 14 34 119 51 ?52 43 53 5 49 -0 0 52
 43 18 50 50 134 0 52 0 49 0 +-.005 0 0 -1 0 0 0 0 1 14 52 124 54 ?0 34 55 5 50
 +0 0 0 34 18 81 1 54 319 39 52 56 0 51 0 57 15 55 126 0 27 52 0 17 27 0 55 27 2
7 0 58 24 0 0 +17 58 0 53 58 58 0 27 24 0 0 -15 53 122 0 58 34 32 80 255 1 39 59
 60 9000 1 1 1 1 1 1 1 1 0 FFFFTFTFFFFFFF1 81 1 56 302 61 52 0 54 62 0 63 81 1 5
1 318 39 34 62 0 46 54 64 82 255 1 57 -1073348499 81 1 62 301 61 34 0 51 65 56 6
6 81 1 46 317 39 43 65 0 41 51 67 82 1 64 -1071382419 81 1 65 300 61 43 0 46 45
 62 68 82 1 67 -1088814998 80 1 61 0 69 8001 0 0 0 0 3 5 0 0 0 FFFFTFTFFFFFFF2 8
1 1 45 299 61 38 0 41 40 65 70 83 255 3 68 1 0 0 81 1 40 298 61 14 0 37 0 45 71
 83 3 70 1 0 0 83 3 71 1 0 0 79 255 15 69 SDL/TYSA_COLOUR83 3 66 1 0 0 83 3 63 1
 0 0 79 14 60 SWEntUnchanged17 26 0 44 26 26 0 23 20 0 0 -15 21 88 0 19 38 0 15
 25 91 0 23 43 0 82 1 47 -1086848918 82 1 42 -1105526681 19 15 30 0 1 0 8 5 S0 7
4 4 CI16 index_map_offset0 0 1 dCCZ20 13 9 0 0 54 72 73 74 75 76 11 56 2 0 0 0 0
 0 0 0 0 0 0 0 81 2 72 137 77 1 0 73 0 0 0 78 81 1 73 143 79 1 72 74 0 0 80 81 2
 74 150 81 1 73 75 0 0 0 82 81 2 75 153 83 1 74 76 0 0 0 84 81 2 76 188 85 1 75
 11 0 0 86 0 81 2 11 293 87 1 76 2 0 0 0 0 80 2 87 88 89 9000 0 0 0 0 3 5 0 0 0
 FFTFFFFFFFFFFF9 1 79 16 89 BODY_RECIPE_200180 2 85 90 91 8004 0 0 0 0 3 5 0 0 0
 FFTFFFFFFFFFFF2 3 83 1 86 1e3 79 16 91 SDL/TYSA_DENSITY80 2 83 92 93 9000 0 0 0
 0 3 5 0 0 0 FFTFFFFFFFFFFF9 1 82 1 84 72 79 30 93 LAST_BODY_MODIFYING_FEATURE_I
D80 2 81 94 95 9000 0 0 0 0 3 5 0 0 0 FFTFFFFFFFFFFF9 1 82 1 82 1 79 24 95 BODY_
IN_LIGHTWEIGHT_PERM80 1 79 96 97 9000 1 1 1 1 1 1 1 1 0 FFTFFFFFFFFFFF1 82 1 80
 1162746 79 10 97 BODY_MATCH80 2 77 98 99 9000 0 0 0 0 3 5 0 0 0 FFTFFFFFFFFFFT9
 1 82 1 78 448 79 19 99 ENT_TIME_STAMP_200180 2 10 100 101 9000 0 0 0 0 3 5 0 0
 0 FFTFFFFFFFFFFF9 1 82 1 12 104 79 12 101 ATOM_ID_20011 0 
